<svg width="1695" height="656" viewBox="0 0 1695 656" fill="none" xmlns="http://www.w3.org/2000/svg">
<path fill-rule="evenodd" clip-rule="evenodd" d="M282.186 196.726C277.071 190.638 270.993 183.4 263.102 182.413C239.567 179.469 243.574 200.981 220.163 196.726C187.181 190.729 196.179 177.513 172.453 153.787C165.898 147.231 153.369 144.245 148.598 139.474C144.605 135.481 161.16 128.324 181.995 125.161C195.354 123.133 196.308 119.197 220.163 125.161C230.044 127.632 237.567 136.363 244.018 144.245C252.138 154.168 253.679 161.764 259.104 173.381" fill="#FFE2CA"/>
<path d="M282.186 196.726C277.071 190.638 270.993 183.4 263.102 182.413C239.567 179.469 243.574 200.981 220.163 196.726C187.181 190.729 196.179 177.513 172.453 153.787C165.898 147.231 153.369 144.245 148.598 139.474C144.605 135.481 161.16 128.324 181.995 125.161C195.354 123.133 196.308 119.197 220.163 125.161C230.044 127.632 237.567 136.363 244.018 144.245C252.138 154.169 253.679 161.764 259.104 173.381" stroke="#FFC9C9" stroke-width="3" stroke-miterlimit="1.5" stroke-linecap="round" stroke-linejoin="round"/>
<path d="M267.949 182.552C265.167 180.333 261.961 177.781 258.407 177.781C253.378 177.781 248.569 180.252 244.094 182.552" stroke="#FFC9C9" stroke-width="3" stroke-miterlimit="1.5" stroke-linecap="round" stroke-linejoin="round"/>
<path d="M258.188 177.813C254.801 176.725 251.161 175.556 248.646 173.042C241.447 165.843 235.479 157.474 229.562 149.187" stroke="#FFC9C9" stroke-width="3" stroke-miterlimit="1.5" stroke-linecap="round" stroke-linejoin="round"/>
<path d="M248.98 172.809C244.386 170.767 239.658 168.663 234.667 168.038C226.776 167.051 218.746 167.547 210.812 168.038" stroke="#FFC9C9" stroke-width="3" stroke-miterlimit="1.5" stroke-linecap="round" stroke-linejoin="round"/>
<path d="M234.282 167.97C229.225 165.265 224.025 162.483 219.969 158.428C214.344 152.803 209.969 146.023 205.656 139.344" stroke="#FFC9C9" stroke-width="3" stroke-miterlimit="1.5" stroke-linecap="round" stroke-linejoin="round"/>
<path d="M220.085 158.428C204.183 152.068 188.277 145.703 172.375 139.344" stroke="#FFC9C9" stroke-width="3" stroke-miterlimit="1.5" stroke-linecap="round" stroke-linejoin="round"/>
<path fill-rule="evenodd" clip-rule="evenodd" d="M1395.01 583.944C1404.75 590.654 1415.22 597.84 1426.93 599.482C1442.27 601.597 1459.28 601.663 1473.13 594.787C1491.54 585.607 1501.74 564.639 1519.06 553.626C1522.42 551.468 1537.87 564.364 1535.83 568.484C1518.41 603.649 1503.81 622.556 1466.09 628.418C1458.63 629.592 1433.96 624.498 1417.09 612.531C1410.12 607.543 1404.34 600.835 1400.26 593.298" fill="#FFE2CA"/>
<path d="M1395.01 583.944C1404.75 590.654 1415.22 597.84 1426.93 599.482C1442.27 601.597 1459.28 601.663 1473.13 594.787C1491.54 585.607 1501.74 564.639 1519.06 553.626C1522.42 551.468 1537.87 564.364 1535.83 568.484C1518.41 603.649 1503.81 622.556 1466.09 628.418C1458.63 629.592 1433.96 624.498 1417.09 612.531C1410.12 607.543 1404.34 600.835 1400.26 593.298" stroke="#FFC9C9" stroke-width="3" stroke-miterlimit="1.5" stroke-linecap="round" stroke-linejoin="round"/>
<path d="M1522.22 551.618C1526.17 549.862 1530.6 547.906 1534.81 548.771C1537.31 549.311 1538.72 552.591 1539.22 555.107C1539.83 558.172 1538.83 561.387 1537.89 564.396" stroke="#FFC9C9" stroke-width="3" stroke-miterlimit="1.5" stroke-linecap="round" stroke-linejoin="round"/>
<path d="M1536.68 545.859C1538.48 539.43 1540.35 532.8 1540.31 526.098C1540.31 519.168 1538.38 512.393 1536.53 505.727" stroke="#FFC9C9" stroke-width="3" stroke-miterlimit="1.5" stroke-linecap="round" stroke-linejoin="round"/>
<path fill-rule="evenodd" clip-rule="evenodd" d="M239.559 369.208C212.853 379.303 185.181 389.761 163.15 407.932C139.038 427.821 119.728 451.607 108.679 480.849C105.153 490.179 122.608 489.5 129.659 496.551C135.809 502.701 134.904 517.851 142.568 513.743C169.534 499.298 191.201 480.37 207.809 454.684C224.31 429.157 232.07 398.661 239.559 369.208Z" fill="#FFE2CA" stroke="#FFC9C9" stroke-width="3" stroke-miterlimit="1.5" stroke-linecap="round" stroke-linejoin="round"/>
<path d="M106.541 470.198C101.256 467.674 90.0927 462.337 89.0943 468.108C87.6061 476.759 96.4799 484.616 103.049 490.436" stroke="#FFC9C9" stroke-width="3" stroke-miterlimit="1.5" stroke-linecap="round" stroke-linejoin="round"/>
<path d="M157.108 511.484C161.662 516.053 170.64 525.06 165.481 528.928C158.656 534.046 147.845 528.141 140.359 524.047" stroke="#FFC9C9" stroke-width="3" stroke-miterlimit="1.5" stroke-linecap="round" stroke-linejoin="round"/>
<path fill-rule="evenodd" clip-rule="evenodd" d="M134.183 516.792C126.196 532.157 118.205 547.533 110.809 563.191C106.337 572.666 106.392 585.147 98.5985 592.147C86.9115 602.646 56.0331 612.385 56.0331 612.385C56.0331 612.385 78.6501 592.566 86.3882 579.936C92.2707 570.335 90.3556 557.346 95.8076 547.492C104.414 531.945 117.5 517.501 129.161 504.088" fill="#FFE2CA"/>
<path d="M134.183 516.792C126.196 532.157 118.205 547.533 110.809 563.191C106.337 572.666 106.392 585.147 98.5985 592.147C86.9115 602.646 56.0331 612.385 56.0331 612.385C56.0331 612.385 78.6501 592.566 86.3882 579.936C92.2707 570.335 90.3556 557.346 95.8076 547.492C104.414 531.945 117.5 517.501 129.161 504.088" stroke="#FFC9C9" stroke-width="3" stroke-miterlimit="1.5" stroke-linecap="round" stroke-linejoin="round"/>
<path fill-rule="evenodd" clip-rule="evenodd" d="M125.462 499.062C119.349 505.33 108.827 517.819 101.037 521.816C94.5833 525.123 86.552 523.824 79.7566 526.351C70.1479 529.918 62.0719 537.237 52.1923 539.953C43.0958 542.458 23.9306 541.701 23.9306 541.701C23.9306 541.701 47.0149 542.451 59.871 517.897C65.104 507.898 88.7268 516.468 96.502 512.397C104.455 508.229 107.937 501.281 111.711 493.135" fill="#FFE2CA"/>
<path d="M125.462 499.062C119.349 505.33 108.827 517.819 101.037 521.816C94.5833 525.123 86.552 523.824 79.7566 526.351C70.1479 529.918 62.0719 537.237 52.1923 539.953C43.0958 542.458 23.9306 541.701 23.9306 541.701C23.9306 541.701 47.0149 542.451 59.871 517.897C65.104 507.898 88.7268 516.468 96.502 512.397C104.455 508.229 107.937 501.281 111.711 493.135" stroke="#FFC9C9" stroke-width="3" stroke-miterlimit="1.5" stroke-linecap="round" stroke-linejoin="round"/>
<path d="M77.0373 534.336C74.9552 540.278 72.814 546.413 69.0136 551.431C56.9443 567.345 52.2715 563.519 43.1936 581.437C41.5978 584.584 40.0539 591.554 40.0539 591.554C40.0539 591.554 63.7211 574.849 73.5487 564.339C80.6856 556.705 83.9294 546.12 90.2943 537.825C93.204 534.032 97.2122 531.175 101.109 528.406" stroke="#FFC9C9" stroke-width="3" stroke-miterlimit="1.5" stroke-linecap="round" stroke-linejoin="round"/>
<path d="M129.632 474.449C135.559 473.725 143.301 472.783 147.328 477.188C151.985 482.291 151.343 490.735 150.816 497.623" stroke="#FFC9C9" stroke-width="3" stroke-miterlimit="1.5" stroke-linecap="round" stroke-linejoin="round"/>
<path d="M139.912 456.214C147.131 453.961 156.45 451.048 162.585 455.468C168.089 459.428 167.213 468.655 166.575 475.402" stroke="#FFC9C9" stroke-width="3" stroke-miterlimit="1.5" stroke-linecap="round" stroke-linejoin="round"/>
<path fill-rule="evenodd" clip-rule="evenodd" d="M1328.11 59.5953C1352.37 44.7843 1380.4 28.9797 1408.69 31.7302C1510.22 41.5918 1571.76 91.3113 1618.36 102.601C1621.97 103.477 1639.58 95.5486 1653.35 91.997C1663.45 89.3843 1679.63 93.3706 1689.82 92.7218C1691.76 92.5908 1694.28 96.6122 1692.74 97.8045C1685.59 103.263 1677.67 108.631 1669.39 112.53C1664.89 114.643 1657.72 113.476 1656.45 118.186C1654.98 123.672 1659.74 125.814 1663.57 130.46C1669.03 137.091 1674.91 146.066 1677.78 153.643C1678.75 156.201 1674.68 160.911 1672.23 159.684C1662.01 154.564 1647.94 152.256 1638.98 144.442C1629.08 135.82 1615.82 120.935 1611.75 120.542C1600.48 119.46 1568.06 138.027 1393.25 101.415C1374.02 97.3908 1357.81 83.476 1343.13 70.4282" fill="#FFE2CA"/>
<path d="M1328.11 59.5953C1352.37 44.7843 1380.4 28.9797 1408.69 31.7302C1510.22 41.5917 1571.76 91.3113 1618.36 102.601C1621.97 103.477 1639.58 95.5486 1653.35 91.997C1663.45 89.3843 1679.63 93.3705 1689.82 92.7218C1691.76 92.5908 1694.28 96.6122 1692.74 97.8045C1685.59 103.263 1677.67 108.631 1669.39 112.53C1664.89 114.643 1657.72 113.476 1656.45 118.186C1654.98 123.672 1659.74 125.814 1663.57 130.46C1669.03 137.091 1674.91 146.066 1677.78 153.643C1678.75 156.201 1674.68 160.911 1672.23 159.684C1662.01 154.564 1647.94 152.256 1638.98 144.442C1629.08 135.82 1615.82 120.935 1611.75 120.542C1600.48 119.46 1568.06 138.027 1393.25 101.415C1374.02 97.3908 1357.81 83.476 1343.13 70.4282" stroke="#FFC9C9" stroke-width="3" stroke-miterlimit="1.5" stroke-linecap="round" stroke-linejoin="round"/>
<path fill-rule="evenodd" clip-rule="evenodd" d="M1335.71 64.0786C1345.26 66.3612 1354.85 68.6563 1364.58 70.0205C1368.96 70.6358 1373.43 70.3121 1377.85 69.9931" fill="#FFE2CA"/>
<path d="M1335.71 64.0786C1345.26 66.3612 1354.85 68.6563 1364.58 70.0205C1368.96 70.6358 1373.43 70.3121 1377.85 69.9931" stroke="#FFC9C9" stroke-width="3" stroke-miterlimit="1.5" stroke-linecap="round" stroke-linejoin="round"/>
<path fill-rule="evenodd" clip-rule="evenodd" d="M1364.24 52.0312C1367.24 55.3824 1370.59 59.108 1374.93 60.2729C1377.9 61.0678 1381.08 58.9386 1383.63 57.2274" fill="#FFE2CA"/>
<path d="M1364.24 52.0312C1367.24 55.3824 1370.59 59.108 1374.93 60.2729C1377.9 61.0678 1381.08 58.9386 1383.63 57.2274" stroke="#FFC9C9" stroke-width="3" stroke-miterlimit="1.5" stroke-linecap="round" stroke-linejoin="round"/>
<path fill-rule="evenodd" clip-rule="evenodd" d="M1400.33 42.6562C1402.69 51.1205 1405.15 60.0227 1404.08 68.7438C1403.04 77.1838 1398.52 84.9307 1394.21 92.2611" fill="#FFE2CA"/>
<path d="M1400.33 42.6562C1402.69 51.1205 1405.15 60.0227 1404.08 68.7438C1403.04 77.1838 1398.52 84.9307 1394.21 92.2611" stroke="#FFC9C9" stroke-width="3" stroke-miterlimit="1.5" stroke-linecap="round" stroke-linejoin="round"/>
<path fill-rule="evenodd" clip-rule="evenodd" d="M1442.53 79.6892C1433.23 76.3755 1422.87 72.6864 1413.3 75.0802C1409.48 76.0334 1416.1 82.5199 1418.33 85.7467C1420.64 89.0677 1422.74 94.0218 1426.76 94.4557C1436.67 95.5217 1446.74 92.6065 1456.31 89.8296" fill="#FFE2CA"/>
<path d="M1442.53 79.6892C1433.23 76.3755 1422.87 72.6864 1413.3 75.0802C1409.48 76.0334 1416.1 82.5199 1418.33 85.7467C1420.64 89.0677 1422.74 94.0218 1426.76 94.4557C1436.67 95.5217 1446.74 92.6065 1456.31 89.8296" stroke="#FFC9C9" stroke-width="3" stroke-miterlimit="1.5" stroke-linecap="round" stroke-linejoin="round"/>
<path fill-rule="evenodd" clip-rule="evenodd" d="M1420.25 39.2523C1417.21 43.9986 1414.04 48.9722 1412.96 54.5006C1412.57 56.5054 1414.56 60.8723 1416.22 59.6734C1421.08 56.166 1423.78 50.2498 1426.29 44.8127" fill="#FFE2CA"/>
<path d="M1420.25 39.2523C1417.21 43.9986 1414.04 48.9722 1412.96 54.5006C1412.57 56.5054 1414.56 60.8723 1416.22 59.6734C1421.08 56.166 1423.78 50.2498 1426.29 44.8127" stroke="#FFC9C9" stroke-width="3" stroke-miterlimit="1.5" stroke-linecap="round" stroke-linejoin="round"/>
<path fill-rule="evenodd" clip-rule="evenodd" d="M1434.29 44.4951C1431.9 48.8557 1429.29 53.6362 1429.43 58.6047C1429.52 61.3551 1432.75 66.3822 1434.95 64.7403C1439.39 61.4856 1440.54 55.0522 1441.51 49.657" fill="#FFE2CA"/>
<path d="M1434.29 44.4951C1431.9 48.8557 1429.29 53.6362 1429.43 58.6047C1429.52 61.3551 1432.75 66.3822 1434.95 64.7403C1439.39 61.4856 1440.54 55.0522 1441.51 49.657" stroke="#FFC9C9" stroke-width="3" stroke-miterlimit="1.5" stroke-linecap="round" stroke-linejoin="round"/>
<path fill-rule="evenodd" clip-rule="evenodd" d="M1454.16 52.0763C1451.7 54.5189 1449.05 57.1506 1447.99 60.4552C1447.36 62.3769 1447.73 66.9122 1449.67 66.2815C1454.69 64.606 1458.4 60.0296 1461.74 55.8976" fill="#FFE2CA"/>
<path d="M1454.16 52.0763C1451.7 54.5189 1449.05 57.1506 1447.99 60.4552C1447.36 62.3769 1447.73 66.9122 1449.67 66.2815C1454.69 64.606 1458.4 60.0296 1461.74 55.8976" stroke="#FFC9C9" stroke-width="3" stroke-miterlimit="1.5" stroke-linecap="round" stroke-linejoin="round"/>
<path fill-rule="evenodd" clip-rule="evenodd" d="M1470.57 58.3304C1467.33 59.7762 1463.16 61.6298 1462.31 65.0781C1461.62 67.9384 1464.3 73.2618 1467.14 72.4642C1472.47 70.9694 1475.81 65.251 1478.6 60.482" fill="#FFE2CA"/>
<path d="M1470.57 58.3304C1467.33 59.7762 1463.16 61.6298 1462.31 65.0781C1461.62 67.9384 1464.3 73.2618 1467.14 72.4642C1472.47 70.9694 1475.81 65.251 1478.6 60.482" stroke="#FFC9C9" stroke-width="3" stroke-miterlimit="1.5" stroke-linecap="round" stroke-linejoin="round"/>
<path fill-rule="evenodd" clip-rule="evenodd" d="M1484.36 61.5915C1482.47 65.5438 1480.32 69.954 1480.96 74.298C1481.26 76.4023 1485.07 78.7056 1486.61 77.2467C1490.55 73.5601 1492.06 67.7992 1493.42 62.586" fill="#FFE2CA"/>
<path d="M1484.36 61.5915C1482.47 65.5438 1480.32 69.954 1480.96 74.298C1481.26 76.4023 1485.07 78.7056 1486.61 77.2467C1490.55 73.5601 1492.06 67.7992 1493.42 62.586" stroke="#FFC9C9" stroke-width="3" stroke-miterlimit="1.5" stroke-linecap="round" stroke-linejoin="round"/>
<path fill-rule="evenodd" clip-rule="evenodd" d="M1501.55 67.2121C1498.95 69.7823 1495.97 72.7239 1495.5 76.344C1495.17 78.9337 1497.04 84.1777 1499.41 83.1241C1505.08 80.6394 1508.62 74.5751 1511.74 69.2262" fill="#FFE2CA"/>
<path d="M1501.55 67.2121C1498.95 69.7823 1495.97 72.7239 1495.5 76.344C1495.17 78.9337 1497.04 84.1777 1499.41 83.1241C1505.08 80.6394 1508.62 74.5751 1511.74 69.2262" stroke="#FFC9C9" stroke-width="3" stroke-miterlimit="1.5" stroke-linecap="round" stroke-linejoin="round"/>
<path fill-rule="evenodd" clip-rule="evenodd" d="M1519.23 73.3649C1517.24 74.9903 1514.55 77.2534 1515 79.7567C1515.41 81.9607 1518.92 83.6363 1520.99 82.7952C1523.85 81.6571 1525.16 78.1119 1526.25 75.2464" fill="#FFE2CA"/>
<path d="M1519.23 73.3649C1517.24 74.9903 1514.55 77.2534 1515 79.7567C1515.41 81.9607 1518.92 83.6363 1520.99 82.7952C1523.85 81.6571 1525.16 78.1119 1526.25 75.2464" stroke="#FFC9C9" stroke-width="3" stroke-miterlimit="1.5" stroke-linecap="round" stroke-linejoin="round"/>
<path fill-rule="evenodd" clip-rule="evenodd" d="M1534.1 78.0185C1532.11 79.9475 1529.67 82.3095 1529.69 85.0788C1529.73 87.2007 1532.35 90.466 1534.22 89.5205C1537.58 87.871 1538.93 83.5248 1540.03 79.9659" fill="#FFE2CA"/>
<path d="M1534.1 78.0185C1532.11 79.9475 1529.67 82.3095 1529.69 85.0788C1529.73 87.2007 1532.35 90.466 1534.22 89.5205C1537.58 87.871 1538.93 83.5248 1540.03 79.9659" stroke="#FFC9C9" stroke-width="3" stroke-miterlimit="1.5" stroke-linecap="round" stroke-linejoin="round"/>
<path fill-rule="evenodd" clip-rule="evenodd" d="M1547.11 83.0007C1546.24 84.4997 1545.24 86.1991 1545.43 87.9234C1545.63 89.7138 1546.5 93.3513 1548.11 92.5836C1551.07 91.2092 1552.24 87.3781 1553.21 84.2762" fill="#FFE2CA"/>
<path d="M1547.11 83.0007C1546.24 84.4997 1545.24 86.1991 1545.43 87.9234C1545.63 89.7138 1546.5 93.3513 1548.11 92.5836C1551.07 91.2092 1552.24 87.3781 1553.21 84.2762" stroke="#FFC9C9" stroke-width="3" stroke-miterlimit="1.5" stroke-linecap="round" stroke-linejoin="round"/>
<path fill-rule="evenodd" clip-rule="evenodd" d="M1565.4 88.5543C1563.06 90.5937 1560.37 92.9599 1559.84 96.0221C1559.5 97.8119 1561.72 100.959 1563.37 100.19C1566.61 98.6908 1568.27 94.7853 1569.66 91.4844" fill="#FFE2CA"/>
<path d="M1565.4 88.5543C1563.06 90.5937 1560.37 92.9599 1559.84 96.0221C1559.5 97.8119 1561.72 100.959 1563.37 100.19C1566.61 98.6908 1568.27 94.7853 1569.66 91.4844" stroke="#FFC9C9" stroke-width="3" stroke-miterlimit="1.5" stroke-linecap="round" stroke-linejoin="round"/>
<path fill-rule="evenodd" clip-rule="evenodd" d="M1576.98 93.3863C1576.42 94.2628 1575.65 95.4952 1576.17 96.3932C1576.73 97.3931 1578.26 97.8509 1579.41 97.6204C1580.62 97.3709 1581.49 96.1621 1582.23 95.1502" fill="#FFE2CA"/>
<path d="M1576.98 93.3863C1576.42 94.2628 1575.65 95.4952 1576.17 96.3932C1576.73 97.3931 1578.26 97.8509 1579.41 97.6204C1580.62 97.3709 1581.49 96.1621 1582.23 95.1502" stroke="#FFC9C9" stroke-width="3" stroke-miterlimit="1.5" stroke-linecap="round" stroke-linejoin="round"/>
<path fill-rule="evenodd" clip-rule="evenodd" d="M1588.92 97.6777C1588.05 98.36 1586.8 99.3735 1587.1 100.418C1587.47 101.71 1589.08 102.962 1590.44 102.745C1592.44 102.403 1594 100.596 1595.35 99.0465" fill="#FFE2CA"/>
<path d="M1588.92 97.6777C1588.05 98.36 1586.8 99.3735 1587.1 100.418C1587.47 101.71 1589.08 102.962 1590.44 102.745C1592.44 102.403 1594 100.596 1595.35 99.0465" stroke="#FFC9C9" stroke-width="3" stroke-miterlimit="1.5" stroke-linecap="round" stroke-linejoin="round"/>
<path fill-rule="evenodd" clip-rule="evenodd" d="M1629.04 105.177C1637.05 105.68 1645.12 106.187 1653.07 105.161C1662.69 103.919 1672.07 101.154 1681.41 98.4206" fill="#FFE2CA"/>
<path d="M1629.04 105.177C1637.05 105.68 1645.12 106.187 1653.07 105.161C1662.69 103.919 1672.07 101.154 1681.41 98.4206" stroke="#FFC9C9" stroke-width="3" stroke-miterlimit="1.5" stroke-linecap="round" stroke-linejoin="round"/>
<path fill-rule="evenodd" clip-rule="evenodd" d="M1627.16 109.144C1630 110.513 1632.9 111.924 1636.02 112.234C1640.86 112.718 1645.74 112.089 1650.55 111.473" fill="#FFE2CA"/>
<path d="M1627.16 109.144C1630 110.513 1632.9 111.924 1636.02 112.234C1640.86 112.718 1645.74 112.089 1650.55 111.473" stroke="#FFC9C9" stroke-width="3" stroke-miterlimit="1.5" stroke-linecap="round" stroke-linejoin="round"/>
<path fill-rule="evenodd" clip-rule="evenodd" d="M1630.72 115.732C1635.76 116.279 1641.18 116.871 1645.4 119.666C1652.78 124.533 1658.72 131.373 1664.5 138.041" fill="#FFE2CA"/>
<path d="M1630.72 115.732C1635.76 116.279 1641.18 116.871 1645.4 119.666C1652.78 124.533 1658.72 131.373 1664.5 138.041" stroke="#FFC9C9" stroke-width="3" stroke-miterlimit="1.5" stroke-linecap="round" stroke-linejoin="round"/>
<path fill-rule="evenodd" clip-rule="evenodd" d="M1625.8 120.022C1630.65 121.258 1635.74 122.557 1639.73 125.545C1645.43 129.805 1649.85 135.597 1654.17 141.245" fill="#FFE2CA"/>
<path d="M1625.8 120.022C1630.65 121.258 1635.74 122.557 1639.73 125.545C1645.43 129.805 1649.85 135.597 1654.17 141.245" stroke="#FFC9C9" stroke-width="3" stroke-miterlimit="1.5" stroke-linecap="round" stroke-linejoin="round"/>
<path fill-rule="evenodd" clip-rule="evenodd" d="M1473.46 80.156C1475.07 82.4713 1477.07 85.3718 1476.34 88.0932C1475.4 91.584 1472.07 94.0625 1469.16 96.2054" fill="#FFE2CA"/>
<path d="M1473.46 80.156C1475.07 82.4713 1477.07 85.3718 1476.34 88.0932C1475.4 91.584 1472.07 94.0625 1469.16 96.2054" stroke="#FFC9C9" stroke-width="3" stroke-miterlimit="1.5" stroke-linecap="round" stroke-linejoin="round"/>
<path fill-rule="evenodd" clip-rule="evenodd" d="M1484.98 85.7627C1485.26 89.2773 1485.59 93.044 1484.31 96.335C1483.55 98.2408 1481.27 99.2216 1479.36 100.025" fill="#FFE2CA"/>
<path d="M1484.98 85.7627C1485.26 89.2773 1485.59 93.044 1484.31 96.335C1483.55 98.2408 1481.27 99.2216 1479.36 100.025" stroke="#FFC9C9" stroke-width="3" stroke-miterlimit="1.5" stroke-linecap="round" stroke-linejoin="round"/>
<path fill-rule="evenodd" clip-rule="evenodd" d="M1510.96 90C1514.08 91.3738 1518.08 93.1318 1518.92 96.4331C1519.72 99.5025 1516.93 102.642 1514.82 105.011" fill="#FFE2CA"/>
<path d="M1510.96 90C1514.08 91.3738 1518.08 93.1318 1518.92 96.4331C1519.72 99.5025 1516.93 102.642 1514.82 105.011" stroke="#FFC9C9" stroke-width="3" stroke-miterlimit="1.5" stroke-linecap="round" stroke-linejoin="round"/>
<path fill-rule="evenodd" clip-rule="evenodd" d="M1524.08 90.4688C1525.45 91.4114 1527.12 92.5685 1527.36 94.2145C1527.74 96.7265 1526.69 99.3041 1525.73 101.659" fill="#FFE2CA"/>
<path d="M1524.08 90.4688C1525.45 91.4114 1527.12 92.5685 1527.36 94.2145C1527.74 96.7265 1526.69 99.3041 1525.73 101.659" stroke="#FFC9C9" stroke-width="3" stroke-miterlimit="1.5" stroke-linecap="round" stroke-linejoin="round"/>
<path fill-rule="evenodd" clip-rule="evenodd" d="M1575.95 103.535C1571.3 104.917 1566.64 106.298 1561.96 107.667L1575.95 103.535Z" fill="#FFE2CA"/>
<path d="M1575.95 103.535C1571.3 104.917 1566.64 106.298 1561.96 107.667" stroke="#FFC9C9" stroke-width="3" stroke-miterlimit="1.5" stroke-linecap="round" stroke-linejoin="round"/>
<path fill-rule="evenodd" clip-rule="evenodd" d="M1583.6 105.783C1584.28 107.252 1585.3 109.495 1584.11 110.58C1582.31 112.217 1579.37 112.034 1576.96 111.889" fill="#FFE2CA"/>
<path d="M1583.6 105.783C1584.28 107.252 1585.3 109.495 1584.11 110.58C1582.31 112.217 1579.37 112.034 1576.96 111.889" stroke="#FFC9C9" stroke-width="3" stroke-miterlimit="1.5" stroke-linecap="round" stroke-linejoin="round"/>
<path d="M1491.76 47.4679C1495.76 46.8196 1499.94 46.1255 1503.82 47.0969C1514.65 49.812 1525.58 52.9709 1535.33 58.3845C1536.96 59.2961 1535.17 62.3288 1534.19 63.9576" stroke="#FFC9C9" stroke-width="3" stroke-miterlimit="1.5" stroke-linecap="round" stroke-linejoin="round"/>
<path d="M1515.23 56.2725C1515.14 55.4187 1515.01 54.2624 1515.69 53.7423C1516.46 53.173 1517.63 53.4982 1518.54 53.7446" stroke="#FFC9C9" stroke-width="3" stroke-miterlimit="1.5" stroke-linecap="round" stroke-linejoin="round"/>
<path d="M1521.52 58.4699C1521.39 57.7405 1521.18 56.49 1521.92 56.3015C1523.25 55.9155 1524.75 56.6176 1526.03 57.2128" stroke="#FFC9C9" stroke-width="3" stroke-miterlimit="1.5" stroke-linecap="round" stroke-linejoin="round"/>
<path d="M1527.23 61.8603C1527.16 60.7657 1527.05 59.2958 1527.91 58.6303C1528.86 57.9055 1530.37 58.3274 1531.51 58.6435" stroke="#FFC9C9" stroke-width="3" stroke-miterlimit="1.5" stroke-linecap="round" stroke-linejoin="round"/>
<path d="M1558.23 120.278C1546.04 117.961 1533.8 115.634 1521.44 114.594C1520.56 114.52 1521.28 116.815 1522.07 117.225C1531.75 122.221 1541.46 127.392 1551.94 130.348C1555.32 131.301 1559.02 129.841 1562.28 128.568" stroke="#FFC9C9" stroke-width="3" stroke-miterlimit="1.5" stroke-linecap="round" stroke-linejoin="round"/>
</svg>
