<svg width="874" height="575" viewBox="0 0 874 575" fill="none" xmlns="http://www.w3.org/2000/svg">
<g filter="url(#filter0_f)">
<path d="M574.538 454.317C576.971 457.988 579.84 462.322 584.102 463.426C589.813 464.913 597.044 465.02 601.679 461.369C606.342 457.702 608.716 450.575 607.895 444.7C606.868 437.371 601.033 396.215 579.112 398.133C567.305 399.168 556.014 404.001 545.227 408.917C541.532 410.601 537.778 413.63 536.592 417.52C535.11 422.389 536.412 427.885 537.975 432.731C538.973 435.836 541.062 439.003 543.98 440.455C546.449 441.682 552.896 437.151 552.228 439.824C550.82 445.436 544.241 448.24 540.857 452.931C537.962 456.937 535.494 461.284 533.479 465.8C532.189 468.684 529.888 472.011 531.024 474.961C534.804 484.82 544.298 490.095 554.359 486.456C558.536 484.94 561.663 481.23 564.529 477.829" stroke="#FFC9C9" stroke-width="3" stroke-miterlimit="1.5" stroke-linecap="round" stroke-linejoin="round"/>
<path fill-rule="evenodd" clip-rule="evenodd" d="M566.072 473.034C567.401 465.555 568.744 458.003 571.354 450.872C574.151 443.24 579.241 438.805 587.763 439.335C592.094 439.604 595.747 445.806 595.983 449.396C596.107 451.294 595.639 453.665 594.098 454.786C586.159 460.556 586.293 454.261 582.982 449.842C582.171 448.758 581.341 446.829 580.013 447.082C578.093 447.45 576.851 449.527 575.851 451.204" fill="#FFE2CA"/>
<path d="M566.072 473.034C567.401 465.555 568.744 458.003 571.354 450.872C574.151 443.24 579.241 438.805 587.763 439.335C592.094 439.604 595.747 445.806 595.983 449.396C596.107 451.294 595.639 453.665 594.098 454.786C586.159 460.556 586.293 454.261 582.982 449.842C582.171 448.758 581.341 446.829 580.013 447.082C578.093 447.449 576.852 449.527 575.851 451.204" stroke="#FFC9C9" stroke-width="3" stroke-miterlimit="1.5" stroke-linecap="round" stroke-linejoin="round"/>
<path fill-rule="evenodd" clip-rule="evenodd" d="M547.871 448.459C551.787 446.293 555.716 444.111 559.341 441.493C560.898 440.367 562.936 439.198 563.302 437.317C563.415 436.734 558.655 428.548 558.287 428.329C555.545 426.703 547.541 424.957 544.526 428.356C543.01 430.063 543.614 436.445 547.097 436.684C549.84 436.872 552.221 434.372 554.963 434.206C556.258 434.131 558.35 434.71 558.41 436.006C558.491 437.638 556.603 438.852 555.23 439.735" fill="#FFE2CA"/>
<path d="M547.871 448.459C551.787 446.293 555.716 444.111 559.341 441.493C560.898 440.367 562.936 439.198 563.302 437.317C563.415 436.734 558.655 428.548 558.287 428.329C555.545 426.703 547.541 424.957 544.526 428.356C543.01 430.063 543.614 436.445 547.097 436.684C549.84 436.872 552.221 434.372 554.963 434.206C556.258 434.131 558.35 434.71 558.41 436.006C558.491 437.638 556.603 438.852 555.23 439.735" stroke="#FFC9C9" stroke-width="3" stroke-miterlimit="1.5" stroke-linecap="round" stroke-linejoin="round"/>
<path d="M636.071 512.82C636.09 516.311 636.11 520.432 638.457 523.015C641.599 526.482 646.348 529.694 651.007 529.286C655.693 528.879 660.363 525.184 662.37 520.931C664.873 515.624 678.879 485.796 663.509 477.547C655.23 473.104 645.642 471.405 636.353 469.98C633.171 469.492 629.366 469.87 626.89 471.934C623.792 474.52 622.268 478.73 621.199 482.623C620.513 485.115 620.523 488.123 621.827 490.353C622.932 492.24 629.175 492.035 627.571 493.517C624.2 496.628 618.619 495.63 614.337 497.271C610.677 498.671 607.152 500.481 603.854 502.6C601.746 503.953 598.775 505.16 598.247 507.61C596.471 515.79 600.476 523.412 608.729 525.368C612.158 526.177 615.843 525.075 619.221 524.065" stroke="#FFC9C9" stroke-width="3" stroke-miterlimit="1.5" stroke-linecap="round" stroke-linejoin="round"/>
<path fill-rule="evenodd" clip-rule="evenodd" d="M622.111 521.519C626.241 517.136 630.412 512.711 635.24 509.116C640.41 505.269 645.712 504.539 651.133 508.592C653.889 510.652 653.617 516.351 652.214 518.835C651.473 520.147 650.132 521.517 648.623 521.59C640.852 521.969 643.675 517.852 643.399 513.484C643.332 512.412 643.619 510.773 642.629 510.363C641.196 509.773 639.47 510.612 638.078 511.289" fill="#FFE2CA"/>
<path d="M622.111 521.519C626.241 517.136 630.412 512.711 635.24 509.116C640.41 505.269 645.712 504.539 651.133 508.592C653.889 510.652 653.617 516.351 652.214 518.835C651.473 520.147 650.132 521.517 648.623 521.59C640.852 521.969 643.675 517.852 643.399 513.484C643.332 512.412 643.619 510.773 642.629 510.363C641.196 509.773 639.47 510.612 638.078 511.289" stroke="#FFC9C9" stroke-width="3" stroke-miterlimit="1.5" stroke-linecap="round" stroke-linejoin="round"/>
<path fill-rule="evenodd" clip-rule="evenodd" d="M621.004 497.499C624.541 497.764 628.095 498.023 631.636 497.862C633.157 497.791 635.017 497.901 636.077 496.812C636.405 496.475 636.804 488.979 636.655 488.674C635.543 486.405 630.993 481.77 627.517 482.715C625.77 483.188 623.399 487.683 625.605 489.354C627.342 490.67 630.007 490.046 631.898 491.127C632.789 491.64 633.925 492.933 633.402 493.819C632.747 494.936 630.967 494.921 629.674 494.911" fill="#FFE2CA"/>
<path d="M621.004 497.499C624.541 497.764 628.095 498.023 631.636 497.862C633.157 497.791 635.017 497.901 636.077 496.812C636.405 496.475 636.804 488.979 636.655 488.674C635.543 486.405 630.993 481.77 627.517 482.715C625.77 483.188 623.399 487.683 625.605 489.354C627.342 490.67 630.007 490.046 631.898 491.127C632.789 491.64 633.925 492.933 633.402 493.819C632.747 494.936 630.967 494.921 629.674 494.911" stroke="#FFC9C9" stroke-width="3" stroke-miterlimit="1.5" stroke-linecap="round" stroke-linejoin="round"/>
<path d="M726.49 165.298C726.089 156.72 715.562 136.71 711.102 134.647C703.668 131.193 713.076 118.24 715.721 110.472" stroke="#FFC9C9" stroke-width="3" stroke-miterlimit="1.5" stroke-linecap="round" stroke-linejoin="round"/>
<path d="M711.167 134.662C706.546 139.681 701.919 144.695 697.299 149.714" stroke="#FFC9C9" stroke-width="3" stroke-miterlimit="1.5" stroke-linecap="round" stroke-linejoin="round"/>
<path d="M711.162 134.872C707.793 131.387 702.104 128.562 699.506 124.653C693.427 115.51 697.498 102.658 698.529 91.722" stroke="#FFC9C9" stroke-width="3" stroke-miterlimit="1.5" stroke-linecap="round" stroke-linejoin="round"/>
<path d="M699.488 124.689C697.846 124.417 695.053 120.999 692.025 119.017C685.943 115.05 680.623 128.244 676.212 134.019C673.413 137.687 672.089 142.336 670.827 146.773" stroke="#FFC9C9" stroke-width="3" stroke-miterlimit="1.5" stroke-linecap="round" stroke-linejoin="round"/>
<path d="M692.084 119.01C688.302 116.155 681.737 115.456 679.046 113.166C672.528 107.628 677.565 95.9067 679.158 87.5032" stroke="#FFC9C9" stroke-width="3" stroke-miterlimit="1.5" stroke-linecap="round" stroke-linejoin="round"/>
<path d="M679.033 112.918C675.284 114.206 671.51 115.502 667.971 117.282C664.491 119.035 661.265 121.261 658.058 123.473" stroke="#FFC9C9" stroke-width="3" stroke-miterlimit="1.5" stroke-linecap="round" stroke-linejoin="round"/>
<path d="M679.131 113.032C676.605 110.53 662.186 106.371 659.941 105.021C655.663 102.448 656.805 92.3093 654.314 86.097" stroke="#FFC9C9" stroke-width="3" stroke-miterlimit="1.5" stroke-linecap="round" stroke-linejoin="round"/>
<path d="M659.996 105.087C658.747 104.026 657.164 102.682 655.553 102.982C649.929 104.043 644.573 105.775 640.501 109.803C636.457 113.806 634.346 119.29 633.408 124.906" stroke="#FFC9C9" stroke-width="3" stroke-miterlimit="1.5" stroke-linecap="round" stroke-linejoin="round"/>
<path d="M655.379 102.717C644.57 98.4745 635.16 97.0172 626.352 96.7685" stroke="#FFC9C9" stroke-width="3" stroke-miterlimit="1.5" stroke-linecap="round" stroke-linejoin="round"/>
<path fill-rule="evenodd" clip-rule="evenodd" d="M699.86 72.2517C695.156 72.3908 691.458 76.314 691.597 81.0117C691.736 85.7094 695.665 89.4071 700.363 89.2682C705.061 89.1293 708.759 85.206 708.62 80.5083C708.53 77.462 706.817 74.6927 704.128 73.2534" fill="#FFE2CA"/>
<path d="M699.86 72.2517C695.156 72.3908 691.458 76.314 691.597 81.0117C691.736 85.7094 695.665 89.4071 700.363 89.2682C705.061 89.1293 708.759 85.206 708.62 80.5083C708.53 77.462 706.817 74.6927 704.128 73.2534" stroke="#FFC9C9" stroke-width="3" stroke-miterlimit="1.5" stroke-linecap="round" stroke-linejoin="round"/>
<path fill-rule="evenodd" clip-rule="evenodd" d="M722.299 97.8347C719.442 95.4937 715.23 95.9118 712.892 98.7655C710.554 101.619 710.975 105.834 713.829 108.172C716.683 110.51 720.894 110.092 723.233 107.238C724.749 105.388 725.162 102.865 724.31 100.627" fill="#FFE2CA"/>
<path d="M722.299 97.8347C719.442 95.4937 715.23 95.9118 712.892 98.7655C710.554 101.619 710.975 105.834 713.829 108.172C716.683 110.51 720.894 110.092 723.233 107.238C724.749 105.388 725.162 102.865 724.31 100.627" stroke="#FFC9C9" stroke-width="3" stroke-miterlimit="1.5" stroke-linecap="round" stroke-linejoin="round"/>
<path fill-rule="evenodd" clip-rule="evenodd" d="M781.664 118.558C785.89 120.565 790.94 118.767 792.944 114.546C794.949 110.325 793.145 105.272 788.924 103.268C784.703 101.264 779.653 103.062 777.649 107.283C776.349 110.02 776.611 113.247 778.34 115.739" fill="#FFE2CA"/>
<path d="M781.664 118.558C785.89 120.565 790.94 118.767 792.944 114.546C794.949 110.325 793.145 105.272 788.924 103.268C784.703 101.264 779.653 103.062 777.649 107.283C776.349 110.02 776.611 113.247 778.34 115.739" stroke="#FFC9C9" stroke-width="3" stroke-miterlimit="1.5" stroke-linecap="round" stroke-linejoin="round"/>
<path fill-rule="evenodd" clip-rule="evenodd" d="M704.539 191.759C700.358 193.031 698.002 197.449 699.272 201.625C700.543 205.801 704.966 208.156 709.142 206.885C713.318 205.614 715.675 201.196 714.404 197.02C713.58 194.312 711.369 192.249 708.608 191.615" fill="#FFE2CA"/>
<path d="M704.539 191.759C700.358 193.031 698.002 197.449 699.272 201.625C700.543 205.801 704.966 208.156 709.142 206.885C713.318 205.614 715.675 201.196 714.404 197.02C713.58 194.312 711.369 192.249 708.608 191.615" stroke="#FFC9C9" stroke-width="3" stroke-miterlimit="1.5" stroke-linecap="round" stroke-linejoin="round"/>
<path fill-rule="evenodd" clip-rule="evenodd" d="M674.695 74.0681C671.982 74.7574 670.342 77.5144 671.03 80.2247C671.719 82.935 674.479 84.5741 677.189 83.8855C679.9 83.197 681.54 80.44 680.851 77.7297C680.405 75.9722 679.052 74.5855 677.304 74.0976" fill="#FFE2CA"/>
<path d="M674.695 74.0681C671.982 74.7574 670.342 77.5144 671.03 80.2247C671.719 82.935 674.479 84.5741 677.189 83.8855C679.9 83.197 681.54 80.44 680.851 77.7297C680.405 75.9722 679.052 74.5855 677.304 74.0976" stroke="#FFC9C9" stroke-width="3" stroke-miterlimit="1.5" stroke-linecap="round" stroke-linejoin="round"/>
<path fill-rule="evenodd" clip-rule="evenodd" d="M646.32 76.9793C644.606 79.4266 645.2 82.7982 647.644 84.5102C650.089 86.2222 653.462 85.6252 655.174 83.1807C656.886 80.7363 656.292 77.3646 653.848 75.6526C652.263 74.5425 650.203 74.3634 648.449 75.1864" fill="#FFE2CA"/>
<path d="M646.32 76.9793C644.606 79.4266 645.2 82.7982 647.644 84.5102C650.089 86.2222 653.462 85.6252 655.174 83.1807C656.886 80.7363 656.292 77.3646 653.848 75.6526C652.263 74.5425 650.203 74.3634 648.449 75.1864" stroke="#FFC9C9" stroke-width="3" stroke-miterlimit="1.5" stroke-linecap="round" stroke-linejoin="round"/>
<path fill-rule="evenodd" clip-rule="evenodd" d="M693.688 160.872C696.796 160.22 698.786 157.173 698.134 154.069C697.482 150.964 694.432 148.976 691.327 149.627C688.223 150.279 686.233 153.326 686.885 156.43C687.308 158.443 688.775 160.079 690.733 160.715" fill="#FFE2CA"/>
<path d="M693.688 160.872C696.796 160.22 698.786 157.173 698.134 154.069C697.482 150.964 694.432 148.976 691.327 149.627C688.223 150.279 686.233 153.326 686.885 156.43C687.308 158.443 688.775 160.079 690.733 160.715" stroke="#FFC9C9" stroke-width="3" stroke-miterlimit="1.5" stroke-linecap="round" stroke-linejoin="round"/>
<path fill-rule="evenodd" clip-rule="evenodd" d="M653.374 154.505C652.081 159.701 655.242 164.957 660.432 166.249C665.621 167.541 670.879 164.373 672.171 159.184C673.462 153.995 670.301 148.738 665.112 147.446C661.747 146.609 658.187 147.633 655.783 150.137" fill="#FFE2CA"/>
<path d="M653.374 154.505C652.081 159.701 655.242 164.957 660.432 166.249C665.621 167.541 670.879 164.373 672.171 159.184C673.462 153.995 670.301 148.738 665.112 147.446C661.747 146.609 658.187 147.633 655.783 150.137" stroke="#FFC9C9" stroke-width="3" stroke-miterlimit="1.5" stroke-linecap="round" stroke-linejoin="round"/>
<path fill-rule="evenodd" clip-rule="evenodd" d="M650.239 136.324C653.785 137.321 657.466 135.255 658.462 131.713C659.457 128.172 657.388 124.49 653.846 123.494C650.304 122.498 646.623 124.564 645.628 128.106C644.982 130.402 645.613 132.872 647.285 134.576" fill="#FFE2CA"/>
<path d="M650.239 136.324C653.785 137.321 657.466 135.255 658.462 131.713C659.457 128.172 657.388 124.49 653.846 123.494C650.304 122.498 646.623 124.564 645.628 128.106C644.982 130.402 645.613 132.872 647.285 134.576" stroke="#FFC9C9" stroke-width="3" stroke-miterlimit="1.5" stroke-linecap="round" stroke-linejoin="round"/>
<path fill-rule="evenodd" clip-rule="evenodd" d="M621.267 132.527C620.963 136.657 624.063 140.25 628.188 140.553C632.314 140.856 635.906 137.751 636.21 133.626C636.513 129.501 633.413 125.909 629.288 125.605C626.613 125.408 624.033 126.657 622.53 128.881" fill="#FFE2CA"/>
<path d="M621.267 132.527C620.963 136.657 624.063 140.25 628.188 140.553C632.314 140.856 635.906 137.751 636.21 133.626C636.513 129.501 633.413 125.909 629.288 125.605C626.613 125.408 624.033 126.657 622.53 128.881" stroke="#FFC9C9" stroke-width="3" stroke-miterlimit="1.5" stroke-linecap="round" stroke-linejoin="round"/>
<path fill-rule="evenodd" clip-rule="evenodd" d="M610.094 96.297C610.699 100.328 614.455 103.103 618.481 102.499C622.507 101.895 625.282 98.1341 624.678 94.1081C624.073 90.0821 620.317 87.3064 616.292 87.9107C613.681 88.3026 611.476 90.0611 610.515 92.5227" fill="#FFE2CA"/>
<path d="M610.094 96.297C610.699 100.328 614.455 103.103 618.481 102.499C622.507 101.895 625.282 98.1341 624.678 94.1081C624.073 90.0821 620.317 87.3064 616.292 87.9107C613.681 88.3026 611.476 90.0611 610.515 92.5227" stroke="#FFC9C9" stroke-width="3" stroke-miterlimit="1.5" stroke-linecap="round" stroke-linejoin="round"/>
<path d="M773.674 108.425C770.305 108.474 766.583 108.523 763.738 110.337C758.882 113.439 755.134 118.083 751.513 122.562" stroke="#FFC9C9" stroke-width="3" stroke-miterlimit="1.5" stroke-linecap="round" stroke-linejoin="round"/>
<path d="M718.533 195.788C722.312 192.908 726.496 189.715 731.228 189.305C737.461 188.762 743.715 190.992 749.602 193.089" stroke="#FFC9C9" stroke-width="3" stroke-miterlimit="1.5" stroke-linecap="round" stroke-linejoin="round"/>
<path fill-rule="evenodd" clip-rule="evenodd" d="M863.179 314.582C873.29 310.662 858.601 299.556 857.217 298.398C840.855 284.655 809.669 269.532 750.159 273.219C660.215 278.788 675.798 308.433 635.686 314.356C628.851 315.368 624.441 311.441 617.665 309.086C600.91 303.267 581.742 295.737 565.481 300.495C552.176 304.387 596.608 311.438 599.018 325.09C600.476 333.351 572.281 352.971 575.498 353.358C579.898 353.886 602.82 343.921 620.667 335.9C629.55 331.907 634.862 326.961 640.604 326.878C680.911 326.29 676.601 355.514 759.102 351.024C791.999 349.232 823.408 334.641 853.005 320.172" fill="#FFE2CA"/>
<path d="M863.179 314.582C873.29 310.662 858.601 299.556 857.217 298.398C840.855 284.655 809.669 269.532 750.159 273.219C660.215 278.788 675.797 308.433 635.686 314.356C628.851 315.368 624.441 311.441 617.665 309.086C600.91 303.267 581.742 295.737 565.481 300.495C552.176 304.387 596.608 311.438 599.018 325.09C600.476 333.351 572.281 352.971 575.498 353.358C579.898 353.886 602.82 343.921 620.667 335.9C629.55 331.907 634.862 326.961 640.604 326.878C680.911 326.29 676.601 355.514 759.102 351.024C791.999 349.232 823.408 334.641 853.005 320.172" stroke="#FFC9C9" stroke-width="3" stroke-miterlimit="1.5" stroke-linecap="round" stroke-linejoin="round"/>
<path d="M861.118 308.281C857.539 313.516 848.141 312.789 845.188 310.834" stroke="#FFC9C9" stroke-width="3" stroke-miterlimit="1.5" stroke-linecap="round" stroke-linejoin="round"/>
<path d="M837.228 301.719C835.618 305.635 833.388 311.065 829.18 311.555C824.703 312.077 820.866 307.43 818 303.952" stroke="#FFC9C9" stroke-width="3" stroke-miterlimit="1.5" stroke-linecap="round" stroke-linejoin="round"/>
<path d="M816.39 285.781C813.207 290.251 802.188 303.225 800.285 308.515C797.6 315.997 805.033 326.637 810.529 332.383" stroke="#FFC9C9" stroke-width="3" stroke-miterlimit="1.5" stroke-linecap="round" stroke-linejoin="round"/>
<path d="M782.639 291.406C774.736 304.373 766.837 317.34 758.938 330.307" stroke="#FFC9C9" stroke-width="3" stroke-miterlimit="1.5" stroke-linecap="round" stroke-linejoin="round"/>
<path d="M767.976 289.062C759.183 302.033 750.391 315 741.594 327.967" stroke="#FFC9C9" stroke-width="3" stroke-miterlimit="1.5" stroke-linecap="round" stroke-linejoin="round"/>
<path d="M752.301 287.187C745.296 298.666 738.287 310.144 731.281 321.618" stroke="#FFC9C9" stroke-width="3" stroke-miterlimit="1.5" stroke-linecap="round" stroke-linejoin="round"/>
<path d="M737.441 291.406C728.199 303.33 718.958 315.253 709.719 327.177" stroke="#FFC9C9" stroke-width="3" stroke-miterlimit="1.5" stroke-linecap="round" stroke-linejoin="round"/>
<path d="M717.737 292.812C708.345 305.633 698.954 318.451 689.563 331.268" stroke="#FFC9C9" stroke-width="3" stroke-miterlimit="1.5" stroke-linecap="round" stroke-linejoin="round"/>
<path d="M699.439 295.625C693.178 304.568 686.918 313.51 680.657 322.453" stroke="#FFC9C9" stroke-width="3" stroke-miterlimit="1.5" stroke-linecap="round" stroke-linejoin="round"/>
<path d="M680.371 300.781C675.154 307.488 669.936 314.194 664.719 320.903" stroke="#FFC9C9" stroke-width="3" stroke-miterlimit="1.5" stroke-linecap="round" stroke-linejoin="round"/>
<path d="M664.719 311.094C679.178 320.04 693.637 328.982 708.093 337.925" stroke="#FFC9C9" stroke-width="3" stroke-miterlimit="1.5" stroke-linecap="round" stroke-linejoin="round"/>
<path d="M678.312 299.844C691.429 306.849 704.546 313.858 717.662 320.863" stroke="#FFC9C9" stroke-width="3" stroke-miterlimit="1.5" stroke-linecap="round" stroke-linejoin="round"/>
<path d="M695.656 296.094C713.841 306.379 732.025 316.664 750.21 326.949" stroke="#FFC9C9" stroke-width="3" stroke-miterlimit="1.5" stroke-linecap="round" stroke-linejoin="round"/>
<path d="M725.656 295.156C741.604 304.099 757.556 313.045 773.503 321.988" stroke="#FFC9C9" stroke-width="3" stroke-miterlimit="1.5" stroke-linecap="round" stroke-linejoin="round"/>
<path d="M747.688 289.062C763.935 298.008 780.182 306.951 796.429 315.894" stroke="#FFC9C9" stroke-width="3" stroke-miterlimit="1.5" stroke-linecap="round" stroke-linejoin="round"/>
<path d="M753.42 271.481C751.535 270.097 749.545 268.636 747.267 268.111C732.888 264.803 718.488 259.415 703.747 260.052C700.349 260.198 706.182 266.486 706.533 269.867C706.78 272.274 706.13 274.712 705.507 277.046" stroke="#FFC9C9" stroke-width="3" stroke-miterlimit="1.5" stroke-linecap="round" stroke-linejoin="round"/>
<path d="M712.531 266.563C713.752 267.944 715.081 269.446 715.46 271.251C715.724 272.504 714.945 273.811 714.288 274.914" stroke="#FFC9C9" stroke-width="3" stroke-miterlimit="1.5" stroke-linecap="round" stroke-linejoin="round"/>
<path d="M719.562 266.562C720.676 267.634 721.942 268.851 722.199 270.371C722.39 271.491 721.468 272.583 720.735 273.449" stroke="#FFC9C9" stroke-width="3" stroke-miterlimit="1.5" stroke-linecap="round" stroke-linejoin="round"/>
<path d="M798.282 348.26C788.379 353.366 778.049 358.694 766.987 359.983C764.301 360.296 765.649 354.062 767.241 351.874C770.666 347.172 775.886 343.98 780.849 340.947" stroke="#FFC9C9" stroke-width="3" stroke-miterlimit="1.5" stroke-linecap="round" stroke-linejoin="round"/>
<path fill-rule="evenodd" clip-rule="evenodd" d="M283.28 474.449C283.28 474.449 346.905 425.729 330.697 401.769C317.544 382.323 292.436 374.548 273.346 360.872C267.392 356.607 260.497 353.373 255.571 347.952C251.31 343.26 252.074 334.183 246.444 331.268C230.6 323.056 211.779 310.555 194.972 316.55C173.608 324.172 145.739 369.996 151.816 396.774C153.723 405.181 162.512 410.343 168.529 416.517C192.159 440.756 203.663 449.796 236.751 464.263C244.843 467.799 253.772 469.15 262.505 470.469" fill="#FFE2CA"/>
<path d="M283.28 474.449C283.28 474.449 346.905 425.729 330.697 401.769C317.544 382.323 292.436 374.548 273.346 360.872C267.392 356.607 260.497 353.373 255.571 347.952C251.31 343.26 252.074 334.183 246.444 331.268C230.6 323.056 211.779 310.555 194.972 316.55C173.608 324.172 145.739 369.996 151.816 396.774C153.723 405.181 162.512 410.343 168.529 416.517C192.159 440.756 203.663 449.796 236.751 464.263C244.843 467.799 253.772 469.15 262.505 470.469" stroke="#FFC9C9" stroke-width="3" stroke-miterlimit="1.5" stroke-linecap="round" stroke-linejoin="round"/>
<path d="M283.004 466.284C278.737 458.451 273.939 449.636 265.955 445.659C240.276 432.86 212.317 425.034 184.691 417.295" stroke="#FFC9C9" stroke-width="3" stroke-miterlimit="1.5" stroke-linecap="round" stroke-linejoin="round"/>
<path d="M291.721 459.773C287.402 450.938 282.608 441.143 274.207 436.024C245.79 418.713 214.589 406.28 183.677 393.964" stroke="#FFC9C9" stroke-width="3" stroke-miterlimit="1.5" stroke-linecap="round" stroke-linejoin="round"/>
<path d="M299.05 449.242C296.153 438.61 292.846 426.466 284.108 419.743C252.796 395.652 217.284 377.38 182.155 359.308" stroke="#FFC9C9" stroke-width="3" stroke-miterlimit="1.5" stroke-linecap="round" stroke-linejoin="round"/>
<path d="M310.474 437.233C309.61 425.58 308.611 412.078 300.56 403.611C277.174 379.008 248.17 360.192 219.689 341.721" stroke="#FFC9C9" stroke-width="3" stroke-miterlimit="1.5" stroke-linecap="round" stroke-linejoin="round"/>
<path d="M358.884 412.228C358.884 412.228 397.75 350.833 376.437 335.532C359.141 323.113 335.332 324.371 314.794 318.722C308.388 316.961 301.505 316.371 295.611 313.304C290.513 310.648 288.315 302.687 282.608 301.972C266.547 299.954 246.606 295.22 234.183 305.59C231.347 307.959 228.717 311.441 226.394 315.68" stroke="#FFC9C9" stroke-width="3" stroke-miterlimit="1.5" stroke-linecap="round" stroke-linejoin="round"/>
<path d="M355.807 405.15C349.718 399.824 342.869 393.829 334.827 392.949" stroke="#FFC9C9" stroke-width="3" stroke-miterlimit="1.5" stroke-linecap="round" stroke-linejoin="round"/>
<path d="M361.21 397.356C354.762 391.193 347.609 384.363 338.853 382.642C331.304 381.161 323.7 380.002 316.06 379.089" stroke="#FFC9C9" stroke-width="3" stroke-miterlimit="1.5" stroke-linecap="round" stroke-linejoin="round"/>
<path d="M364.108 385.73C358.307 377.593 351.681 368.298 342.135 365.319C321.25 358.8 299.717 354.618 278.018 351.357" stroke="#FFC9C9" stroke-width="3" stroke-miterlimit="1.5" stroke-linecap="round" stroke-linejoin="round"/>
<path d="M370.528 372.183C366.138 362.541 361.051 351.367 351.543 346.689C323.921 333.09 293.333 326.176 263.298 319.392" stroke="#FFC9C9" stroke-width="3" stroke-miterlimit="1.5" stroke-linecap="round" stroke-linejoin="round"/>
<path fill-rule="evenodd" clip-rule="evenodd" d="M393.688 354.715C403.222 353.719 403.04 357.701 412.417 355.593C418.464 354.235 420.125 342.036 421.21 338.256C425.679 322.707 433.661 305.846 425.503 289.875C419.99 279.085 397.962 279.233 390.613 278.876C377.59 278.248 342.742 270.964 334.983 269.793C316.163 266.949 296.049 274.418 287.825 294.428C286.36 297.99 291.724 301.392 294.911 303.555C298.891 306.254 306.039 308.44 311.703 310.635C317.672 312.95 324.188 315.859 330.737 317.446C338.335 319.287 349.986 319.822 357.293 321.675C363.313 323.2 369.603 325.479 374.596 328.561C379.464 331.564 384.958 337.121 387.246 340.159C388.593 341.948 387.957 344.582 388.312 346.792" fill="#FFE2CA"/>
<path d="M393.688 354.715C403.222 353.719 403.04 357.701 412.417 355.593C418.464 354.235 420.125 342.036 421.21 338.256C425.679 322.707 433.661 305.846 425.503 289.875C419.99 279.085 397.962 279.233 390.613 278.876C377.59 278.248 342.742 270.964 334.983 269.793C316.163 266.949 296.049 274.418 287.825 294.428C286.36 297.99 291.724 301.392 294.911 303.555C298.891 306.254 306.039 308.44 311.703 310.635C317.672 312.95 324.188 315.859 330.737 317.446C338.335 319.287 349.986 319.822 357.293 321.675C363.313 323.2 369.603 325.479 374.596 328.561C379.464 331.564 384.958 337.121 387.246 340.159C388.593 341.948 387.957 344.582 388.312 346.792" stroke="#FFC9C9" stroke-width="3" stroke-miterlimit="1.5" stroke-linecap="round" stroke-linejoin="round"/>
<path d="M412.774 346.996C406.819 343.358 400.12 339.263 393.156 339.692" stroke="#FFC9C9" stroke-width="3" stroke-miterlimit="1.5" stroke-linecap="round" stroke-linejoin="round"/>
<path d="M416.24 339.303C409.859 335.007 402.78 330.245 395.086 330.063C391.397 329.977 387.705 329.977 384.015 330.055" stroke="#FFC9C9" stroke-width="3" stroke-miterlimit="1.5" stroke-linecap="round" stroke-linejoin="round"/>
<path d="M416.915 329.195C410.794 323.125 403.803 316.191 395.253 315.054C373.594 312.174 351.651 312.087 329.743 312.809" stroke="#FFC9C9" stroke-width="3" stroke-miterlimit="1.5" stroke-linecap="round" stroke-linejoin="round"/>
<path d="M419.997 316.647C414.854 309.09 408.896 300.334 400.129 297.747C374.662 290.225 347.653 288.823 321.131 287.449" stroke="#FFC9C9" stroke-width="3" stroke-miterlimit="1.5" stroke-linecap="round" stroke-linejoin="round"/>
<path d="M275.573 178.726C234.653 160.434 186.577 178.806 168.286 219.726L102 368.009C83.7069 408.932 102.081 457.004 143 475.296L291.287 541.583C332.207 559.874 380.278 541.504 398.571 500.581L464.857 352.298C483.148 311.379 464.779 263.305 423.86 245.013L323.718 200.248" stroke="#FFC9C9" stroke-width="3" stroke-miterlimit="1.5" stroke-linecap="round" stroke-linejoin="round"/>
<path fill-rule="evenodd" clip-rule="evenodd" d="M9.17455 303.117L455.422 103.137L456.183 105.932L10.4221 316.902" fill="#FFE2CA"/>
<path d="M9.17455 303.117L455.422 103.137L456.183 105.932L10.4221 316.902" stroke="#FFC9C9" stroke-width="3" stroke-miterlimit="1.5" stroke-linecap="round" stroke-linejoin="round"/>
<path d="M456.272 106.809L21.0595 324.896" stroke="#FFC9C9" stroke-width="3" stroke-miterlimit="1.5" stroke-linecap="round" stroke-linejoin="round"/>
<path d="M138.511 247.355L138.533 256.191L143.801 260.203" stroke="#FFC9C9" stroke-width="3" stroke-miterlimit="1.5" stroke-linecap="round" stroke-linejoin="round"/>
<path d="M6.63513 304.163L7.57502 317.917L18.571 326.02" stroke="#FFC9C9" stroke-width="3" stroke-miterlimit="1.5" stroke-linecap="round" stroke-linejoin="round"/>
<path fill-rule="evenodd" clip-rule="evenodd" d="M24.9317 354.675L451.573 111.91L452.636 114.584L27.6629 368.124" fill="#FFE2CA"/>
<path d="M24.9317 354.675L451.573 111.91L452.636 114.584L27.6629 368.124" stroke="#FFC9C9" stroke-width="3" stroke-miterlimit="1.5" stroke-linecap="round" stroke-linejoin="round"/>
<path d="M452.813 115.48L39.1949 374.947" stroke="#FFC9C9" stroke-width="3" stroke-miterlimit="1.5" stroke-linecap="round" stroke-linejoin="round"/>
<path d="M149.162 286.564L150.132 295.265L155.852 298.676" stroke="#FFC9C9" stroke-width="3" stroke-miterlimit="1.5" stroke-linecap="round" stroke-linejoin="round"/>
<path d="M22.3591 356.064L24.7781 369.514L36.6885 376.366" stroke="#FFC9C9" stroke-width="3" stroke-miterlimit="1.5" stroke-linecap="round" stroke-linejoin="round"/>
</g>
<defs>
<filter id="filter0_f" x="0.0947266" y="65.4563" width="873.113" height="489.708" filterUnits="userSpaceOnUse" color-interpolation-filters="sRGB">
<feFlood flood-opacity="0" result="BackgroundImageFix"/>
<feBlend mode="normal" in="SourceGraphic" in2="BackgroundImageFix" result="shape"/>
<feGaussianBlur stdDeviation="2.5" result="effect1_foregroundBlur"/>
</filter>
</defs>
</svg>
