<svg width="36" height="36" viewBox="0 0 36 36" fill="none" xmlns="http://www.w3.org/2000/svg">
<circle cx="18" cy="18" r="18" fill="#FF5555"/>
<path fill-rule="evenodd" clip-rule="evenodd" d="M18 8C15.284 8 14.944 8.012 13.877 8.06C12.813 8.109 12.086 8.278 11.45 8.525C10.7825 8.77584 10.1778 9.16933 9.678 9.678C9.16936 10.1778 8.77587 10.7825 8.525 11.45C8.278 12.086 8.109 12.813 8.06 13.877C8.011 14.944 8 15.284 8 18C8 20.716 8.011 21.056 8.06 22.123C8.109 23.187 8.278 23.914 8.525 24.55C8.7759 25.2175 9.16938 25.8222 9.678 26.322C10.1778 26.8306 10.7825 27.2241 11.45 27.475C12.086 27.722 12.813 27.891 13.877 27.94C14.944 27.988 15.284 28 18 28C20.716 28 21.056 27.988 22.123 27.94C23.187 27.891 23.914 27.722 24.55 27.475C25.2175 27.2241 25.8222 26.8306 26.322 26.322C26.8306 25.8222 27.2241 25.2175 27.475 24.55C27.722 23.914 27.891 23.187 27.94 22.123C27.988 21.056 28 20.716 28 18C28 15.284 27.988 14.944 27.94 13.877C27.891 12.813 27.722 12.086 27.475 11.45C27.2241 10.7825 26.8306 10.1778 26.322 9.678C25.8222 9.16933 25.2175 8.77584 24.55 8.525C23.914 8.278 23.187 8.109 22.123 8.06C21.056 8.012 20.716 8 18 8ZM18 9.802C20.67 9.802 20.986 9.812 22.04 9.86C23.016 9.905 23.545 10.067 23.898 10.204C24.364 10.386 24.698 10.603 25.048 10.952C25.398 11.302 25.614 11.636 25.796 12.102C25.932 12.455 26.096 12.984 26.14 13.959C26.188 15.014 26.198 15.329 26.198 18C26.198 20.67 26.188 20.986 26.14 22.04C26.095 23.016 25.932 23.545 25.796 23.898C25.6357 24.3324 25.3801 24.7253 25.048 25.048C24.698 25.398 24.364 25.614 23.898 25.796C23.545 25.932 23.016 26.096 22.041 26.14C20.987 26.188 20.671 26.198 18 26.198C15.33 26.198 15.013 26.188 13.96 26.14C12.984 26.095 12.455 25.932 12.102 25.796C11.6676 25.6357 11.2746 25.3801 10.952 25.048C10.6199 24.7254 10.3643 24.3324 10.204 23.898C10.067 23.545 9.904 23.016 9.86 22.041C9.812 20.986 9.802 20.671 9.802 18C9.802 15.33 9.812 15.014 9.86 13.96C9.905 12.984 10.067 12.455 10.204 12.102C10.386 11.636 10.603 11.302 10.952 10.952C11.302 10.602 11.636 10.386 12.102 10.204C12.455 10.067 12.984 9.904 13.959 9.86C15.014 9.812 15.329 9.802 18 9.802ZM18 21.333C17.116 21.333 16.2683 20.9818 15.6432 20.3568C15.0182 19.7317 14.667 18.884 14.667 18C14.667 17.116 15.0182 16.2683 15.6432 15.6432C16.2683 15.0182 17.116 14.667 18 14.667C18.884 14.667 19.7317 15.0182 20.3568 15.6432C20.9818 16.2683 21.333 17.116 21.333 18C21.333 18.884 20.9818 19.7317 20.3568 20.3568C19.7317 20.9818 18.884 21.333 18 21.333ZM18 12.865C17.3257 12.865 16.6579 12.9978 16.0349 13.2559C15.4119 13.5139 14.8458 13.8922 14.369 14.369C13.8922 14.8458 13.5139 15.4119 13.2559 16.0349C12.9978 16.6579 12.865 17.3257 12.865 18C12.865 18.6743 12.9978 19.3421 13.2559 19.9651C13.5139 20.5881 13.8922 21.1542 14.369 21.631C14.8458 22.1078 15.4119 22.4861 16.0349 22.7441C16.6579 23.0022 17.3257 23.135 18 23.135C19.3619 23.135 20.668 22.594 21.631 21.631C22.594 20.668 23.135 19.3619 23.135 18C23.135 16.6381 22.594 15.332 21.631 14.369C20.668 13.406 19.3619 12.865 18 12.865ZM24.538 12.662C24.538 12.8196 24.507 12.9756 24.4467 13.1212C24.3863 13.2668 24.298 13.3991 24.1865 13.5105C24.0751 13.622 23.9428 13.7104 23.7972 13.7707C23.6516 13.831 23.4956 13.862 23.338 13.862C23.1804 13.862 23.0244 13.831 22.8788 13.7707C22.7332 13.7104 22.6009 13.622 22.4895 13.5105C22.378 13.3991 22.2897 13.2668 22.2293 13.1212C22.169 12.9756 22.138 12.8196 22.138 12.662C22.138 12.3437 22.2644 12.0385 22.4895 11.8135C22.7145 11.5884 23.0197 11.462 23.338 11.462C23.6563 11.462 23.9615 11.5884 24.1865 11.8135C24.4116 12.0385 24.538 12.3437 24.538 12.662Z" fill="white"/>
</svg>
