<svg width="36" height="36" viewBox="0 0 36 36" fill="none" xmlns="http://www.w3.org/2000/svg">
<circle cx="18" cy="18" r="18" fill="#FF5555"/>
<path d="M27.9999 22.92V25.92C28.0011 26.1985 27.944 26.4741 27.8324 26.7293C27.7209 26.9845 27.5572 27.2136 27.352 27.4018C27.1468 27.5901 26.9045 27.7335 26.6407 27.8227C26.3769 27.9119 26.0973 27.945 25.8199 27.92C22.7428 27.5856 19.7869 26.5341 17.1899 24.85C14.7738 23.3146 12.7253 21.2661 11.1899 18.85C9.49991 16.2412 8.44818 13.271 8.11993 10.18C8.09494 9.90344 8.12781 9.62474 8.21643 9.3616C8.30506 9.09846 8.4475 8.85666 8.6347 8.6516C8.82189 8.44653 9.04974 8.28268 9.30372 8.1705C9.55771 8.05831 9.83227 8.00024 10.1099 7.99997H13.1099C13.5952 7.9952 14.0657 8.16705 14.4337 8.48351C14.8017 8.79996 15.042 9.23942 15.1099 9.71997C15.2366 10.68 15.4714 11.6227 15.8099 12.53C15.9445 12.8879 15.9736 13.2769 15.8938 13.6509C15.8141 14.0248 15.6288 14.3681 15.3599 14.64L14.0899 15.91C15.5135 18.4135 17.5864 20.4864 20.0899 21.91L21.3599 20.64C21.6318 20.3711 21.9751 20.1858 22.3491 20.1061C22.723 20.0263 23.112 20.0554 23.4699 20.19C24.3772 20.5285 25.3199 20.7634 26.2799 20.89C26.7657 20.9585 27.2093 21.2032 27.5265 21.5775C27.8436 21.9518 28.0121 22.4296 27.9999 22.92Z" stroke="white" stroke-width="2" stroke-linecap="round" stroke-linejoin="round"/>
</svg>
