<svg width="36" height="36" viewBox="0 0 36 36" fill="none" xmlns="http://www.w3.org/2000/svg">
<rect width="36" height="36" fill="#FF5555"/>
<path d="M28.0001 22.92V25.92C28.0012 26.1985 27.9441 26.4741 27.8326 26.7293C27.721 26.9845 27.5574 27.2136 27.3521 27.4018C27.1469 27.5901 26.9046 27.7335 26.6408 27.8227C26.377 27.9119 26.0974 27.945 25.8201 27.92C22.7429 27.5856 19.7871 26.5341 17.1901 24.85C14.7739 23.3146 12.7254 21.2661 11.1901 18.85C9.50003 16.2412 8.4483 13.271 8.12006 10.18C8.09507 9.90344 8.12793 9.62474 8.21656 9.3616C8.30518 9.09846 8.44763 8.85666 8.63482 8.6516C8.82202 8.44653 9.04986 8.28268 9.30385 8.1705C9.55783 8.05831 9.8324 8.00024 10.1101 7.99997H13.1101C13.5954 7.9952 14.0658 8.16705 14.4338 8.48351C14.8018 8.79996 15.0421 9.23942 15.1101 9.71997C15.2367 10.68 15.4715 11.6227 15.8101 12.53C15.9446 12.8879 15.9737 13.2769 15.894 13.6509C15.8142 14.0248 15.6289 14.3681 15.3601 14.64L14.0901 15.91C15.5136 18.4135 17.5865 20.4864 20.0901 21.91L21.3601 20.64C21.6319 20.3711 21.9752 20.1858 22.3492 20.1061C22.7231 20.0263 23.1121 20.0554 23.4701 20.19C24.3773 20.5285 25.32 20.7634 26.2801 20.89C26.7658 20.9585 27.2095 21.2032 27.5266 21.5775C27.8437 21.9518 28.0122 22.4296 28.0001 22.92Z" stroke="white" stroke-width="2" stroke-linecap="round" stroke-linejoin="round"/>
</svg>
