<svg width="36" height="36" viewBox="0 0 36 36" fill="none" xmlns="http://www.w3.org/2000/svg">
<circle cx="18" cy="18" r="18" fill="#FF5555"/>
<path d="M18.006 10.295C15.336 10.295 12.668 11.079 10.361 12.648H6L7.963 14.783C7.06861 15.5979 6.44162 16.6642 6.1644 17.842C5.88718 19.0197 5.97271 20.2538 6.40973 21.3821C6.84676 22.5103 7.61484 23.48 8.61309 24.1637C9.61134 24.8474 10.7931 25.2132 12.003 25.213C13.5148 25.2143 14.971 24.6426 16.078 23.613L18 25.705L19.922 23.615C21.0284 24.6435 22.4834 25.2145 23.994 25.213C25.585 25.213 27.1108 24.5811 28.2359 23.4563C29.3611 22.3315 29.9935 20.8059 29.994 19.215C29.9949 18.3806 29.8213 17.5553 29.4843 16.792C29.1472 16.0287 28.6543 15.3444 28.037 14.783L30 12.648H25.65C23.3962 11.1137 20.7325 10.2938 18.006 10.295ZM18 12.255C19.531 12.255 21.063 12.558 22.504 13.158C19.943 14.138 18 16.43 18 19.1C18 16.429 16.058 14.138 13.496 13.158C14.9231 12.5632 16.4539 12.2566 18 12.256V12.255ZM12.002 15.157C12.535 15.157 13.0629 15.262 13.5553 15.466C14.0478 15.6699 14.4952 15.9689 14.8721 16.3458C15.2491 16.7228 15.548 17.1702 15.752 17.6627C15.956 18.1551 16.061 18.6829 16.061 19.216C16.061 19.749 15.956 20.2768 15.752 20.7693C15.548 21.2618 15.2491 21.7092 14.8721 22.0861C14.4952 22.463 14.0478 22.762 13.5553 22.966C13.0629 23.17 12.535 23.275 12.002 23.275C10.9255 23.275 9.89306 22.8473 9.13185 22.0861C8.37064 21.3249 7.943 20.2925 7.943 19.216C7.943 18.1395 8.37064 17.107 9.13185 16.3458C9.89306 15.5846 10.9255 15.157 12.002 15.157ZM23.994 15.159C24.5268 15.1588 25.0545 15.2635 25.5469 15.4673C26.0392 15.671 26.4866 15.9697 26.8635 16.3463C27.2404 16.723 27.5395 17.1702 27.7436 17.6624C27.9477 18.1546 28.0528 18.6821 28.053 19.215C28.0532 19.7478 27.9484 20.2755 27.7447 20.7678C27.541 21.2602 27.2423 21.7076 26.8656 22.0845C26.489 22.4614 26.0418 22.7605 25.5496 22.9646C25.0574 23.1686 24.5298 23.2738 23.997 23.274C22.9209 23.2744 21.8887 22.8473 21.1275 22.0866C20.3663 21.326 19.9384 20.2941 19.938 19.218C19.9376 18.1419 20.3647 17.1097 21.1254 16.3485C21.886 15.5872 22.9179 15.1594 23.994 15.159ZM12.002 17.089C11.4376 17.089 10.8964 17.3132 10.4973 17.7123C10.0982 18.1113 9.874 18.6526 9.874 19.217C9.874 19.7814 10.0982 20.3226 10.4973 20.7217C10.8964 21.1208 11.4376 21.345 12.002 21.345C12.5664 21.345 13.1076 21.1208 13.5067 20.7217C13.9058 20.3226 14.13 19.7814 14.13 19.217C14.13 18.6526 13.9058 18.1113 13.5067 17.7123C13.1076 17.3132 12.5664 17.089 12.002 17.089ZM23.994 17.089C23.4296 17.089 22.8884 17.3132 22.4893 17.7123C22.0902 18.1113 21.866 18.6526 21.866 19.217C21.866 19.7814 22.0902 20.3226 22.4893 20.7217C22.8884 21.1208 23.4296 21.345 23.994 21.345C24.5584 21.345 25.0996 21.1208 25.4987 20.7217C25.8978 20.3226 26.122 19.7814 26.122 19.217C26.122 18.6526 25.8978 18.1113 25.4987 17.7123C25.0996 17.3132 24.5584 17.089 23.994 17.089Z" fill="white"/>
</svg>
