<svg width="36" height="36" viewBox="0 0 36 36" fill="none" xmlns="http://www.w3.org/2000/svg">
<circle cx="18" cy="18" r="18" fill="#FF5555"/>
<path d="M25.633 13.997C25.646 14.172 25.646 14.346 25.646 14.52C25.646 19.845 21.593 25.981 14.186 25.981C11.904 25.981 9.784 25.32 8 24.172C8.324 24.209 8.636 24.222 8.973 24.222C10.786 24.2264 12.5476 23.6201 13.974 22.501C13.1334 22.4858 12.3186 22.2084 11.6432 21.7077C10.9679 21.207 10.4658 20.5079 10.207 19.708C10.456 19.745 10.706 19.77 10.968 19.77C11.329 19.77 11.692 19.72 12.029 19.633C11.1168 19.4488 10.2965 18.9543 9.70762 18.2337C9.11876 17.513 8.79769 16.6106 8.799 15.68V15.63C9.336 15.929 9.959 16.116 10.619 16.141C10.0661 15.7736 9.61272 15.275 9.29934 14.6898C8.98596 14.1045 8.82231 13.4508 8.823 12.787C8.823 12.039 9.022 11.353 9.371 10.755C10.3831 12 11.6455 13.0185 13.0763 13.7446C14.5072 14.4707 16.0746 14.8882 17.677 14.97C17.615 14.67 17.577 14.359 17.577 14.047C17.5767 13.5179 17.6807 12.994 17.8831 12.5052C18.0854 12.0164 18.3821 11.5723 18.7562 11.1982C19.1303 10.8241 19.5744 10.5274 20.0632 10.3251C20.5521 10.1227 21.076 10.0187 21.605 10.019C22.765 10.019 23.812 10.505 24.548 11.291C25.4498 11.1166 26.3145 10.7874 27.104 10.318C26.8034 11.2488 26.1738 12.0381 25.333 12.538C26.1328 12.4468 26.9144 12.2364 27.652 11.914C27.1011 12.7171 26.4185 13.4213 25.633 13.997Z" fill="white"/>
</svg>
