<svg width="176" height="36" viewBox="0 0 176 36" fill="none" xmlns="http://www.w3.org/2000/svg">
<path d="M48.9141 27H45.2812V12.8906H40.6289V9.86719H53.5664V12.8906H48.9141V27ZM63.2344 13.6523C63.7188 13.6523 64.1211 13.6875 64.4414 13.7578L64.1719 17.1094C63.8828 17.0312 63.5312 16.9922 63.1172 16.9922C61.9766 16.9922 61.0859 17.2852 60.4453 17.8711C59.8125 18.457 59.4961 19.2773 59.4961 20.332V27H55.9219V13.8984H58.6289L59.1562 16.1016H59.332C59.7383 15.3672 60.2852 14.7773 60.9727 14.332C61.668 13.8789 62.4219 13.6523 63.2344 13.6523ZM66.668 10.5117C66.668 9.34766 67.3164 8.76562 68.6133 8.76562C69.9102 8.76562 70.5586 9.34766 70.5586 10.5117C70.5586 11.0664 70.3945 11.5 70.0664 11.8125C69.7461 12.1172 69.2617 12.2695 68.6133 12.2695C67.3164 12.2695 66.668 11.6836 66.668 10.5117ZM70.3945 27H66.8203V13.8984H70.3945V27ZM81.3516 27.2344C79.8125 27.2344 78.6055 26.6758 77.7305 25.5586H77.543C77.668 26.6523 77.7305 27.2852 77.7305 27.457V32.7656H74.1562V13.8984H77.0625L77.5664 15.5977H77.7305C78.5664 14.3008 79.8047 13.6523 81.4453 13.6523C82.9922 13.6523 84.2031 14.25 85.0781 15.4453C85.9531 16.6406 86.3906 18.3008 86.3906 20.4258C86.3906 21.8242 86.1836 23.0391 85.7695 24.0703C85.3633 25.1016 84.7812 25.8867 84.0234 26.4258C83.2656 26.9648 82.375 27.2344 81.3516 27.2344ZM80.2969 16.5117C79.4141 16.5117 78.7695 16.7852 78.3633 17.332C77.957 17.8711 77.7461 18.7656 77.7305 20.0156V20.4023C77.7305 21.8086 77.9375 22.8164 78.3516 23.4258C78.7734 24.0352 79.4375 24.3398 80.3438 24.3398C81.9453 24.3398 82.7461 23.0195 82.7461 20.3789C82.7461 19.0898 82.5469 18.125 82.1484 17.4844C81.7578 16.8359 81.1406 16.5117 80.2969 16.5117ZM97.6641 27L96.9727 25.2188H96.8789C96.2773 25.9766 95.6562 26.5039 95.0156 26.8008C94.3828 27.0898 93.5547 27.2344 92.5312 27.2344C91.2734 27.2344 90.2812 26.875 89.5547 26.1562C88.8359 25.4375 88.4766 24.4141 88.4766 23.0859C88.4766 21.6953 88.9609 20.6719 89.9297 20.0156C90.9062 19.3516 92.375 18.9844 94.3359 18.9141L96.6094 18.8438V18.2695C96.6094 16.9414 95.9297 16.2773 94.5703 16.2773C93.5234 16.2773 92.293 16.5937 90.8789 17.2266L89.6953 14.8125C91.2031 14.0234 92.875 13.6289 94.7109 13.6289C96.4688 13.6289 97.8164 14.0117 98.7539 14.7773C99.6914 15.543 100.16 16.707 100.16 18.2695V27H97.6641ZM96.6094 20.9297L95.2266 20.9766C94.1875 21.0078 93.4141 21.1953 92.9062 21.5391C92.3984 21.8828 92.1445 22.4062 92.1445 23.1094C92.1445 24.1172 92.7227 24.6211 93.8789 24.6211C94.707 24.6211 95.3672 24.3828 95.8594 23.9062C96.3594 23.4297 96.6094 22.7969 96.6094 22.0078V20.9297ZM108 27.2344C106.461 27.2344 105.25 26.6367 104.367 25.4414C103.492 24.2461 103.055 22.5898 103.055 20.4727C103.055 18.3242 103.5 16.6523 104.391 15.457C105.289 14.2539 106.523 13.6523 108.094 13.6523C109.742 13.6523 111 14.293 111.867 15.5742H111.984C111.805 14.5977 111.715 13.7266 111.715 12.9609V8.76562H115.301V27H112.559L111.867 25.3008H111.715C110.902 26.5898 109.664 27.2344 108 27.2344ZM109.254 24.3867C110.168 24.3867 110.836 24.1211 111.258 23.5898C111.687 23.0586 111.922 22.1562 111.961 20.8828V20.4961C111.961 19.0898 111.742 18.082 111.305 17.4727C110.875 16.8633 110.172 16.5586 109.195 16.5586C108.398 16.5586 107.777 16.8984 107.332 17.5781C106.895 18.25 106.676 19.2305 106.676 20.5195C106.676 21.8086 106.898 22.7773 107.344 23.4258C107.789 24.0664 108.426 24.3867 109.254 24.3867ZM122.156 27L117.164 13.8984H120.902L123.434 21.3633C123.715 22.3086 123.891 23.2031 123.961 24.0469H124.031C124.07 23.2969 124.246 22.4023 124.559 21.3633L127.078 13.8984H130.816L125.824 27H122.156ZM132.551 10.5117C132.551 9.34766 133.199 8.76562 134.496 8.76562C135.793 8.76562 136.441 9.34766 136.441 10.5117C136.441 11.0664 136.277 11.5 135.949 11.8125C135.629 12.1172 135.145 12.2695 134.496 12.2695C133.199 12.2695 132.551 11.6836 132.551 10.5117ZM136.277 27H132.703V13.8984H136.277V27ZM149.18 23.1094C149.18 24.4531 148.711 25.4766 147.773 26.1797C146.844 26.8828 145.449 27.2344 143.59 27.2344C142.637 27.2344 141.824 27.168 141.152 27.0352C140.48 26.9102 139.852 26.7227 139.266 26.4727V23.5195C139.93 23.832 140.676 24.0938 141.504 24.3047C142.34 24.5156 143.074 24.6211 143.707 24.6211C145.004 24.6211 145.652 24.2461 145.652 23.4961C145.652 23.2148 145.566 22.9883 145.395 22.8164C145.223 22.6367 144.926 22.4375 144.504 22.2188C144.082 21.9922 143.52 21.7305 142.816 21.4336C141.809 21.0117 141.066 20.6211 140.59 20.2617C140.121 19.9023 139.777 19.4922 139.559 19.0312C139.348 18.5625 139.242 17.9883 139.242 17.3086C139.242 16.1445 139.691 15.2461 140.59 14.6133C141.496 13.9727 142.777 13.6523 144.434 13.6523C146.012 13.6523 147.547 13.9961 149.039 14.6836L147.961 17.2617C147.305 16.9805 146.691 16.75 146.121 16.5703C145.551 16.3906 144.969 16.3008 144.375 16.3008C143.32 16.3008 142.793 16.5859 142.793 17.1562C142.793 17.4766 142.961 17.7539 143.297 17.9883C143.641 18.2227 144.387 18.5703 145.535 19.0312C146.559 19.4453 147.309 19.832 147.785 20.1914C148.262 20.5508 148.613 20.9648 148.84 21.4336C149.066 21.9023 149.18 22.4609 149.18 23.1094ZM154.816 20.4258C154.816 21.7227 155.027 22.7031 155.449 23.3672C155.879 24.0312 156.574 24.3633 157.535 24.3633C158.488 24.3633 159.172 24.0352 159.586 23.3789C160.008 22.7148 160.219 21.7305 160.219 20.4258C160.219 19.1289 160.008 18.1562 159.586 17.5078C159.164 16.8594 158.473 16.5352 157.512 16.5352C156.559 16.5352 155.871 16.8594 155.449 17.5078C155.027 18.1484 154.816 19.1211 154.816 20.4258ZM163.875 20.4258C163.875 22.5586 163.312 24.2266 162.188 25.4297C161.062 26.6328 159.496 27.2344 157.488 27.2344C156.23 27.2344 155.121 26.9609 154.16 26.4141C153.199 25.8594 152.461 25.0664 151.945 24.0352C151.43 23.0039 151.172 21.8008 151.172 20.4258C151.172 18.2852 151.73 16.6211 152.848 15.4336C153.965 14.2461 155.535 13.6523 157.559 13.6523C158.816 13.6523 159.926 13.9258 160.887 14.4727C161.848 15.0195 162.586 15.8047 163.102 16.8281C163.617 17.8516 163.875 19.0508 163.875 20.4258ZM174.141 13.6523C174.625 13.6523 175.027 13.6875 175.348 13.7578L175.078 17.1094C174.789 17.0312 174.438 16.9922 174.023 16.9922C172.883 16.9922 171.992 17.2852 171.352 17.8711C170.719 18.457 170.402 19.2773 170.402 20.332V27H166.828V13.8984H169.535L170.062 16.1016H170.238C170.645 15.3672 171.191 14.7773 171.879 14.332C172.574 13.8789 173.328 13.6523 174.141 13.6523Z" fill="#FF5555"/>
<circle cx="18" cy="18" r="18" fill="#FF5555"/>
<path d="M18.006 10.295C15.336 10.295 12.668 11.079 10.361 12.648H6L7.963 14.783C7.06861 15.5979 6.44162 16.6642 6.1644 17.842C5.88718 19.0197 5.97271 20.2538 6.40973 21.3821C6.84676 22.5103 7.61484 23.48 8.61309 24.1637C9.61134 24.8474 10.7931 25.2132 12.003 25.213C13.5148 25.2143 14.971 24.6426 16.078 23.613L18 25.705L19.922 23.615C21.0284 24.6435 22.4834 25.2145 23.994 25.213C25.585 25.213 27.1108 24.5811 28.2359 23.4563C29.3611 22.3315 29.9935 20.8059 29.994 19.215C29.9949 18.3806 29.8213 17.5553 29.4843 16.792C29.1472 16.0287 28.6543 15.3444 28.037 14.783L30 12.648H25.65C23.3962 11.1137 20.7325 10.2938 18.006 10.295ZM18 12.255C19.531 12.255 21.063 12.558 22.504 13.158C19.943 14.138 18 16.43 18 19.1C18 16.429 16.058 14.138 13.496 13.158C14.9231 12.5632 16.4539 12.2566 18 12.256V12.255ZM12.002 15.157C12.535 15.157 13.0629 15.262 13.5553 15.466C14.0478 15.6699 14.4952 15.9689 14.8721 16.3458C15.2491 16.7228 15.548 17.1702 15.752 17.6627C15.956 18.1551 16.061 18.6829 16.061 19.216C16.061 19.749 15.956 20.2768 15.752 20.7693C15.548 21.2618 15.2491 21.7092 14.8721 22.0861C14.4952 22.463 14.0478 22.762 13.5553 22.966C13.0629 23.17 12.535 23.275 12.002 23.275C10.9255 23.275 9.89306 22.8473 9.13185 22.0861C8.37064 21.3249 7.943 20.2925 7.943 19.216C7.943 18.1395 8.37064 17.107 9.13185 16.3458C9.89306 15.5846 10.9255 15.157 12.002 15.157ZM23.994 15.159C24.5268 15.1588 25.0545 15.2635 25.5469 15.4673C26.0392 15.671 26.4866 15.9697 26.8635 16.3463C27.2404 16.723 27.5395 17.1702 27.7436 17.6624C27.9477 18.1546 28.0528 18.6821 28.053 19.215C28.0532 19.7478 27.9484 20.2755 27.7447 20.7678C27.541 21.2602 27.2423 21.7076 26.8656 22.0845C26.489 22.4614 26.0418 22.7605 25.5496 22.9646C25.0574 23.1686 24.5298 23.2738 23.997 23.274C22.9209 23.2744 21.8887 22.8473 21.1275 22.0866C20.3663 21.326 19.9384 20.2941 19.938 19.218C19.9376 18.1419 20.3647 17.1097 21.1254 16.3485C21.886 15.5872 22.9179 15.1594 23.994 15.159ZM12.002 17.089C11.4376 17.089 10.8964 17.3132 10.4973 17.7123C10.0982 18.1113 9.874 18.6526 9.874 19.217C9.874 19.7814 10.0982 20.3226 10.4973 20.7217C10.8964 21.1208 11.4376 21.345 12.002 21.345C12.5664 21.345 13.1076 21.1208 13.5067 20.7217C13.9058 20.3226 14.13 19.7814 14.13 19.217C14.13 18.6526 13.9058 18.1113 13.5067 17.7123C13.1076 17.3132 12.5664 17.089 12.002 17.089ZM23.994 17.089C23.4296 17.089 22.8884 17.3132 22.4893 17.7123C22.0902 18.1113 21.866 18.6526 21.866 19.217C21.866 19.7814 22.0902 20.3226 22.4893 20.7217C22.8884 21.1208 23.4296 21.345 23.994 21.345C24.5584 21.345 25.0996 21.1208 25.4987 20.7217C25.8978 20.3226 26.122 19.7814 26.122 19.217C26.122 18.6526 25.8978 18.1113 25.4987 17.7123C25.0996 17.3132 24.5584 17.089 23.994 17.089Z" fill="white"/>
</svg>
