<svg width="300" height="300" viewBox="0 0 300 300" fill="none" xmlns="http://www.w3.org/2000/svg">
<path d="M286.008 204.094C281.766 199.453 275.719 195 272.321 189.727C267.469 182.227 266.461 172.992 261.305 165.609C258.938 162.187 255.774 159.562 252.211 157.641C251.696 156.562 251.11 155.367 250.547 154.172C250.289 153.633 249.938 153.258 249.61 152.883C243.258 157.781 234.961 160.805 225.493 160.805C216.118 160.805 207.868 157.852 201.539 153.023C201.235 153.375 200.93 153.703 200.696 154.195C200.227 155.203 199.735 156.234 199.266 157.195C195.399 159.141 191.977 161.953 189.446 165.633C184.313 172.992 183.258 182.25 178.43 189.75C175.008 195.023 169.008 199.477 164.743 204.117C157.219 212.32 150.282 222.891 154.899 234.328C158.157 242.437 166.196 245.906 174.375 245.508C176.836 245.391 179.368 244.945 181.711 244.125C186.539 242.461 191.063 239.953 195.094 236.906C197.11 235.383 199.196 233.719 200.86 231.82C203.344 228.984 204.985 225.258 207.282 222.211C208.172 221.062 209.907 219.07 211.641 219.516C213.164 219.891 213.422 222.305 213.844 223.5C214.829 226.172 217.805 227.953 220.477 228.352C222.211 228.609 223.805 228.773 225.399 228.82C226.969 228.773 228.586 228.609 230.321 228.352C232.969 227.953 235.946 226.172 236.93 223.5C237.352 222.305 237.633 219.891 239.133 219.516C240.891 219.07 242.625 221.039 243.516 222.211C245.789 225.258 247.43 228.984 249.914 231.82C251.579 233.719 253.641 235.383 255.657 236.906C259.711 239.953 264.235 242.484 269.039 244.125C272.157 245.203 275.438 245.602 278.649 245.484C286.008 245.18 292.899 241.687 295.852 234.328C300.469 222.867 293.508 212.297 286.008 204.094Z" fill="#FF5555"/>
<path d="M135.258 204.234C131.016 199.594 124.993 195.141 121.571 189.867C116.719 182.367 115.688 173.133 110.555 165.75C108.399 162.656 105.563 160.289 102.446 158.437C102.141 157.687 100.875 154.547 99.6801 151.406C93.1645 156.867 84.3285 160.195 74.227 160.195C64.3363 160.195 55.6645 156.984 49.1723 151.687C47.8598 155.18 46.4301 158.695 46.4067 158.742C43.5238 160.5 40.8285 162.656 38.6723 165.75C33.5629 173.109 32.5317 182.367 27.6801 189.867C24.2582 195.141 18.2348 199.594 13.9926 204.234C6.46916 212.437 -0.468343 223.008 4.14884 234.445C7.40666 242.555 15.4223 246.023 23.602 245.625C26.0629 245.508 28.5707 245.062 30.9379 244.242C35.7426 242.578 40.266 240.07 44.3207 237C46.3363 235.477 48.4223 233.812 50.0629 231.914C52.5707 229.078 54.1879 225.352 56.5082 222.305C57.3754 221.156 59.1332 219.164 60.8676 219.609C62.3676 219.984 62.6254 222.398 63.0707 223.594C64.0551 226.266 67.0317 228.047 69.7035 228.445C71.4145 228.703 73.0317 228.867 74.6254 228.914C76.1957 228.867 77.8129 228.703 79.5473 228.445C82.1957 228.047 85.1723 226.266 86.1801 223.594C86.6254 222.398 86.8832 219.984 88.3832 219.609C90.1176 219.164 91.8754 221.133 92.7426 222.305C95.0629 225.352 96.6801 229.102 99.1645 231.914C100.852 233.812 102.891 235.477 104.907 237C108.961 240.047 113.461 242.578 118.313 244.242C121.407 245.32 124.711 245.719 127.899 245.602C135.282 245.297 142.172 241.805 145.125 234.445C149.719 223.008 142.782 212.437 135.258 204.234Z" fill="#FF5555"/>
<path d="M95.7891 215.953C100.664 224.437 108.445 233.039 118.664 234.891C121.5 235.406 125.672 235.359 128.086 233.531C130.734 231.516 130.57 226.711 129.656 223.898C128.789 221.297 124.547 218.273 122.133 217.148C118.547 215.484 115.031 213.82 111.773 211.5C106.875 207.961 103.922 202.688 98.9531 199.313C96.1406 197.414 93.2813 196.781 92.3906 201.609C91.4531 206.531 93.375 211.781 95.7891 215.953Z" fill="white"/>
<path d="M118.453 244.078C113.625 242.414 109.102 239.906 105.047 236.859C103.031 235.336 100.969 233.672 99.3047 231.773C96.8203 228.938 95.1797 225.211 92.8828 222.164C92.0156 221.016 90.2812 219.023 88.5234 219.469C87.0234 219.844 86.7656 222.258 86.3203 223.453C85.3125 226.125 82.3359 227.906 79.6875 228.305C77.9531 228.563 76.3594 228.727 74.7656 228.773C73.1953 228.727 71.5781 228.563 69.8437 228.305C67.1719 227.906 64.2187 226.125 63.2109 223.453C62.7891 222.258 62.5312 219.844 61.0078 219.469C59.2734 219.023 57.5156 220.992 56.6484 222.164C54.3516 225.211 52.7109 228.938 50.2031 231.773C48.5391 233.672 46.4766 235.336 44.4609 236.859C40.4297 239.906 35.9062 242.438 31.0781 244.078C28.6875 244.898 26.2031 245.344 23.7422 245.461C24.3516 247.172 25.4063 248.813 27.0938 250.289C27.4453 250.617 27.9141 250.828 28.3359 251.086C31.0312 252.68 34.8516 253.313 37.8281 253.828C58.9922 257.391 81.2578 256.992 102.656 255.633C110.344 255.141 119.297 254.414 124.945 249.258C125.648 248.625 126.328 247.922 126.937 247.102C127.336 246.563 127.687 246 127.969 245.438C124.852 245.578 121.57 245.156 118.453 244.078Z" fill="#272727"/>
<path d="M57.2114 201.633C56.3208 196.805 53.4614 197.414 50.6489 199.336C45.6568 202.711 42.7271 207.984 37.8052 211.523C34.5708 213.867 31.0318 215.508 27.4458 217.172C25.0318 218.297 20.7896 221.32 19.9224 223.922C19.0083 226.711 18.8443 231.539 21.4927 233.555C23.9068 235.383 28.0786 235.43 30.9146 234.914C41.1099 233.063 48.8911 224.461 53.7661 215.977C56.1802 211.781 58.1255 206.531 57.2114 201.633Z" fill="white"/>
<path d="M14.9297 262.359H34.5469V293.32H14.9297V262.359Z" fill="#F8F8F8"/>
<path d="M34.5469 262.359H54.1641V293.32H34.5469V262.359Z" fill="#E5E5E5"/>
<path d="M54.1641 262.359H73.7578V293.32H54.1641V262.359Z" fill="#272727"/>
<path d="M73.7568 262.359H93.374V293.32H73.7568V262.359Z" fill="#F8F8F8"/>
<path d="M93.374 262.359H112.991V293.32H93.374V262.359Z" fill="#E5E5E5"/>
<path d="M112.991 262.359H132.608V293.32H112.991V262.359Z" fill="#272727"/>
<path d="M106.172 127.172C106.172 143.719 91.9453 154.969 74.3672 154.969C56.8359 154.969 42.6094 143.742 42.6094 127.172C42.6094 110.625 56.8359 94.9922 74.3672 94.9922C91.9453 94.9922 106.172 110.625 106.172 127.172Z" fill="white"/>
<path d="M54.1177 129.75C54.0943 127.969 54.8911 126.141 56.6255 124.945C58.5239 123.633 61.8755 123.586 63.938 124.57C66.7036 125.906 67.5708 129.445 66.3521 132.07C64.7583 135.492 60.3052 136.477 57.0239 134.742C55.1489 133.758 54.1411 131.836 54.1177 129.75Z" fill="#272727"/>
<path d="M94.6873 129.75C94.7107 127.969 93.9139 126.141 92.1795 124.945C90.3045 123.633 86.9295 123.586 84.867 124.57C82.0779 125.906 81.2107 129.445 82.4529 132.07C84.0467 135.492 88.4764 136.477 91.7576 134.742C93.6561 133.758 94.6404 131.836 94.6873 129.75Z" fill="#272727"/>
<path d="M104.835 97.8516C99.8427 91.2656 92.1552 87.5391 84.6083 85.5937C81.8427 84.8906 77.0614 84.8906 74.3661 87C71.7177 84.8906 66.9599 84.8906 64.1474 85.5937C53.6005 88.2891 42.5145 96.1875 39.7724 107.742C38.952 111.164 38.7411 114.75 39.163 118.242C39.3974 120.328 39.4911 123.75 41.4599 124.969C41.7177 125.109 42.6552 125.25 42.6552 125.25C42.6552 125.25 45.1395 121.898 48.7489 119.742C56.3661 115.148 61.3817 112.078 63.913 110.156C68.1552 106.945 70.4755 104.109 72.5849 101.156C74.9755 97.8281 77.0145 102.422 78.6786 104.273C85.452 111.82 90.5849 112.594 98.788 118.875C99.3739 119.32 106.1 125.273 106.1 125.273C106.1 125.273 106.827 125.273 107.296 124.969C109.288 123.75 109.686 119.695 109.944 117.586C110.366 114.094 109.452 103.945 104.835 97.8516Z" fill="#272727"/>
<path d="M86.391 74.9766C91.2191 55.125 91.7348 26.6719 90.7504 18.5156C90.141 13.5703 84.7035 12.1641 80.5551 11.625C75.0473 10.9219 69.0473 10.6172 63.7738 12.5391C61.4769 13.3828 58.5941 15.8672 58.266 18.5156C57.2816 26.6719 57.7973 55.0547 62.6488 74.9063C54.9848 75.9375 47.3676 79.1016 46.9457 87.961C46.8754 89.836 47.3207 91.3594 48.1879 92.625C49.5707 94.6641 51.9613 95.9297 54.8207 96.6797C59.9535 98.0625 65.4848 98.625 70.7816 97.8281C72.0941 97.6406 73.2191 97.2422 74.3676 96.75C75.5394 97.2422 76.6879 97.6406 78.0004 97.8281C83.2973 98.625 88.8051 98.0625 93.9848 96.6797C96.7973 95.9297 99.2113 94.6406 100.594 92.625C101.461 91.3594 101.93 89.836 101.836 87.961C101.461 79.2656 94.3363 76.125 86.391 74.9766Z" fill="#272727"/>
<path d="M81.7738 217.594C81.4926 219.867 79.3129 221.719 76.9223 221.719H71.9067C69.5395 221.719 67.3363 219.867 67.0317 217.594L61.2426 174.469C60.9379 172.195 62.6254 170.344 64.9926 170.344H83.8363C86.2035 170.344 87.891 172.195 87.5863 174.469L81.7738 217.594Z" fill="#FFA255"/>
<path d="M246.351 215.953C251.25 224.438 259.031 233.039 269.226 234.891C272.039 235.406 276.234 235.359 278.648 233.531C281.297 231.516 281.109 226.711 280.195 223.898C279.328 221.297 275.109 218.273 272.672 217.148C269.086 215.484 265.57 213.82 262.336 211.5C257.437 207.961 254.484 202.688 249.492 199.313C246.679 197.414 243.843 196.781 242.929 201.609C242.015 206.531 243.961 211.781 246.351 215.953Z" fill="white"/>
<path d="M269.016 244.078C264.211 242.414 259.687 239.906 255.633 236.859C253.617 235.336 251.578 233.672 249.891 231.773C247.406 228.937 245.766 225.211 243.492 222.164C242.602 221.016 240.867 219.023 239.109 219.469C237.609 219.844 237.352 222.258 236.906 223.453C235.922 226.125 232.945 227.906 230.297 228.305C228.562 228.562 226.945 228.727 225.375 228.773C223.781 228.727 222.187 228.562 220.453 228.305C217.805 227.906 214.805 226.125 213.82 223.453C213.398 222.258 213.141 219.844 211.617 219.469C209.883 219.023 208.125 220.992 207.258 222.164C204.961 225.211 203.32 228.937 200.836 231.773C199.172 233.672 197.086 235.336 195.07 236.859C191.016 239.906 186.516 242.437 181.687 244.078C179.344 244.898 176.812 245.344 174.352 245.461C174.961 247.172 176.016 248.812 177.703 250.289C178.055 250.617 178.523 250.828 178.969 251.086C181.664 252.68 185.484 253.312 188.438 253.828C209.625 257.391 231.867 256.992 253.289 255.633C260.977 255.141 269.93 254.414 275.555 249.258C276.258 248.625 276.937 247.922 277.547 247.102C277.945 246.562 278.297 246 278.602 245.437C275.437 245.578 272.156 245.156 269.016 244.078Z" fill="#272727"/>
<path d="M207.797 201.633C206.883 196.805 204.047 197.414 201.235 199.336C196.243 202.711 193.313 207.984 188.391 211.523C185.133 213.867 181.618 215.508 178.055 217.172C175.618 218.297 171.399 221.32 170.508 223.922C169.594 226.711 169.407 231.539 172.078 233.555C174.493 235.383 178.664 235.43 181.5 234.914C191.696 233.062 199.477 224.461 204.375 215.977C206.766 211.781 208.711 206.531 207.797 201.633Z" fill="white"/>
<path d="M257.789 181.641C258.797 180.938 259.219 179.367 258.75 178.148C258.75 178.148 253.594 164.484 227.062 163.711C201.305 162.961 192.492 177.023 192.492 177.023C191.812 178.125 192.094 179.578 193.078 180.258L224.672 201.703C225.68 202.383 227.32 202.383 228.351 201.703L257.789 181.641Z" fill="#FFA255"/>
<path d="M166.734 262.359H186.352V293.32H166.734V262.359Z" fill="#F8F8F8"/>
<path d="M186.328 262.359H205.945V293.32H186.328V262.359Z" fill="#E5E5E5"/>
<path d="M205.946 262.359H225.563V293.32H205.946V262.359Z" fill="#272727"/>
<path d="M225.562 262.359H245.155V293.32H225.562V262.359Z" fill="#F8F8F8"/>
<path d="M245.179 262.359H264.772V293.32H245.179V262.359Z" fill="#E5E5E5"/>
<path d="M264.773 262.359H284.391V293.32H264.773V262.359Z" fill="#272727"/>
<path d="M194.062 128.203C194.062 144.586 208.125 155.695 225.516 155.695C242.859 155.695 256.945 144.586 256.945 128.203C256.945 111.82 242.883 96.375 225.516 96.375C208.125 96.375 194.062 111.82 194.062 128.203Z" fill="white"/>
<path d="M289.523 114.352C289.523 85.2656 255.75 70.9219 255.75 70.9219L255.656 71.0391C248.273 66.0234 237.516 62.8594 225.492 62.8594C213.445 62.8594 202.688 66.0234 195.328 71.0391L195.211 70.9219C195.211 70.9219 161.438 85.2656 161.438 114.352C161.438 138.469 193.008 145.242 193.641 145.383C202.008 148.523 213.211 150.469 225.516 150.469C237.938 150.469 249.164 148.5 257.555 145.336C260.672 144.633 289.523 137.414 289.523 114.352Z" fill="#272727"/>
<path d="M194.062 128.203C194.062 144.586 208.125 155.695 225.516 155.695C242.859 155.695 256.945 144.586 256.945 128.203C256.945 111.82 242.883 96.375 225.516 96.375C208.125 96.375 194.062 111.82 194.062 128.203Z" fill="white"/>
<path d="M243.141 83.8125C239.227 82.8047 234.774 82.5703 232.126 82.2656C225.633 81.4922 219.352 81.0938 212.79 81.7734C210.024 82.0781 207.188 82.1953 204.493 83.0625C201.282 84.1172 199.758 85.8516 199.29 89.25C198.563 94.8047 201.751 99.5156 206.391 102.258C211.079 105.023 218.555 106.758 225.891 106.758C229.735 106.758 249.001 106.031 250.735 91.7109C251.298 87.1641 247.571 84.9609 243.141 83.8125Z" fill="#272727"/>
<path d="M245.765 130.148C245.812 128.367 244.992 126.539 243.281 125.344C241.383 124.008 238.031 123.961 235.969 124.969C233.203 126.305 232.336 129.82 233.554 132.445C235.148 135.867 239.625 136.852 242.883 135.117C244.734 134.133 245.742 132.234 245.765 130.148Z" fill="#272727"/>
<path d="M205.195 130.148C205.148 128.367 205.969 126.539 207.68 125.344C209.578 124.008 212.93 123.961 214.992 124.969C217.758 126.305 218.625 129.82 217.406 132.445C215.812 135.867 211.383 136.852 208.078 135.117C206.25 134.133 205.242 132.234 205.195 130.148Z" fill="#272727"/>
<path d="M245.062 57.375C244.569 56.3203 244.288 55.2656 244.358 54.2344C244.546 51.539 248.319 50.5078 250.218 49.2422C256.288 45.1172 262.546 38.4844 264.679 31.3125C266.343 25.6875 262.265 18.6094 255.843 19.9922C251.085 21.0234 248.296 25.2422 246.491 29.4375C245.53 31.7578 244.78 34.1484 244.077 36.5625C243.351 39.0937 242.108 41.5078 241.077 43.9219C240.351 45.5859 239.507 47.9062 237.796 48.7969C236.249 49.6172 234.491 49.1953 233.413 47.8594C232.054 46.1953 232.546 44.25 232.827 42.3047C233.062 40.7344 233.413 39.1875 233.765 37.6172C234.187 35.625 234.421 33.6094 234.796 31.5937C235.897 25.7578 236.741 17.8359 233.39 12.5625C231.538 9.65623 228.772 8.24998 225.327 8.22654C216.304 8.15623 215.46 18.0937 215.765 24.8672C215.999 29.7656 216.819 34.664 217.944 39.4219C218.413 41.3906 219.116 43.4531 218.765 45.4922C218.226 48.6094 214.968 49.6875 212.46 47.7656C211.101 46.7109 210.187 45.164 209.437 43.6172C207.819 40.2656 206.647 36.6328 205.499 33.0703C205.054 31.6875 204.562 30.3281 203.976 29.0156C202.194 24.9609 199.382 20.9531 194.812 19.9453C188.366 18.539 184.288 25.6406 185.976 31.2656C188.085 38.4375 194.343 45.0469 200.437 49.1953C202.194 50.3906 205.007 51.1406 205.968 53.25C207.163 55.8984 204.726 59.1562 203.39 61.2656C201.515 64.1953 199.804 67.3125 199.335 70.8047C198.608 76.3593 201.796 81.0703 206.437 83.8125C211.124 86.6015 218.601 88.3125 225.937 88.3125C229.78 88.3125 249.046 87.5859 250.78 73.289C251.155 70.2187 250.382 67.1484 249.233 64.3125C248.343 62.1797 246.187 59.789 245.062 57.375Z" fill="#FFA255"/>
</svg>
