<svg width="300" height="300" viewBox="0 0 300 300" fill="none" xmlns="http://www.w3.org/2000/svg">
<path d="M250.195 70.1367C250.195 31.4062 218.789 0 180.058 0C151.464 0 163.945 3.10547 144.082 3.10547C124.218 3.10547 137.343 0 104.355 0C65.6832 0 34.277 31.4062 34.277 70.1367C29.4723 117.246 33.691 189.199 45.0582 221.191C58.652 259.512 82.0895 270.234 137.754 294.668C199.277 321.621 250.195 245.566 250.195 70.1367Z" fill="#FF5555"/>
<path d="M225.469 98.4375C223.887 99.7266 222.188 100.84 220.43 101.836C214.98 104.883 209.004 106.406 202.793 106.406C199.16 106.406 195.41 105.879 191.66 104.824C190.664 107.051 189.961 109.453 189.785 111.973H189.551V141.914H189.668L189.609 141.973C189.609 153.691 199.16 163.242 210.879 163.242C222.598 163.242 232.148 153.691 232.148 141.973V111.973H231.973C231.504 106.699 229.102 101.953 225.469 98.4375Z" fill="#F8F8F8"/>
<path d="M121.641 109.277C118.184 110.508 114.492 111.152 110.625 111.152C106.348 111.152 101.895 110.391 97.3828 108.809C92.4023 107.109 87.832 104.531 83.7891 101.367C81.6211 104.414 80.2148 108.047 79.8633 111.973H79.6875V141.914H79.7461V141.973C79.7461 153.691 89.2969 163.242 101.016 163.242C112.734 163.242 122.285 153.691 122.285 141.973V111.973H122.051C121.992 111.094 121.816 110.156 121.641 109.277Z" fill="#F8F8F8"/>
<path d="M130.195 226.237C129.257 226.237 128.32 226.53 127.499 227.116C125.39 228.639 124.863 231.569 126.386 233.678C138.456 250.788 160.722 257.057 176.484 254.421C187.675 252.546 195.644 246.335 198.281 237.253C198.984 234.733 197.578 232.155 195.117 231.393C192.597 230.69 190.019 232.096 189.257 234.557C187.089 241.999 179.355 244.343 174.96 245.104C162.421 247.214 143.789 241.999 134.062 228.229C133.124 226.94 131.66 226.237 130.195 226.237Z" fill="#F8F8F8"/>
<path d="M116.25 123.105C115.957 119.824 113.262 117.246 109.922 117.246C106.582 117.246 103.828 119.824 103.535 123.105H103.477V132.129C103.477 135.645 106.348 138.574 109.922 138.574C113.438 138.574 116.367 135.703 116.367 132.129V123.105H116.25Z" fill="#272727"/>
<path d="M227.52 123.105C227.227 119.824 224.531 117.246 221.191 117.246C217.852 117.246 215.098 119.824 214.805 123.105H214.746V132.129C214.746 135.645 217.617 138.574 221.191 138.574C224.707 138.574 227.637 135.703 227.637 132.129V123.105H227.52Z" fill="#272727"/>
<path d="M126.914 80.8593C126.211 72.7148 119.062 66.6211 110.918 67.207C104.531 60.4687 96.0934 49.9804 92.695 45.6445C90.1754 42.3632 85.4879 41.7773 82.2067 44.2968C78.9254 46.8164 78.3395 51.5039 80.859 54.7851C81.3278 55.4297 82.9684 57.539 85.2536 60.3515C82.7926 58.9453 80.3317 57.4804 78.1051 55.8984C75.2926 53.9648 72.7145 51.9726 70.5465 50.2148C69.4918 49.3359 68.4957 48.5156 67.6754 47.7539C66.8551 46.9922 66.0934 46.3476 65.5075 45.8203C65.2145 45.5273 64.9801 45.2929 64.7457 45.1172C64.5114 44.8828 64.277 44.6484 64.1012 44.5312L63.5739 44.0039C60.0582 40.6054 54.5504 40.1953 50.5661 43.1836C46.1715 46.5234 45.2926 52.7929 48.6325 57.2461C48.6325 57.2461 48.8083 57.4218 49.1012 57.832C49.2184 58.0078 49.3942 58.2422 49.6286 58.5351C49.8629 58.8281 50.1559 59.1796 50.4489 59.5898C51.0934 60.4101 51.7965 61.289 52.6754 62.2851C53.5543 63.3398 54.4918 64.4531 55.6051 65.6836C59.9997 70.6054 66.2692 76.875 73.7106 82.3242C75.527 83.7304 77.5192 85.0195 79.4528 86.25C81.445 87.4804 83.4372 88.6523 85.4293 89.707C87.4801 90.7617 89.4723 91.6992 91.4645 92.5195C93.4567 93.3398 95.4489 94.0429 97.3239 94.6289C98.2614 94.9218 99.1989 95.1562 100.078 95.3906C100.957 95.625 101.836 95.8007 102.597 95.9765C103.418 96.1523 104.179 96.2695 104.882 96.3867C105.586 96.5039 106.23 96.5625 106.875 96.6796C108.047 96.8554 109.043 96.914 109.687 96.9726C110.332 97.0312 110.683 97.0312 110.683 97.0312H110.918C111.679 97.0898 112.5 97.0898 113.261 97.0312C121.523 96.3281 127.617 89.0625 126.914 80.8593Z" fill="#272727"/>
<path d="M239.648 42.832C234.726 40.664 228.926 42.8906 226.758 47.8125V47.9296C226.758 47.9296 226.699 47.9296 226.699 48.0468C226.582 48.2226 226.406 48.5742 226.23 48.9257C225.762 49.7461 225.058 50.9179 224.121 52.2656C223.652 52.9101 223.125 53.6718 222.539 54.375C221.953 55.0781 221.308 55.8398 220.664 56.5429C220.371 56.8945 220.019 57.1875 219.726 57.4804C220.488 55.4882 220.019 53.1445 218.32 51.6211C216.152 49.7461 212.871 49.9218 210.937 52.1484L202.148 62.2265C201.973 62.2265 201.738 62.2265 201.562 62.2851C193.301 63.1054 187.207 70.4296 187.969 78.75C188.789 87.0117 196.113 93.1054 204.433 92.3437L205.312 92.2851C205.312 92.2851 206.367 92.1679 208.125 91.9335C209.004 91.8164 210.117 91.582 211.348 91.3476C211.992 91.2304 212.637 90.9961 213.34 90.8203C213.691 90.7031 214.043 90.6445 214.394 90.5273C214.746 90.4101 215.098 90.2929 215.508 90.1757C217.031 89.707 218.555 89.0625 220.195 88.3007C221.015 87.8906 221.836 87.4804 222.598 87.0117C223.359 86.5429 224.18 86.0742 225 85.5468C226.582 84.4921 228.105 83.3203 229.512 82.0312C229.863 81.7382 230.215 81.3867 230.566 81.0937L231.562 80.0976C232.266 79.4531 232.851 78.75 233.496 78.0468L235.254 75.9375C235.781 75.2343 236.308 74.5312 236.836 73.7695C237.832 72.3046 238.711 70.8984 239.473 69.4921C240.234 68.0859 240.937 66.7382 241.523 65.3906C242.109 64.1015 242.637 62.8125 243.047 61.6992C243.926 59.414 244.512 57.4218 244.922 56.0156C245.098 55.3125 245.273 54.7265 245.39 54.3164C245.449 54.082 245.508 53.8476 245.508 53.7304V53.6132V53.5546C246.094 49.1601 243.867 44.707 239.648 42.832Z" fill="#272727"/>
<path d="M163.184 197.109C163.184 197.109 163.067 197.109 162.891 197.168C162.832 197.168 162.656 197.168 162.539 197.227C162.481 197.285 162.363 197.285 162.305 197.344C161.777 197.52 160.899 197.871 159.785 198.457C157.5 199.629 154.219 201.855 150.235 204.609C146.25 207.363 141.563 210.645 136.289 213.984C131.016 217.324 125.098 220.664 118.711 223.418C115.488 224.766 112.149 225.996 108.692 226.934C105.235 227.871 101.66 228.574 98.0861 228.867C94.5119 229.219 90.8791 229.102 87.4806 228.691C84.0236 228.281 80.8009 227.52 77.8712 226.523C74.9415 225.527 72.3634 224.297 70.1369 223.125C67.9103 221.953 66.1525 220.723 64.6876 219.727C63.2814 218.672 62.1681 217.852 61.465 217.207C60.7619 216.621 60.3517 216.27 60.3517 216.27L57.1876 213.633C49.5119 207.305 48.3986 195.938 54.7853 188.262C61.172 180.586 72.4806 179.473 80.1564 185.859C82.1486 187.5 83.7892 189.609 84.8439 191.836L85.1369 192.422C85.3126 192.832 85.6056 193.359 85.9572 194.063C86.3673 194.707 86.7775 195.527 87.3634 196.348C87.9494 197.168 88.6525 198.105 89.5314 198.984C90.4103 199.863 91.465 200.801 92.8712 201.621C94.2189 202.441 95.9181 203.203 97.9103 203.789C99.9025 204.375 102.188 204.785 104.707 204.961C107.227 205.137 109.922 205.078 112.793 204.844C118.477 204.375 124.453 203.086 130.137 201.563C135.82 200.039 141.211 198.223 145.957 196.699C150.703 195.176 154.746 193.887 157.852 193.242C159.434 192.949 160.723 192.773 161.719 192.773H162.481C162.656 192.773 162.774 192.832 162.891 192.832C163.067 192.832 163.184 192.891 163.184 192.891L163.418 192.949C164.59 193.125 165.41 194.238 165.235 195.41C164.883 196.23 164.121 196.992 163.184 197.109Z" fill="#272727"/>
<path d="M175.664 192.48H176.836C177.011 192.48 177.246 192.539 177.48 192.539C177.715 192.539 177.949 192.598 178.242 192.656C178.359 192.656 178.535 192.715 178.652 192.715C178.769 192.715 178.886 192.773 179.004 192.773C180.058 192.949 181.23 193.301 182.519 193.711C183.808 194.121 185.215 194.707 186.679 195.352C189.609 196.582 192.949 198.164 196.406 199.687C198.164 200.449 199.922 201.152 201.738 201.855C203.554 202.5 205.371 203.086 207.187 203.555C209.004 203.965 210.761 204.375 212.519 204.492L213.164 204.551H213.808C214.218 204.551 214.629 204.551 215.039 204.609C215.859 204.551 216.621 204.551 217.383 204.434C218.906 204.316 220.254 203.848 221.484 203.496C222.07 203.262 222.656 203.027 223.242 202.734C223.769 202.441 224.297 202.207 224.824 201.855C225.293 201.563 225.761 201.211 226.23 200.918C226.64 200.566 227.05 200.273 227.402 199.98C227.578 199.863 227.754 199.688 227.929 199.512C228.105 199.336 228.281 199.219 228.398 199.043L229.218 198.223C230.215 197.168 230.742 196.523 230.742 196.523L230.976 196.289C233.73 193.184 238.476 192.949 241.582 195.703C244.687 198.457 244.922 203.203 242.168 206.309C241.933 206.602 241.582 206.895 241.347 207.129C241.347 207.129 240.41 207.891 238.711 209.297C238.242 209.648 237.773 209.941 237.187 210.352C236.894 210.527 236.601 210.762 236.308 210.938C236.015 211.172 235.722 211.348 235.371 211.523C234.668 211.934 233.965 212.344 233.203 212.754C232.383 213.164 231.562 213.516 230.683 213.926C229.804 214.336 228.808 214.629 227.812 214.98C226.816 215.273 225.703 215.508 224.648 215.742C222.422 216.094 220.078 216.387 217.734 216.211C216.562 216.211 215.39 216.035 214.16 215.918C213.574 215.801 212.988 215.684 212.402 215.625L211.523 215.449L210.644 215.215C208.359 214.688 206.133 213.867 204.023 212.988C201.914 212.109 199.922 211.113 198.047 210.059C196.172 209.004 194.355 207.949 192.715 206.895C189.316 204.785 186.328 202.734 183.808 201.211C182.519 200.449 181.347 199.746 180.351 199.219C179.297 198.691 178.418 198.281 177.715 198.047C177.597 197.988 177.539 197.988 177.48 197.93C177.422 197.93 177.363 197.871 177.304 197.871C177.187 197.813 177.07 197.813 176.953 197.754C176.836 197.695 176.777 197.695 176.601 197.637C176.425 197.637 176.308 197.578 176.191 197.578C175.722 197.52 175.429 197.461 175.429 197.461C174.082 197.285 173.144 195.996 173.32 194.648C173.437 193.359 174.492 192.48 175.664 192.48Z" fill="#272727"/>
<path d="M101.484 187.617H100.664C91.1715 187.383 82.2652 183.164 75.6441 175.781C73.5933 173.496 73.7691 169.922 76.1129 167.871C78.398 165.82 81.9722 165.996 84.023 168.34C88.5933 173.438 94.5699 176.309 100.957 176.484C107.285 176.602 113.437 174.024 118.183 169.219C120.351 166.992 123.867 166.992 126.093 169.16C128.32 171.328 128.32 174.844 126.152 177.07C119.355 183.867 110.625 187.617 101.484 187.617Z" fill="#CE4343"/>
<path d="M278.789 140.332C270.176 129.961 254.824 128.555 244.512 137.168L244.219 137.461C243.984 137.637 243.75 137.93 243.164 138.281C243.047 138.398 242.871 138.457 242.695 138.574C242.519 138.691 242.402 138.809 242.168 138.926C241.758 139.16 241.289 139.395 240.82 139.688C240.293 139.98 239.707 140.215 239.062 140.508C238.769 140.684 238.418 140.801 238.066 140.977C237.715 141.152 237.363 141.27 236.953 141.445C235.43 142.09 233.672 142.734 231.738 143.379C229.805 144.023 227.695 144.668 225.41 145.313C224.297 145.605 223.125 145.898 221.953 146.25C220.781 146.543 219.551 146.836 218.32 147.129C215.859 147.715 213.281 148.242 210.703 148.77C208.125 149.297 205.547 149.766 202.91 150.234C200.332 150.703 197.754 151.113 195.293 151.465C190.312 152.227 185.625 152.813 181.582 153.281C177.539 153.75 174.199 154.102 171.855 154.336C169.57 154.57 168.222 154.688 168.222 154.688L167.754 154.746C161.601 155.332 156.387 160.02 155.508 166.406C154.453 173.848 159.668 180.762 167.109 181.816C167.109 181.816 168.574 182.051 171.152 182.402C173.672 182.754 177.246 183.223 181.582 183.691C185.859 184.16 190.898 184.688 196.347 185.156C198.808 185.332 201.328 185.508 203.906 185.684C207.305 186.914 210.82 187.559 214.512 187.676H215.332C218.613 187.676 221.777 187.207 224.883 186.27H226.933C228.398 186.211 229.863 186.211 231.328 186.152C234.258 186.035 237.07 185.859 239.824 185.625C242.578 185.391 245.273 185.039 247.793 184.688C248.437 184.57 249.082 184.512 249.668 184.395C250.254 184.277 250.898 184.219 251.484 184.043C252.715 183.809 253.828 183.574 254.941 183.34C256.055 183.047 257.109 182.813 258.105 182.52C258.574 182.402 259.101 182.227 259.57 182.109C260.039 181.934 260.508 181.816 260.918 181.699C262.558 181.23 264.023 180.586 265.019 180.234C266.015 179.824 266.484 179.648 266.484 179.648L269.179 178.594C271.465 177.656 273.633 176.367 275.625 174.727C285.937 166.055 287.344 150.703 278.789 140.332Z" fill="#CE4343"/>
</svg>
