<svg width="1100" height="640" viewBox="0 0 1100 640" fill="none" xmlns="http://www.w3.org/2000/svg">
<path d="M570.49 95.2982C570.089 86.72 559.562 66.7095 555.103 64.647C547.669 61.1926 557.076 48.2399 559.721 40.4722" stroke="#FFC9C9" stroke-width="3" stroke-miterlimit="1.5" stroke-linecap="round" stroke-linejoin="round"/>
<path d="M555.167 64.6623C550.546 69.681 545.919 74.6949 541.299 79.7136" stroke="#FFC9C9" stroke-width="3" stroke-miterlimit="1.5" stroke-linecap="round" stroke-linejoin="round"/>
<path d="M555.162 64.8723C551.794 61.3869 546.104 58.5615 543.506 54.6528C537.427 45.5099 541.498 32.6576 542.529 21.7219" stroke="#FFC9C9" stroke-width="3" stroke-miterlimit="1.5" stroke-linecap="round" stroke-linejoin="round"/>
<path d="M543.488 54.6889C541.846 54.4172 539.053 50.9987 536.025 49.0168C529.943 45.0502 524.623 58.2441 520.212 64.0185C517.414 67.6866 516.089 72.3364 514.827 76.7733" stroke="#FFC9C9" stroke-width="3" stroke-miterlimit="1.5" stroke-linecap="round" stroke-linejoin="round"/>
<path d="M536.085 49.0096C532.302 46.1553 525.737 45.456 523.046 43.1663C516.528 37.6281 521.565 25.9066 523.158 17.5032" stroke="#FFC9C9" stroke-width="3" stroke-miterlimit="1.5" stroke-linecap="round" stroke-linejoin="round"/>
<path d="M523.033 42.9175C519.285 44.2059 515.51 45.5021 511.971 47.2821C508.491 49.0354 505.265 51.2605 502.058 53.4733" stroke="#FFC9C9" stroke-width="3" stroke-miterlimit="1.5" stroke-linecap="round" stroke-linejoin="round"/>
<path d="M523.131 43.0324C520.605 40.5296 506.187 36.3711 503.941 35.0206C499.664 32.4484 500.805 22.3092 498.314 16.0969" stroke="#FFC9C9" stroke-width="3" stroke-miterlimit="1.5" stroke-linecap="round" stroke-linejoin="round"/>
<path d="M503.996 35.0872C502.747 34.026 501.165 32.6824 499.553 32.982C493.929 34.0425 488.573 35.775 484.501 39.8025C480.457 43.8064 478.347 49.29 477.408 54.9059" stroke="#FFC9C9" stroke-width="3" stroke-miterlimit="1.5" stroke-linecap="round" stroke-linejoin="round"/>
<path d="M499.379 32.7171C488.57 28.4745 479.16 27.0171 470.352 26.7684" stroke="#FFC9C9" stroke-width="3" stroke-miterlimit="1.5" stroke-linecap="round" stroke-linejoin="round"/>
<path fill-rule="evenodd" clip-rule="evenodd" d="M543.86 2.2516C539.156 2.39071 535.459 6.31399 535.597 11.0117C535.736 15.7094 539.665 19.4071 544.363 19.2681C549.061 19.1292 552.759 15.2059 552.62 10.5082C552.53 7.46196 550.817 4.69265 548.128 3.25332" fill="#FFE2CA"/>
<path d="M543.86 2.2516C539.156 2.39071 535.459 6.31399 535.597 11.0117C535.736 15.7094 539.665 19.4071 544.363 19.2681C549.061 19.1292 552.759 15.2059 552.62 10.5082C552.53 7.46196 550.817 4.69265 548.128 3.25332" stroke="#FFC9C9" stroke-width="3" stroke-miterlimit="1.5" stroke-linecap="round" stroke-linejoin="round"/>
<path fill-rule="evenodd" clip-rule="evenodd" d="M566.299 27.8347C563.442 25.4936 559.23 25.9117 556.892 28.7654C554.554 31.6192 554.975 35.8335 557.829 38.1717C560.683 40.51 564.894 40.0919 567.233 37.2382C568.749 35.3877 569.162 32.8653 568.311 30.6271" fill="#FFE2CA"/>
<path d="M566.299 27.8347C563.442 25.4936 559.23 25.9117 556.892 28.7654C554.554 31.6192 554.975 35.8335 557.829 38.1717C560.683 40.51 564.894 40.0919 567.233 37.2382C568.749 35.3877 569.162 32.8653 568.311 30.6271" stroke="#FFC9C9" stroke-width="3" stroke-miterlimit="1.5" stroke-linecap="round" stroke-linejoin="round"/>
<path fill-rule="evenodd" clip-rule="evenodd" d="M625.664 48.5583C629.89 50.5649 634.94 48.7667 636.944 44.5456C638.949 40.3245 637.145 35.2724 632.924 33.2681C628.703 31.2639 623.653 33.0621 621.649 37.2831C620.349 40.0203 620.611 43.247 622.34 45.7389" fill="#FFE2CA"/>
<path d="M625.664 48.5583C629.89 50.5649 634.94 48.7667 636.944 44.5456C638.949 40.3245 637.145 35.2724 632.924 33.2681C628.703 31.2639 623.653 33.0621 621.649 37.2831C620.349 40.0203 620.611 43.247 622.34 45.7389" stroke="#FFC9C9" stroke-width="3" stroke-miterlimit="1.5" stroke-linecap="round" stroke-linejoin="round"/>
<path fill-rule="evenodd" clip-rule="evenodd" d="M548.539 121.759C544.358 123.031 542.002 127.449 543.273 131.625C544.543 135.801 548.966 138.156 553.142 136.885C557.318 135.614 559.675 131.196 558.404 127.02C557.58 124.312 555.369 122.248 552.608 121.615" fill="#FFE2CA"/>
<path d="M548.539 121.759C544.358 123.031 542.002 127.449 543.273 131.625C544.543 135.801 548.966 138.156 553.142 136.885C557.318 135.614 559.675 131.196 558.404 127.02C557.58 124.312 555.369 122.248 552.608 121.615" stroke="#FFC9C9" stroke-width="3" stroke-miterlimit="1.5" stroke-linecap="round" stroke-linejoin="round"/>
<path fill-rule="evenodd" clip-rule="evenodd" d="M518.695 4.06802C515.982 4.75739 514.342 7.51437 515.03 10.2246C515.719 12.9349 518.479 14.574 521.189 13.8855C523.9 13.1969 525.54 10.4399 524.851 7.72964C524.405 5.97215 523.052 4.58541 521.304 4.09751" fill="#FFE2CA"/>
<path d="M518.695 4.06802C515.982 4.75739 514.342 7.51437 515.03 10.2246C515.719 12.9349 518.479 14.574 521.189 13.8855C523.9 13.1969 525.54 10.4399 524.851 7.72964C524.405 5.97215 523.052 4.58541 521.304 4.09751" stroke="#FFC9C9" stroke-width="3" stroke-miterlimit="1.5" stroke-linecap="round" stroke-linejoin="round"/>
<path fill-rule="evenodd" clip-rule="evenodd" d="M490.32 6.97922C488.606 9.42657 489.2 12.7981 491.644 14.5101C494.089 16.2222 497.462 15.6251 499.174 13.1807C500.886 10.7362 500.292 7.36459 497.848 5.65258C496.263 4.54241 494.203 4.36331 492.449 5.18635" fill="#FFE2CA"/>
<path d="M490.32 6.97922C488.606 9.42657 489.2 12.7981 491.644 14.5101C494.089 16.2222 497.462 15.6251 499.174 13.1807C500.886 10.7362 500.292 7.36459 497.848 5.65258C496.263 4.54241 494.203 4.36331 492.449 5.18635" stroke="#FFC9C9" stroke-width="3" stroke-miterlimit="1.5" stroke-linecap="round" stroke-linejoin="round"/>
<path fill-rule="evenodd" clip-rule="evenodd" d="M537.688 90.8722C540.796 90.2196 542.786 87.1728 542.134 84.0685C541.482 80.9642 538.432 78.9756 535.327 79.6274C532.223 80.2792 530.233 83.326 530.885 86.4303C531.308 88.4433 532.775 90.0792 534.734 90.7151" fill="#FFE2CA"/>
<path d="M537.688 90.8722C540.796 90.2196 542.786 87.1728 542.134 84.0685C541.482 80.9642 538.432 78.9756 535.327 79.6274C532.223 80.2792 530.233 83.326 530.885 86.4303C531.308 88.4433 532.775 90.0792 534.734 90.7151" stroke="#FFC9C9" stroke-width="3" stroke-miterlimit="1.5" stroke-linecap="round" stroke-linejoin="round"/>
<path fill-rule="evenodd" clip-rule="evenodd" d="M497.374 84.5052C496.081 89.7004 499.243 94.9574 504.432 96.249C509.621 97.5407 514.879 94.373 516.171 89.1839C517.463 83.9948 514.301 78.7377 509.112 77.4461C505.747 76.6085 502.187 77.6333 499.784 80.1372" fill="#FFE2CA"/>
<path d="M497.374 84.5052C496.081 89.7004 499.243 94.9574 504.432 96.249C509.621 97.5407 514.879 94.373 516.171 89.1839C517.463 83.9948 514.301 78.7377 509.112 77.4461C505.747 76.6085 502.187 77.6333 499.784 80.1372" stroke="#FFC9C9" stroke-width="3" stroke-miterlimit="1.5" stroke-linecap="round" stroke-linejoin="round"/>
<path fill-rule="evenodd" clip-rule="evenodd" d="M494.239 66.3236C497.785 67.3205 501.466 65.2552 502.462 61.7134C503.457 58.1716 501.388 54.4897 497.846 53.4941C494.304 52.4984 490.623 54.5636 489.628 58.1055C488.982 60.4022 489.613 62.8717 491.285 64.5764" fill="#FFE2CA"/>
<path d="M494.239 66.3236C497.785 67.3205 501.466 65.2552 502.462 61.7134C503.457 58.1716 501.388 54.4897 497.846 53.494C494.304 52.4984 490.623 54.5637 489.628 58.1055C488.982 60.4022 489.613 62.8717 491.285 64.5764" stroke="#FFC9C9" stroke-width="3" stroke-miterlimit="1.5" stroke-linecap="round" stroke-linejoin="round"/>
<path fill-rule="evenodd" clip-rule="evenodd" d="M465.267 62.5271C464.963 66.6572 468.063 70.2495 472.189 70.5529C476.314 70.8563 479.906 67.7513 480.21 63.6261C480.513 59.5009 477.413 55.9085 473.288 55.6051C470.613 55.4084 468.034 56.6569 466.53 58.8812" fill="#FFE2CA"/>
<path d="M465.267 62.5271C464.963 66.6572 468.063 70.2495 472.189 70.5529C476.314 70.8563 479.906 67.7513 480.21 63.6261C480.513 59.5009 477.413 55.9085 473.288 55.6051C470.613 55.4083 468.034 56.6569 466.53 58.8812" stroke="#FFC9C9" stroke-width="3" stroke-miterlimit="1.5" stroke-linecap="round" stroke-linejoin="round"/>
<path fill-rule="evenodd" clip-rule="evenodd" d="M454.094 26.2969C454.699 30.3277 458.455 33.1032 462.481 32.499C466.507 31.8947 469.282 28.134 468.678 24.1081C468.073 20.0821 464.318 17.3064 460.292 17.9107C457.681 18.3025 455.476 20.0611 454.516 22.5227" fill="#FFE2CA"/>
<path d="M454.094 26.2969C454.699 30.3277 458.455 33.1032 462.481 32.499C466.507 31.8947 469.282 28.134 468.678 24.1081C468.073 20.0821 464.318 17.3064 460.292 17.9107C457.681 18.3025 455.476 20.0611 454.516 22.5227" stroke="#FFC9C9" stroke-width="3" stroke-miterlimit="1.5" stroke-linecap="round" stroke-linejoin="round"/>
<path d="M617.674 38.4252C614.305 38.4741 610.583 38.523 607.738 40.3371C602.882 43.4384 599.134 48.0829 595.513 52.5617" stroke="#FFC9C9" stroke-width="3" stroke-miterlimit="1.5" stroke-linecap="round" stroke-linejoin="round"/>
<path d="M562.533 125.788C566.312 122.908 570.496 119.715 575.228 119.305C581.461 118.762 587.715 120.992 593.602 123.089" stroke="#FFC9C9" stroke-width="3" stroke-miterlimit="1.5" stroke-linecap="round" stroke-linejoin="round"/>
<path fill-rule="evenodd" clip-rule="evenodd" d="M458.821 531.167C463.183 521.864 473.947 516.917 479.39 508.205C480.349 506.672 475.563 504.377 475.563 504.377C475.563 504.377 480.818 491.385 479.869 484.757C479.533 482.386 472.695 484.277 472.695 484.277C472.695 484.277 472.37 464.26 468.868 455.095C467.765 452.216 462.863 450.104 460.254 451.742C455.716 454.598 452.121 465.622 452.121 465.622C452.121 465.622 446.601 463.67 445.9 465.622C442.564 474.869 441.593 494.804 441.593 494.804C441.593 494.804 436.355 464.116 429.632 450.308C428.177 447.325 423.892 458.442 423.892 458.442C423.892 458.442 411.594 445.599 403.797 441.694C401.795 440.696 403.797 448.394 403.797 448.394C403.797 448.394 390.347 434.895 387.529 440.261C383.195 448.516 393.749 467.535 393.749 467.535C393.749 467.535 380.349 457.102 380.829 461.789C381.8 471.263 395.663 486.191 395.663 486.191C395.663 486.191 383.333 483.257 385.616 485.716C391.604 492.168 400.758 494.727 408.098 499.591C413.524 503.186 423.892 511.072 423.892 511.072C423.892 511.072 409.46 504.107 397.097 510.592C390.435 514.094 379.092 506.467 374.608 512.511C371.173 517.138 383.283 520.397 386.09 525.426C390.474 533.273 394.279 527.996 400.924 534.04C416.795 548.471 420.285 535.374 441.114 539.301C448.443 540.685 450.014 544.936 454.293 551.041" fill="#FFE2CA"/>
<path d="M458.821 531.167C463.183 521.864 473.947 516.917 479.39 508.205C480.349 506.672 475.563 504.377 475.563 504.377C475.563 504.377 480.818 491.385 479.87 484.757C479.533 482.386 472.695 484.277 472.695 484.277C472.695 484.277 472.37 464.26 468.868 455.095C467.765 452.216 462.863 450.104 460.254 451.742C455.716 454.598 452.121 465.622 452.121 465.622C452.121 465.622 446.601 463.67 445.9 465.622C442.564 474.869 441.593 494.804 441.593 494.804C441.593 494.804 436.355 464.116 429.632 450.308C428.177 447.325 423.892 458.442 423.892 458.442C423.892 458.442 411.594 445.599 403.797 441.694C401.795 440.696 403.797 448.394 403.797 448.394C403.797 448.394 390.347 434.895 387.529 440.261C383.195 448.516 393.749 467.535 393.749 467.535C393.749 467.535 380.349 457.102 380.829 461.789C381.8 471.263 395.663 486.191 395.663 486.191C395.663 486.191 383.333 483.257 385.616 485.716C391.604 492.168 400.758 494.727 408.098 499.591C413.524 503.186 423.892 511.072 423.892 511.072C423.892 511.072 409.46 504.107 397.097 510.592C390.435 514.094 379.092 506.467 374.608 512.511C371.173 517.138 383.283 520.397 386.09 525.426C390.474 533.273 394.279 527.996 400.924 534.04C416.795 548.471 420.285 535.374 441.114 539.301C448.443 540.685 450.014 544.936 454.293 551.041" stroke="#FFC9C9" stroke-width="3" stroke-miterlimit="1.5" stroke-linecap="round" stroke-linejoin="round"/>
<path d="M462.013 561.725C461.505 554.678 451.37 539.684 450.322 538.768C451.155 535.156 417.257 521.056 398.375 522.015" stroke="#FFC9C9" stroke-width="3" stroke-miterlimit="1.5" stroke-linecap="round" stroke-linejoin="round"/>
<path d="M450.516 538.896C448.542 536.354 446.656 530.04 446.656 530.04C448.493 530.564 458.099 495.735 461.341 477.906" stroke="#FFC9C9" stroke-width="3" stroke-miterlimit="1.5" stroke-linecap="round" stroke-linejoin="round"/>
<path d="M446.49 530.139C436.619 508.522 423.047 488.289 408.219 468.531" stroke="#FFC9C9" stroke-width="3" stroke-miterlimit="1.5" stroke-linecap="round" stroke-linejoin="round"/>
<path d="M243.775 431.549C242.496 443.9 241.145 456.926 235.11 467.774C227.748 481.015 214.236 489.794 204.791 501.641C181.759 530.533 184.469 535.864 148.876 546.137C142.741 547.906 135.279 544.325 132.426 538.609C127.722 529.206 127.665 521.254 131.551 511.486C139.317 491.953 177.388 449.383 192.583 437.455C202.237 429.879 213.732 424.71 225.265 420.524C228.975 419.178 233.265 420.305 237.079 421.309" stroke="#FFC9C9" stroke-width="3" stroke-miterlimit="1.5" stroke-linecap="round" stroke-linejoin="round"/>
<path fill-rule="evenodd" clip-rule="evenodd" d="M243.775 431.549C242.496 443.9 241.145 456.926 235.11 467.774C227.748 481.015 214.236 489.794 204.791 501.641C181.759 530.533 184.469 535.864 148.876 546.137C142.741 547.906 135.279 544.325 132.426 538.609C127.722 529.206 127.665 521.254 131.551 511.486C139.317 491.953 177.388 449.383 192.583 437.455C202.237 429.879 213.732 424.71 225.265 420.524C228.975 419.178 233.265 420.305 237.079 421.309" fill="#FFE2CA"/>
<path d="M243.775 431.549C242.496 443.9 241.145 456.926 235.11 467.774C227.748 481.015 214.236 489.794 204.791 501.641C181.759 530.533 184.469 535.864 148.876 546.137C142.741 547.906 135.279 544.325 132.426 538.609C127.722 529.206 127.665 521.254 131.551 511.486C139.317 491.953 177.388 449.383 192.583 437.455C202.237 429.879 213.732 424.71 225.265 420.524C228.975 419.178 233.265 420.305 237.079 421.309" stroke="#FFC9C9" stroke-width="3" stroke-miterlimit="1.5" stroke-linecap="round" stroke-linejoin="round"/>
<path d="M129.207 555.844C127.713 557.989 124.256 562.959 126.843 563.325C151.631 566.825 177.312 561.327 201.881 566.107C213.995 568.466 222.831 579.352 234.174 584.222C252.441 592.069 271.717 597.41 290.873 602.727C296.633 604.33 302.673 606.29 308.594 605.486C316.617 604.397 324.146 600.749 331.432 597.215" stroke="#FFC9C9" stroke-width="3" stroke-miterlimit="1.5" stroke-linecap="round" stroke-linejoin="round"/>
<path d="M114.682 539.174C112.57 539.103 108.613 538.96 108.784 536.858C109.669 525.877 113.764 515.342 117.445 504.96C118.539 501.878 143.098 453.354 138.708 438.805C133.605 421.889 124.412 406.156 113.902 391.95C109.807 386.41 102.858 383.009 96.1812 381.316C91.7677 380.198 86.9785 382.267 82.7933 384.074" stroke="#FFC9C9" stroke-width="3" stroke-miterlimit="1.5" stroke-linecap="round" stroke-linejoin="round"/>
<path d="M119.088 546C117.238 548.012 115.159 550.276 112.491 550.865C110.77 551.246 109.067 549.691 107.764 548.502" stroke="#FFC9C9" stroke-width="3" stroke-miterlimit="1.5" stroke-linecap="round" stroke-linejoin="round"/>
<path d="M126.119 552.562C124.526 555.473 122.899 558.445 120.607 560.833C119.503 561.979 117.81 562.412 116.274 562.802" stroke="#FFC9C9" stroke-width="3" stroke-miterlimit="1.5" stroke-linecap="round" stroke-linejoin="round"/>
<path d="M114.869 556.312C111.53 561.335 107.811 566.918 102.271 569.305C98.2473 571.037 93.325 569.006 89.2777 567.336" stroke="#FFC9C9" stroke-width="3" stroke-miterlimit="1.5" stroke-linecap="round" stroke-linejoin="round"/>
<path d="M133.623 546.938C133.112 546.938 132.618 547.036 132.149 547.236C129.425 548.38 129.057 552.22 131.505 553.869C131.914 554.144 132.377 554.341 132.859 554.439C135.808 555.035 138.303 551.988 137.101 549.217" stroke="#FFC9C9" stroke-width="3" stroke-miterlimit="1.5" stroke-linecap="round" stroke-linejoin="round"/>
<path d="M125.151 534.752C124.709 534.497 124.232 534.334 123.725 534.273C120.794 533.902 118.556 537.044 119.851 539.695C120.068 540.139 120.37 540.54 120.738 540.867C122.994 542.857 126.679 541.466 127.023 538.465" stroke="#FFC9C9" stroke-width="3" stroke-miterlimit="1.5" stroke-linecap="round" stroke-linejoin="round"/>
<path fill-rule="evenodd" clip-rule="evenodd" d="M217.42 493.169C216.426 495.694 215.223 498.738 216.293 501.23C217.315 503.618 220.483 506.857 222.742 505.587C227.455 502.942 230.047 497.354 232.097 492.361C234.498 486.53 235.159 480.086 235.806 473.812" fill="#FFE2CA"/>
<path d="M217.42 493.169C216.426 495.694 215.223 498.738 216.293 501.23C217.315 503.618 220.483 506.857 222.742 505.587C227.455 502.942 230.047 497.354 232.097 492.361C234.498 486.53 235.159 480.086 235.806 473.812" stroke="#FFC9C9" stroke-width="3" stroke-miterlimit="1.5" stroke-linecap="round" stroke-linejoin="round"/>
<path fill-rule="evenodd" clip-rule="evenodd" d="M167.615 457.982C166.322 456.023 164.767 453.673 165.195 451.367C165.784 448.228 168.148 445.607 170.359 443.301C171.957 441.631 174.045 440.162 176.323 439.753C179.096 439.258 181.988 440.01 184.713 440.723" fill="#FFE2CA"/>
<path d="M167.615 457.982C166.322 456.023 164.767 453.673 165.195 451.367C165.784 448.228 168.148 445.607 170.359 443.301C171.957 441.631 174.045 440.162 176.323 439.753C179.096 439.258 181.988 440.01 184.713 440.723" stroke="#FFC9C9" stroke-width="3" stroke-miterlimit="1.5" stroke-linecap="round" stroke-linejoin="round"/>
<path d="M149.469 550.417C145.674 556.253 141.841 562.15 139.135 568.561C138.155 570.892 138.631 576.123 138.631 576.123C138.631 576.123 131.273 574.801 129.813 577.383C128.534 579.633 134.346 583.685 134.346 583.685C134.346 583.685 106.086 575.952 92.0087 595.779C89.1933 599.745 92.4417 606.285 89.4883 610.147C87.272 613.043 82.4114 611.916 78.9063 612.915C73.5892 614.436 68.2246 615.825 63.0265 617.704C60.3061 618.688 58.052 620.905 55.2175 621.485C51.3462 622.279 43.3705 621.737 43.3705 621.737C43.3705 621.737 42.5951 627.767 44.3786 629.803C51.0701 637.431 61.0339 636.713 69.8323 637.108C76.3811 637.407 83.1297 639.205 89.4883 637.612C95.0526 636.223 99.0522 631.249 104.108 628.543C126.175 616.719 125.566 616.015 143.924 599.056C149.322 594.072 156.741 591.137 161.059 585.197C162.172 583.671 169.163 557.656 169.629 554.45C170.281 549.956 170.21 545.381 170.133 540.844" stroke="#FFC9C9" stroke-width="3" stroke-miterlimit="1.5" stroke-linecap="round" stroke-linejoin="round"/>
<path fill-rule="evenodd" clip-rule="evenodd" d="M149.469 550.417C145.674 556.253 141.841 562.15 139.135 568.561C138.155 570.892 138.631 576.123 138.631 576.123C138.631 576.123 131.273 574.801 129.813 577.383C128.534 579.633 134.346 583.685 134.346 583.685C134.346 583.685 106.086 575.952 92.0087 595.779C89.1932 599.745 92.4417 606.285 89.4883 610.147C87.272 613.043 82.4114 611.916 78.9063 612.915C73.5892 614.436 68.2246 615.825 63.0265 617.704C60.3061 618.688 58.052 620.905 55.2175 621.485C51.3462 622.279 43.3705 621.737 43.3705 621.737C43.3705 621.737 42.5951 627.767 44.3786 629.803C51.0701 637.431 61.0339 636.713 69.8323 637.108C76.3811 637.407 83.1297 639.205 89.4883 637.612C95.0526 636.223 99.0522 631.249 104.108 628.543C126.175 616.719 125.566 616.015 143.924 599.056C149.322 594.072 156.741 591.137 161.059 585.197C162.172 583.671 169.163 557.656 169.629 554.45C170.281 549.956 170.21 545.381 170.133 540.844" fill="#FFE2CA"/>
<path d="M149.469 550.417C145.674 556.253 141.841 562.15 139.135 568.561C138.155 570.892 138.631 576.123 138.631 576.123C138.631 576.123 131.273 574.801 129.813 577.383C128.534 579.633 134.346 583.685 134.346 583.685C134.346 583.685 106.086 575.952 92.0087 595.779C89.1933 599.745 92.4417 606.285 89.4883 610.147C87.272 613.043 82.4114 611.916 78.9063 612.915C73.5892 614.436 68.2246 615.825 63.0265 617.704C60.3061 618.688 58.052 620.905 55.2175 621.485C51.3462 622.279 43.3705 621.737 43.3705 621.737C43.3705 621.737 42.5951 627.767 44.3786 629.803C51.0701 637.431 61.0339 636.713 69.8323 637.108C76.3811 637.407 83.1297 639.205 89.4883 637.612C95.0526 636.223 99.0522 631.249 104.108 628.543C126.175 616.719 125.566 616.015 143.924 599.056C149.322 594.072 156.741 591.137 161.059 585.197C162.172 583.671 169.163 557.656 169.629 554.45C170.281 549.956 170.21 545.381 170.133 540.844" stroke="#FFC9C9" stroke-width="3" stroke-miterlimit="1.5" stroke-linecap="round" stroke-linejoin="round"/>
<path d="M119.278 532.653C112.743 533.281 106.185 533.914 99.6215 533.914C96.4588 533.914 84.1221 530.456 81.4778 532.653C78.5101 535.117 79.4519 540.096 78.2011 543.739C76.3226 549.213 72.0993 562.929 66.1022 566.924C56.8282 573.112 45.6185 561.722 37.1245 567.429C33.3531 569.963 31.893 574.938 28.5544 578.015C25.4345 580.888 21.5064 582.733 17.968 585.073C17.8777 585.135 4.36135 587.09 4.36135 587.09C-6.90057 579.204 23.6463 523.284 63.5814 521.563C68.713 521.344 73.331 517.896 78.4531 517.535C80.7074 517.373 82.5147 520.369 84.7547 520.05C96.1688 518.448 92.9775 511.979 103.907 508.712C111.212 506.524 118.969 506.101 126.588 505.688" stroke="#FFC9C9" stroke-width="3" stroke-miterlimit="1.5" stroke-linecap="round" stroke-linejoin="round"/>
<path fill-rule="evenodd" clip-rule="evenodd" d="M119.278 532.653C112.743 533.281 106.185 533.914 99.6215 533.914C96.4588 533.914 84.1221 530.456 81.4778 532.653C78.5101 535.117 79.4519 540.096 78.2011 543.739C76.3226 549.213 72.0993 562.929 66.1022 566.924C56.8282 573.112 45.6185 561.722 37.1245 567.429C33.3531 569.963 31.893 574.938 28.5544 578.015C25.4345 580.888 21.5064 582.733 17.968 585.073C17.8777 585.135 4.36135 587.09 4.36135 587.09C-6.90058 579.204 23.6463 523.284 63.5814 521.563C68.713 521.344 73.331 517.896 78.4531 517.535C80.7074 517.373 82.5147 520.369 84.7547 520.05C96.1688 518.448 92.9775 511.979 103.907 508.712C111.212 506.524 118.969 506.101 126.588 505.688" fill="#FFE2CA"/>
<path d="M119.278 532.653C112.743 533.281 106.185 533.914 99.6215 533.914C96.4588 533.914 84.1221 530.456 81.4778 532.653C78.5101 535.117 79.4519 540.096 78.2011 543.739C76.3226 549.213 72.0993 562.929 66.1022 566.924C56.8282 573.112 45.6185 561.722 37.1245 567.429C33.3531 569.963 31.893 574.938 28.5544 578.015C25.4345 580.888 21.5064 582.733 17.968 585.073C17.8777 585.135 4.36135 587.09 4.36135 587.09C-6.90057 579.204 23.6463 523.284 63.5814 521.563C68.713 521.344 73.331 517.896 78.4531 517.535C80.7074 517.373 82.5147 520.369 84.7547 520.05C96.1688 518.448 92.9775 511.979 103.907 508.712C111.212 506.524 118.969 506.101 126.588 505.688" stroke="#FFC9C9" stroke-width="3" stroke-miterlimit="1.5" stroke-linecap="round" stroke-linejoin="round"/>
<path fill-rule="evenodd" clip-rule="evenodd" d="M60.494 574.04C56.6037 577.288 52.7135 580.536 48.8993 583.87C39.4922 592.083 39.4065 594.837 27.2268 597.728C24.3637 598.409 21.2915 598.556 18.4047 597.981C16.8733 597.676 14.6285 595.208 14.6285 595.208C14.6285 595.208 19.27 593.843 21.1771 592.435C26.0614 588.835 30.5462 584.683 34.7884 580.341C37.3804 577.682 38.1083 572.808 41.5896 571.519C45.8651 569.94 50.8397 571.452 55.2009 572.779" fill="#FFE2CA"/>
<path d="M60.494 574.04C56.6037 577.288 52.7135 580.536 48.8993 583.87C39.4922 592.083 39.4065 594.837 27.2268 597.728C24.3637 598.409 21.2915 598.556 18.4047 597.981C16.8733 597.676 14.6285 595.208 14.6285 595.208C14.6285 595.208 19.27 593.843 21.1771 592.435C26.0614 588.835 30.5462 584.683 34.7884 580.341C37.3804 577.682 38.1083 572.808 41.5896 571.519C45.8651 569.94 50.8397 571.452 55.2009 572.779" stroke="#FFC9C9" stroke-width="3" stroke-miterlimit="1.5" stroke-linecap="round" stroke-linejoin="round"/>
<path fill-rule="evenodd" clip-rule="evenodd" d="M88.6188 594.281C82.6977 595.313 76.7435 596.35 70.9794 598.062C65.22 599.775 44.2705 606.371 41.9972 615.198C41.1887 618.341 48.3461 613.771 51.5754 613.433C66.7989 611.84 68.2162 615.502 85.5941 606.633C87.5155 605.653 87.7152 602.733 87.8626 600.583" fill="#FFE2CA"/>
<path d="M88.6188 594.281C82.6977 595.313 76.7435 596.35 70.9794 598.062C65.22 599.775 44.2705 606.371 41.9972 615.198C41.1887 618.341 48.3461 613.771 51.5754 613.433C66.7989 611.84 68.2162 615.502 85.5941 606.633C87.5155 605.653 87.7152 602.733 87.8626 600.583" stroke="#FFC9C9" stroke-width="3" stroke-miterlimit="1.5" stroke-linecap="round" stroke-linejoin="round"/>
<path d="M208.15 503.812C207.056 509.724 205.939 515.769 203.361 521.205C198.905 530.602 192.384 538.877 187.234 547.918C183.139 555.1 180.39 563.076 175.639 569.843C173.546 572.825 170.213 574.794 167.074 576.644" stroke="#FFC9C9" stroke-width="3" stroke-miterlimit="1.5" stroke-linecap="round" stroke-linejoin="round"/>
<path d="M176.744 539.438C176.463 541.892 176.178 544.374 175.483 546.747C174.989 548.44 174.095 550.001 173.215 551.532" stroke="#FFC9C9" stroke-width="3" stroke-miterlimit="1.5" stroke-linecap="round" stroke-linejoin="round"/>
<path d="M137.369 494.906C134.411 495.016 131.4 495.125 128.547 495.915C126.445 496.495 124.847 498.34 122.749 498.939C117.979 500.29 112.909 500.371 108.135 501.707C104.468 502.734 100.996 504.37 97.5525 505.992" stroke="#FFC9C9" stroke-width="3" stroke-miterlimit="1.5" stroke-linecap="round" stroke-linejoin="round"/>
<path d="M86.7719 511.803C88.4649 508.274 90.3246 504.408 93.5777 502.225C97.5916 499.533 103.113 500.104 107.436 497.945C115.298 494.011 121.904 487.805 129.865 484.081C136.224 481.109 143.177 479.558 150.025 478.031" stroke="#FFC9C9" stroke-width="3" stroke-miterlimit="1.5" stroke-linecap="round" stroke-linejoin="round"/>
<path d="M155.181 471.968C150.715 471.159 145.779 470.27 141.575 471.968C134.465 474.831 128.463 480.043 122.67 485.07" stroke="#FFC9C9" stroke-width="3" stroke-miterlimit="1.5" stroke-linecap="round" stroke-linejoin="round"/>
<path d="M107.489 493.051C113.301 485.974 119.17 478.826 126.137 472.891C130.636 469.058 135.777 465.491 141.513 464.069C148.361 462.371 155.657 463.108 162.681 463.816" stroke="#FFC9C9" stroke-width="3" stroke-miterlimit="1.5" stroke-linecap="round" stroke-linejoin="round"/>
<path d="M232.994 457.296C229.708 456.972 226.155 456.615 223.416 454.775C219.516 452.159 215.787 448.716 213.842 444.445C212.13 440.693 212.629 436.194 213.086 432.094" stroke="#FFC9C9" stroke-width="3" stroke-miterlimit="1.5" stroke-linecap="round" stroke-linejoin="round"/>
<path d="M225.963 471.065C221.706 470.266 217.221 469.425 213.616 467.033C208.766 463.813 204.509 459.518 201.266 454.681C199.064 451.395 198.379 447.248 197.737 443.344" stroke="#FFC9C9" stroke-width="3" stroke-miterlimit="1.5" stroke-linecap="round" stroke-linejoin="round"/>
<path d="M212.369 483.107C208.531 483.631 204.165 484.225 200.774 482.351C195.576 479.483 191.448 474.709 188.176 469.753C185.094 465.092 183.586 459.518 182.126 454.125" stroke="#FFC9C9" stroke-width="3" stroke-miterlimit="1.5" stroke-linecap="round" stroke-linejoin="round"/>
<path d="M202.525 495.914C197.817 496.285 192.671 496.694 188.415 494.654C183.754 492.419 180.739 487.696 177.324 483.815C173.914 479.944 170.951 475.697 168.003 471.469" stroke="#FFC9C9" stroke-width="3" stroke-miterlimit="1.5" stroke-linecap="round" stroke-linejoin="round"/>
<path d="M191.744 509.512C186.941 510.378 181.899 511.282 177.124 510.269C173.22 509.441 169.581 507.077 166.795 504.219C162.281 499.601 158.962 493.918 155.704 488.344" stroke="#FFC9C9" stroke-width="3" stroke-miterlimit="1.5" stroke-linecap="round" stroke-linejoin="round"/>
<path d="M173.463 525.193C168.055 523.918 162.391 522.587 157.84 519.4C153.678 516.49 151.053 511.796 148.261 507.554C146.977 505.599 146.35 503.264 145.741 501" stroke="#FFC9C9" stroke-width="3" stroke-miterlimit="1.5" stroke-linecap="round" stroke-linejoin="round"/>
<path d="M158.931 535.218C155.802 533.744 152.63 532.246 149.857 530.177C147.289 528.26 144.792 526.073 143.056 523.376C140.773 519.833 139.38 515.767 138.015 511.781" stroke="#FFC9C9" stroke-width="3" stroke-miterlimit="1.5" stroke-linecap="round" stroke-linejoin="round"/>
<path d="M155.65 584.676C154.38 581.979 153.044 579.145 150.861 577.114C149.263 575.626 146.942 575.088 144.816 574.594" stroke="#FFC9C9" stroke-width="3" stroke-miterlimit="1.5" stroke-linecap="round" stroke-linejoin="round"/>
<path d="M144.869 592.368C144.094 590.394 143.19 588.112 141.345 587.075C140.008 586.324 138.192 587.175 136.808 587.831" stroke="#FFC9C9" stroke-width="3" stroke-miterlimit="1.5" stroke-linecap="round" stroke-linejoin="round"/>
<path d="M105.927 514.594C107.644 517.014 109.541 519.692 109.708 522.66C109.822 524.686 108.091 526.483 106.683 527.948" stroke="#FFC9C9" stroke-width="3" stroke-miterlimit="1.5" stroke-linecap="round" stroke-linejoin="round"/>
<path d="M93.4655 521.625C94.7448 522.695 96.1286 523.851 96.7421 525.401C97.2938 526.809 97.0037 528.449 96.7421 529.938" stroke="#FFC9C9" stroke-width="3" stroke-miterlimit="1.5" stroke-linecap="round" stroke-linejoin="round"/>
<path d="M127.057 591.655C124.241 590.814 120.665 589.744 118.239 591.404C111.319 596.126 105.218 602.399 100.847 609.547C97.5892 614.883 96.7995 621.48 96.0624 627.691" stroke="#FFC9C9" stroke-width="3" stroke-miterlimit="1.5" stroke-linecap="round" stroke-linejoin="round"/>
<path d="M60.0253 534.281C56.5107 540.036 52.9913 545.791 49.6955 551.669C48.3686 554.028 48.7348 558.132 46.1666 558.979C40.4976 560.843 34.1485 559.744 28.2703 558.727" stroke="#FFC9C9" stroke-width="3" stroke-miterlimit="1.5" stroke-linecap="round" stroke-linejoin="round"/>
<path fill-rule="evenodd" clip-rule="evenodd" d="M1019.04 519.708C1020.85 517.711 1026.67 527.341 1031.38 529.809C1037.08 532.797 1043.29 535.668 1049.72 535.796C1056.19 535.925 1062.98 527.039 1068.42 530.559C1072.55 533.228 1065.58 540.251 1062.44 544.028C1059.17 547.94 1038.58 569.853 1027.27 561.236C1021.81 557.078 1022.39 548.387 1020.53 541.784C1019.51 538.13 1017.23 521.706 1019.04 519.708Z" fill="#FFE2CA" stroke="#FFC9C9" stroke-width="3" stroke-miterlimit="1.5" stroke-linecap="round" stroke-linejoin="round"/>
<path d="M1091.37 525.531C1088.85 528.799 1086.13 532.319 1085.38 536.382C1081.87 555.536 1091.94 565.15 1072.66 577.159C1068.73 579.61 1063.36 577.388 1058.82 578.284C1049.98 580.018 1041.51 586.577 1032.64 585.016C1022.33 583.202 1013.63 575.738 1005.7 568.927" stroke="#FFC9C9" stroke-width="3" stroke-miterlimit="1.5" stroke-linecap="round" stroke-linejoin="round"/>
<path d="M1078.87 540.531C1079.25 546.636 1079.65 552.943 1078.12 558.863C1076.95 563.357 1074.92 568.326 1071.01 570.839C1067.1 573.346 1061.71 571.393 1057.17 572.333C1049.58 573.894 1042.35 579.652 1034.72 578.32C1026.06 576.804 1018.82 570.335 1012.27 564.476" stroke="#FFC9C9" stroke-width="3" stroke-miterlimit="1.5" stroke-linecap="round" stroke-linejoin="round"/>
<path d="M893.148 555.795C896.634 565.411 900.195 575.244 901.089 585.432C901.613 591.433 901.647 598.932 897.3 603.098C889.116 610.951 861.506 610.197 852.892 606.48C846.189 603.584 841.208 597.514 836.58 591.872" stroke="#FFC9C9" stroke-width="3" stroke-miterlimit="1.5" stroke-linecap="round" stroke-linejoin="round"/>
<path d="M936.791 437.714C955.917 427.753 976.605 416.976 998.172 417.255C1024.56 417.591 1054.08 422.348 1074.16 439.465C1093.74 456.152 1094.66 470.864 1096.78 482.073C1100.11 499.616 1096.22 511.977 1093.45 535.922C1092.32 545.793 1095.03 552.794 1091.65 562.144C1082.8 586.604 1075.95 582.743 1058.97 585.608C1049.5 587.208 1040.34 593.812 1030.91 592.038C1019.41 589.883 992.313 569.24 987.064 556.381C985.71 553.062 990.047 549.85 991.155 546.442C992.587 542.038 991.753 536.605 994.663 533.001C1001.96 523.952 1006.96 521.238 1005.95 512.134C1005.46 507.685 1006.26 500.796 999.923 492.666C989.252 478.978 970.495 474.261 956.08 464.602C950.999 461.2 946.225 457.344 941.469 453.494" stroke="#FFC9C9" stroke-width="3" stroke-miterlimit="1.5" stroke-linecap="round" stroke-linejoin="round"/>
<path fill-rule="evenodd" clip-rule="evenodd" d="M1005.23 455.032C1011.09 468.059 1017.01 481.22 1020.57 495.059C1021.84 500.028 1017.61 505.613 1019.45 510.403C1023.7 521.461 1038.33 529.966 1049.75 529.854C1056.66 529.787 1064.87 528.914 1069.58 523.867C1074.8 518.271 1075.35 509.429 1075.94 501.797C1078.1 474.035 1075.83 464.477 1050.87 449.419C1041.78 443.935 1020.59 443.622 1010.84 447.544C1007.95 448.714 1006.46 452.167 1005.23 455.032Z" fill="#FFE2CA" stroke="#FFC9C9" stroke-width="3" stroke-miterlimit="1.5" stroke-linecap="round" stroke-linejoin="round"/>
<path d="M973.16 457.094C974.133 459.209 975.18 461.503 975.034 463.826C974.911 465.667 973.585 467.273 972.416 468.688" stroke="#FFC9C9" stroke-width="3" stroke-miterlimit="1.5" stroke-linecap="round" stroke-linejoin="round"/>
<path d="M986.753 460.844C987.542 463.373 988.393 466.109 987.878 468.7C987.458 470.804 985.695 472.466 984.134 473.944" stroke="#FFC9C9" stroke-width="3" stroke-miterlimit="1.5" stroke-linecap="round" stroke-linejoin="round"/>
<path d="M996.222 474.906C997.313 476.691 998.645 478.874 998.097 480.894C997.683 482.399 995.512 482.83 993.978 483.138" stroke="#FFC9C9" stroke-width="3" stroke-miterlimit="1.5" stroke-linecap="round" stroke-linejoin="round"/>
<path d="M1005.88 485.688C1006.7 487.131 1007.83 489.107 1007 490.55C1006.31 491.748 1004.22 491.244 1002.88 490.925" stroke="#FFC9C9" stroke-width="3" stroke-miterlimit="1.5" stroke-linecap="round" stroke-linejoin="round"/>
<path fill-rule="evenodd" clip-rule="evenodd" d="M939.297 446.844C938.273 452.06 937.053 458.273 932.736 461.382C926.666 465.754 917.227 462.959 911.055 467.191C892.825 479.694 882.104 511.029 885.172 531.063C890.945 568.673 914.92 561.398 913.091 599.11C912.797 605.127 907.978 610.966 902.721 613.898C876.806 628.356 837.657 613.315 819.771 591.968C794.85 562.223 763.798 512.344 787.042 469.82C805.928 435.272 858.141 421.577 892.923 419.759C904.676 419.147 916.379 422.824 927.613 426.349" fill="#FFE2CA"/>
<path d="M939.297 446.844C938.273 452.06 937.053 458.273 932.736 461.382C926.666 465.754 917.227 462.959 911.055 467.191C892.825 479.694 882.104 511.029 885.172 531.063C890.945 568.673 914.92 561.398 913.091 599.11C912.797 605.127 907.978 610.966 902.721 613.898C876.806 628.356 837.657 613.315 819.771 591.968C794.85 562.223 763.798 512.344 787.042 469.82C805.928 435.272 858.141 421.577 892.923 419.759C904.676 419.147 916.379 422.824 927.613 426.349" stroke="#FFC9C9" stroke-width="3" stroke-miterlimit="1.5" stroke-linecap="round" stroke-linejoin="round"/>
<path d="M901.02 427.706C891.028 428.124 880.241 428.575 871.622 433.642C863.535 438.399 855.05 446.147 853.841 455.451C852.921 462.504 859.557 471.334 866.563 472.573C880.615 475.053 895.267 469.887 908.723 465.146" stroke="#FFC9C9" stroke-width="3" stroke-miterlimit="1.5" stroke-linecap="round" stroke-linejoin="round"/>
<path d="M850.284 436.475C838.442 446.85 825.623 458.076 820.134 472.831C817.418 480.123 822.726 489.534 828.666 494.558C835.41 500.266 845.484 503.139 854.195 501.662C866.52 499.576 877.393 491.832 887.576 484.584" stroke="#FFC9C9" stroke-width="3" stroke-miterlimit="1.5" stroke-linecap="round" stroke-linejoin="round"/>
<path d="M857.878 484.361C856.844 485.756 855.376 487.736 853.665 487.424C851.997 487.124 851.386 484.756 850.957 483.115" stroke="#FFC9C9" stroke-width="3" stroke-miterlimit="1.5" stroke-linecap="round" stroke-linejoin="round"/>
<path d="M845.528 486.315C843.971 486.581 842.112 486.906 840.8 486.029C839.542 485.184 839.197 483.377 838.919 481.887" stroke="#FFC9C9" stroke-width="3" stroke-miterlimit="1.5" stroke-linecap="round" stroke-linejoin="round"/>
<path d="M838.354 465.531C836.591 467.255 834.291 469.505 834.65 471.946C834.95 473.951 837.822 474.705 839.79 475.215" stroke="#FFC9C9" stroke-width="3" stroke-miterlimit="1.5" stroke-linecap="round" stroke-linejoin="round"/>
<path d="M883.183 504.814C876.583 512.399 869.875 520.118 861.759 526.046C850.646 534.168 822.829 541.465 811.47 530.616C801.341 520.944 798.404 504.902 797.733 490.917C797.267 481.199 803.08 471.931 808.254 463.697" stroke="#FFC9C9" stroke-width="3" stroke-miterlimit="1.5" stroke-linecap="round" stroke-linejoin="round"/>
<path d="M791.484 515.785C796.919 525.991 802.409 536.298 809.502 545.428C815.731 553.457 847.207 592.441 866.92 576.134C878.34 566.69 878.752 548.186 879.087 533.37" stroke="#FFC9C9" stroke-width="3" stroke-miterlimit="1.5" stroke-linecap="round" stroke-linejoin="round"/>
<path d="M956.478 436.469C959.231 437.857 962.986 439.748 963.21 442.826C963.467 446.346 960.183 449.401 957.597 451.807" stroke="#FFC9C9" stroke-width="3" stroke-miterlimit="1.5" stroke-linecap="round" stroke-linejoin="round"/>
<path d="M964.447 433.188C967.732 435.784 971.929 439.097 971.929 443.288C971.929 447.681 967.771 451.268 964.447 454.138" stroke="#FFC9C9" stroke-width="3" stroke-miterlimit="1.5" stroke-linecap="round" stroke-linejoin="round"/>
<path d="M976.072 431.312C978.501 434.077 981.377 437.356 981.309 441.038C981.237 445.112 978.277 448.733 975.697 451.889" stroke="#FFC9C9" stroke-width="3" stroke-miterlimit="1.5" stroke-linecap="round" stroke-linejoin="round"/>
<path d="M1030.77 456.213L1028.2 452.581L1031.19 451.938L1036.11 453.006" stroke="#FFC9C9" stroke-width="3" stroke-miterlimit="1.5" stroke-linecap="round" stroke-linejoin="round"/>
<path d="M1026.75 467.85L1026.32 464.644L1028.25 462.719L1032.31 465.713L1029.74 469.35" stroke="#FFC9C9" stroke-width="3" stroke-miterlimit="1.5" stroke-linecap="round" stroke-linejoin="round"/>
<path d="M1042.31 464.619L1040.38 460.769L1042.31 457.562L1047.22 461.838L1044.87 465.688" stroke="#FFC9C9" stroke-width="3" stroke-miterlimit="1.5" stroke-linecap="round" stroke-linejoin="round"/>
</svg>
