<svg width="1121" height="828" viewBox="0 0 1121 828" fill="none" xmlns="http://www.w3.org/2000/svg">
<path d="M119.754 58.4293C116.453 61.3454 112.561 64.7894 108.159 64.7524C102.257 64.7107 95.2443 62.9426 91.7125 58.2166C88.1576 53.4674 87.7087 45.9685 90.0231 40.5065C92.9114 33.693 109.2 -4.55007 129.877 2.97636C141.014 7.03119 150.67 14.6225 159.816 22.1628C162.95 24.7457 165.792 28.6429 165.931 32.707C166.102 37.7941 163.422 42.7656 160.658 47.0426C158.89 49.7829 156.053 52.301 152.859 52.949C150.156 53.4952 145.101 47.4499 145.055 50.204C144.962 55.99 150.591 60.4011 152.646 65.8076C154.405 70.4271 155.664 75.2643 156.442 80.1477C156.942 83.2675 158.303 87.0771 156.442 89.6322C150.239 98.1769 139.704 100.815 130.928 94.6961C127.285 92.1502 125.225 87.7574 123.336 83.7303" stroke="#FFC9C9" stroke-width="3" stroke-miterlimit="1.5" stroke-linecap="round" stroke-linejoin="round"/>
<path fill-rule="evenodd" clip-rule="evenodd" d="M123.087 78.6996C123.74 71.1315 124.397 63.4891 123.721 55.9256C122.994 47.8298 119.227 42.2289 110.858 40.5348C106.604 39.6738 101.471 44.7193 100.313 48.1261C99.7025 49.9267 99.5404 52.3385 100.739 53.8197C106.914 61.448 108.414 55.3332 112.756 51.9218C113.82 51.0839 115.121 49.4362 116.338 50.0241C118.097 50.8758 118.759 53.2039 119.291 55.0832" fill="#FFE2CA"/>
<path d="M123.087 78.6996C123.74 71.1315 124.397 63.4891 123.721 55.9256C122.994 47.8298 119.227 42.2289 110.858 40.5348C106.604 39.6738 101.471 44.7193 100.313 48.1261C99.7025 49.9267 99.5404 52.3385 100.739 53.8197C106.914 61.448 108.414 55.3332 112.756 51.9217C113.82 51.0839 115.121 49.4362 116.338 50.0241C118.097 50.8758 118.759 53.2039 119.291 55.0832" stroke="#FFC9C9" stroke-width="3" stroke-miterlimit="1.5" stroke-linecap="round" stroke-linejoin="round"/>
<path fill-rule="evenodd" clip-rule="evenodd" d="M147.029 59.6732C143.807 56.5673 140.576 53.443 137.753 49.976C136.54 48.4855 134.873 46.8283 135.008 44.9166C135.049 44.3241 141.766 37.6493 142.178 37.5335C145.247 36.6726 153.43 37.0569 155.462 41.121C156.485 43.1623 154.25 49.1704 150.824 48.4993C148.126 47.9716 146.473 44.9399 143.867 44.0696C142.636 43.6623 140.465 43.6807 140.072 44.9166C139.572 46.4719 141.081 48.1336 142.178 49.3417" fill="#FFE2CA"/>
<path d="M147.029 59.6732C143.807 56.5673 140.576 53.443 137.753 49.976C136.54 48.4855 134.873 46.8283 135.008 44.9166C135.049 44.3241 141.766 37.6493 142.178 37.5335C145.247 36.6726 153.43 37.0569 155.462 41.121C156.485 43.1623 154.25 49.1704 150.824 48.4993C148.126 47.9716 146.473 44.9399 143.867 44.0696C142.636 43.6623 140.465 43.6807 140.072 44.9166C139.572 46.4719 141.081 48.1336 142.178 49.3417" stroke="#FFC9C9" stroke-width="3" stroke-miterlimit="1.5" stroke-linecap="round" stroke-linejoin="round"/>
<path d="M45.1755 99.0128C44.2534 102.38 43.1677 106.355 40.2324 108.243C36.3004 110.778 30.8819 112.652 26.4869 111.052C22.0665 109.446 18.5115 104.668 17.6739 100.041C16.6298 94.2676 10.8207 61.8305 27.8022 57.8406C36.9492 55.6922 46.6501 56.5324 55.991 57.5601C59.1911 57.9118 62.7687 59.2619 64.6261 61.8968C66.9493 65.196 67.3312 69.6572 67.3564 73.6939C67.374 76.2793 66.5861 79.1817 64.7495 80.9987C63.194 82.5351 57.2161 80.7215 58.3817 82.5681C60.8336 86.4455 66.4824 86.9259 70.1937 89.6186C73.3667 91.9182 76.3028 94.5792 78.9397 97.48C80.6264 99.3318 83.1836 101.267 83.0594 103.77C82.6575 112.131 76.8168 118.457 68.3387 118.21C64.817 118.104 61.5429 116.086 58.5412 114.236" stroke="#FFC9C9" stroke-width="3" stroke-miterlimit="1.5" stroke-linecap="round" stroke-linejoin="round"/>
<path fill-rule="evenodd" clip-rule="evenodd" d="M56.4089 111.028C53.5544 105.726 50.6706 100.372 46.9371 95.6499C42.9387 90.5966 38.0071 88.5188 31.7212 91.0304C28.5262 92.3072 27.3136 97.8829 28.026 100.645C28.4029 102.104 29.343 103.774 30.7814 104.236C38.1899 106.613 36.5284 101.906 37.926 97.7576C38.2681 96.7395 38.415 95.0819 39.4776 94.9429C41.0141 94.7437 42.4643 96.0001 43.6336 97.0152" fill="#FFE2CA"/>
<path d="M56.4089 111.028C53.5544 105.726 50.6706 100.372 46.9371 95.6499C42.9387 90.5966 38.0071 88.5188 31.7212 91.0304C28.5262 92.3072 27.3136 97.8829 28.026 100.645C28.4029 102.104 29.343 103.774 30.7814 104.236C38.1899 106.613 36.5284 101.906 37.926 97.7576C38.2681 96.7395 38.415 95.0819 39.4776 94.9429C41.0141 94.7437 42.4643 96.0001 43.6336 97.0152" stroke="#FFC9C9" stroke-width="3" stroke-miterlimit="1.5" stroke-linecap="round" stroke-linejoin="round"/>
<path fill-rule="evenodd" clip-rule="evenodd" d="M63.6952 88.1142C60.2096 87.4538 56.71 86.7851 53.3315 85.7124C51.8799 85.2507 50.0549 84.8756 49.3136 83.5495C49.0838 83.1384 50.6387 75.7944 50.8616 75.5388C52.5229 73.6348 58.117 70.3349 61.2299 72.1475C62.795 73.0569 63.922 78.0125 61.3589 79.0552C59.34 79.8774 56.9273 78.5846 54.8211 79.1395C53.8276 79.4042 52.3959 80.3594 52.6718 81.3499C53.0158 82.5985 54.7384 83.045 55.9906 83.3697" fill="#FFE2CA"/>
<path d="M63.6952 88.1142C60.2096 87.4538 56.71 86.7851 53.3315 85.7124C51.8799 85.2507 50.0549 84.8756 49.3136 83.5495C49.0838 83.1384 50.6387 75.7944 50.8616 75.5388C52.5229 73.6348 58.117 70.3349 61.2299 72.1475C62.795 73.0569 63.922 78.0125 61.3589 79.0552C59.34 79.8774 56.9273 78.5846 54.8211 79.1395C53.8276 79.4042 52.3959 80.3594 52.6718 81.3499C53.0158 82.5985 54.7384 83.045 55.9906 83.3697" stroke="#FFC9C9" stroke-width="3" stroke-miterlimit="1.5" stroke-linecap="round" stroke-linejoin="round"/>
<path fill-rule="evenodd" clip-rule="evenodd" d="M819.802 185.32C816.502 183.361 814.617 180.526 817.225 177.462C820.871 173.18 834.195 165.972 839.389 164.626C865.757 157.809 893.046 153.256 920.275 153.159C995.635 152.892 993.049 172.198 1068.46 176.097C1086.02 177.005 1085.26 170.318 1102.87 173.078C1106.41 173.636 1112.56 167.483 1113.43 170.968C1114.88 176.784 1112.14 185.555 1106.49 187.564C1093.5 192.192 1078.92 187.615 1065.14 188.168C1051.44 188.721 1037.74 189.491 1024.1 190.887C1002.39 193.104 944.324 202.483 912.127 202.354C896.521 202.29 880.726 203.184 865.346 200.543C849.98 197.907 845.86 196.303 831.301 190.717" fill="#FFE2CA"/>
<path d="M819.802 185.32C816.502 183.361 814.617 180.526 817.225 177.462C820.871 173.18 834.195 165.972 839.389 164.626C865.757 157.809 893.046 153.256 920.275 153.159C995.635 152.892 993.049 172.198 1068.46 176.097C1086.02 177.005 1085.26 170.318 1102.87 173.078C1106.41 173.636 1112.56 167.483 1113.43 170.968C1114.88 176.784 1112.14 185.555 1106.49 187.564C1093.5 192.192 1078.92 187.615 1065.14 188.168C1051.44 188.721 1037.74 189.491 1024.1 190.887C1002.39 193.104 944.324 202.483 912.127 202.354C896.521 202.29 880.726 203.184 865.346 200.543C849.98 197.907 845.86 196.303 831.301 190.717" stroke="#FFC9C9" stroke-width="3" stroke-miterlimit="1.5" stroke-linecap="round" stroke-linejoin="round"/>
<path d="M836.351 160.669C833.756 158.111 830.065 154.47 831.217 151.014C832.318 147.714 837.526 148.009 840.877 147.087C854.054 143.473 867.129 138.883 880.716 137.431C905.941 134.74 931.418 133.873 956.772 134.717C989.145 135.786 1026.06 142.805 1057.88 151.014C1063.64 152.498 1069.05 158.36 1074.78 156.747C1092.09 151.866 1089.76 140.588 1106.77 145.879C1110.72 147.11 1116.19 138.551 1118.54 141.957C1121.17 145.778 1116.61 151.981 1112.81 154.636C1099.15 164.144 1076.2 171.256 1058.78 169.122C1012.28 163.421 966.469 147.543 919.647 149.202C901.216 149.852 882.919 152.857 864.719 155.839" stroke="#FFC9C9" stroke-width="3" stroke-miterlimit="1.5" stroke-linecap="round" stroke-linejoin="round"/>
<path fill-rule="evenodd" clip-rule="evenodd" d="M858.45 137.479C854.961 136.216 845.655 132.842 849.093 131.441C874.963 120.919 901.796 110.134 929.675 108.507C971.713 106.046 1013.63 115.25 1055.53 119.37C1061.73 119.979 1067.79 123.73 1073.94 122.689C1090.3 119.919 1082.74 108.613 1098.08 103.074C1100.42 102.23 1099.57 108.908 1102.01 109.411C1106.53 110.346 1114.51 102.207 1115.59 106.696C1117.25 113.605 1111.11 120.845 1105.93 125.708C1091.58 139.179 1086.98 131.377 1076.4 134.229C1068.99 136.23 1060.65 141.636 1053.11 141.101C1021.12 138.815 988.913 131.183 956.536 129.33C931.519 127.897 906.373 129.515 881.388 131.441C877.475 131.745 873.876 133.93 870.52 135.972" fill="#FFE2CA"/>
<path d="M858.45 137.479C854.961 136.216 845.655 132.842 849.093 131.441C874.963 120.919 901.796 110.134 929.675 108.507C971.713 106.046 1013.63 115.25 1055.53 119.37C1061.73 119.979 1067.79 123.73 1073.94 122.689C1090.3 119.919 1082.74 108.613 1098.08 103.074C1100.42 102.23 1099.57 108.908 1102.01 109.411C1106.53 110.346 1114.51 102.207 1115.59 106.696C1117.25 113.605 1111.11 120.845 1105.93 125.708C1091.58 139.179 1086.98 131.377 1076.4 134.229C1068.99 136.23 1060.65 141.636 1053.11 141.101C1021.12 138.815 988.913 131.183 956.536 129.33C931.519 127.897 906.373 129.515 881.388 131.441C877.475 131.745 873.876 133.93 870.52 135.972" stroke="#FFC9C9" stroke-width="3" stroke-miterlimit="1.5" stroke-linecap="round" stroke-linejoin="round"/>
<path d="M878.344 122.687C879.353 123.586 880.482 124.596 880.796 125.905C881.1 127.172 880.533 128.536 880.031 129.739" stroke="#FFC9C9" stroke-width="3" stroke-miterlimit="1.5" stroke-linecap="round" stroke-linejoin="round"/>
<path d="M871.781 142.375C872.219 144.094 872.657 145.822 872.855 147.583C872.966 148.602 872.832 149.634 872.699 150.653" stroke="#FFC9C9" stroke-width="3" stroke-miterlimit="1.5" stroke-linecap="round" stroke-linejoin="round"/>
<path d="M871.312 167.688C872.511 170.835 873.765 174.126 873.765 177.5C873.765 183.583 872.529 189.626 871.312 195.59" stroke="#FFC9C9" stroke-width="3" stroke-miterlimit="1.5" stroke-linecap="round" stroke-linejoin="round"/>
<path d="M845.062 176.594C845.699 177.769 846.505 179.262 847.819 179.506C849.409 179.806 851.04 178.815 852.418 177.972" stroke="#FFC9C9" stroke-width="3" stroke-miterlimit="1.5" stroke-linecap="round" stroke-linejoin="round"/>
<path d="M849.75 150.944C850.211 151.686 850.884 152.765 851.746 152.631C853.598 152.345 855.193 151.055 856.649 149.875" stroke="#FFC9C9" stroke-width="3" stroke-miterlimit="1.5" stroke-linecap="round" stroke-linejoin="round"/>
<path d="M865.688 127.844C866.056 128.752 866.559 129.982 867.526 130.143C868.817 130.36 870.117 129.489 871.204 128.765" stroke="#FFC9C9" stroke-width="3" stroke-miterlimit="1.5" stroke-linecap="round" stroke-linejoin="round"/>
<path d="M915.844 114.25L927.034 122.988" stroke="#FFC9C9" stroke-width="3" stroke-miterlimit="1.5" stroke-linecap="round" stroke-linejoin="round"/>
<path d="M930.375 114.719L943.1 123.766" stroke="#FFC9C9" stroke-width="3" stroke-miterlimit="1.5" stroke-linecap="round" stroke-linejoin="round"/>
<path d="M945.844 113.781L953.969 122.216" stroke="#FFC9C9" stroke-width="3" stroke-miterlimit="1.5" stroke-linecap="round" stroke-linejoin="round"/>
<path d="M935.283 112.844L922.406 122.195" stroke="#FFC9C9" stroke-width="3" stroke-miterlimit="1.5" stroke-linecap="round" stroke-linejoin="round"/>
<path d="M951.834 113.312L938.344 123.125" stroke="#FFC9C9" stroke-width="3" stroke-miterlimit="1.5" stroke-linecap="round" stroke-linejoin="round"/>
<path d="M904.594 140.969L909.958 146.181" stroke="#FFC9C9" stroke-width="3" stroke-miterlimit="1.5" stroke-linecap="round" stroke-linejoin="round"/>
<path d="M915.375 138.625L925.952 145.372" stroke="#FFC9C9" stroke-width="3" stroke-miterlimit="1.5" stroke-linecap="round" stroke-linejoin="round"/>
<path d="M937.406 139.562L945.684 147.688" stroke="#FFC9C9" stroke-width="3" stroke-miterlimit="1.5" stroke-linecap="round" stroke-linejoin="round"/>
<path d="M954.75 140.5L961.645 148.164" stroke="#FFC9C9" stroke-width="3" stroke-miterlimit="1.5" stroke-linecap="round" stroke-linejoin="round"/>
<path d="M918.921 137.219L908.344 144.422" stroke="#FFC9C9" stroke-width="3" stroke-miterlimit="1.5" stroke-linecap="round" stroke-linejoin="round"/>
<path d="M937.411 137.219L921.469 146.57" stroke="#FFC9C9" stroke-width="3" stroke-miterlimit="1.5" stroke-linecap="round" stroke-linejoin="round"/>
<path d="M951.425 139.094L941.156 145.532" stroke="#FFC9C9" stroke-width="3" stroke-miterlimit="1.5" stroke-linecap="round" stroke-linejoin="round"/>
<path d="M965.047 140.969L956.156 147.559" stroke="#FFC9C9" stroke-width="3" stroke-miterlimit="1.5" stroke-linecap="round" stroke-linejoin="round"/>
<path d="M895.688 167.219L919.446 191.899" stroke="#FFC9C9" stroke-width="3" stroke-miterlimit="1.5" stroke-linecap="round" stroke-linejoin="round"/>
<path d="M905.531 163.938L929.908 187.696" stroke="#FFC9C9" stroke-width="3" stroke-miterlimit="1.5" stroke-linecap="round" stroke-linejoin="round"/>
<path d="M925.688 167.687L944.542 188.69" stroke="#FFC9C9" stroke-width="3" stroke-miterlimit="1.5" stroke-linecap="round" stroke-linejoin="round"/>
<path d="M941.625 164.406L963.854 185.409" stroke="#FFC9C9" stroke-width="3" stroke-miterlimit="1.5" stroke-linecap="round" stroke-linejoin="round"/>
<path d="M916.021 164.406L900.844 178.97" stroke="#FFC9C9" stroke-width="3" stroke-miterlimit="1.5" stroke-linecap="round" stroke-linejoin="round"/>
<path d="M933.38 166.75L919.125 183.001" stroke="#FFC9C9" stroke-width="3" stroke-miterlimit="1.5" stroke-linecap="round" stroke-linejoin="round"/>
<path d="M952.383 165.812L935.062 187.424" stroke="#FFC9C9" stroke-width="3" stroke-miterlimit="1.5" stroke-linecap="round" stroke-linejoin="round"/>
<path d="M971.037 167.687L948.656 188.538" stroke="#FFC9C9" stroke-width="3" stroke-miterlimit="1.5" stroke-linecap="round" stroke-linejoin="round"/>
<path d="M908.821 194.466C902.465 190.899 895.395 186.935 888.127 187.414C884.353 187.663 877.886 194.272 881.076 196.305C888.086 200.78 897.645 199.697 905.908 198.761" stroke="#FFC9C9" stroke-width="3" stroke-miterlimit="1.5" stroke-linecap="round" stroke-linejoin="round"/>
<path d="M1092.74 112.844C1091.87 115.959 1090.74 120.01 1092.74 122.554C1094.75 125.103 1098.95 124.96 1102.19 124.854" stroke="#FFC9C9" stroke-width="3" stroke-miterlimit="1.5" stroke-linecap="round" stroke-linejoin="round"/>
<path d="M1092.29 152.219C1091.09 153.329 1089.05 155.219 1089.99 156.56C1091.45 158.63 1094.62 158.902 1097.15 159.114" stroke="#FFC9C9" stroke-width="3" stroke-miterlimit="1.5" stroke-linecap="round" stroke-linejoin="round"/>
<path d="M1089.52 175.188C1087.32 176.994 1084.8 179.059 1084.15 181.829C1083.86 183.096 1086.2 183.599 1087.47 183.875" stroke="#FFC9C9" stroke-width="3" stroke-miterlimit="1.5" stroke-linecap="round" stroke-linejoin="round"/>
<path fill-rule="evenodd" clip-rule="evenodd" d="M144.186 664.726C139.071 658.638 132.993 651.4 125.102 650.413C101.567 647.469 105.574 668.981 82.1629 664.726C49.181 658.729 58.1791 645.513 34.4529 621.787C27.8975 615.231 15.3689 612.245 10.5979 607.474C6.60457 603.481 23.1599 596.324 43.9949 593.161C57.3537 591.133 58.3079 587.197 82.1629 593.161C92.0436 595.632 99.5675 604.363 106.018 612.245C114.138 622.168 115.679 629.764 121.104 641.381" fill="#FFE2CA"/>
<path d="M144.186 664.726C139.071 658.638 132.993 651.4 125.102 650.413C101.567 647.469 105.574 668.981 82.1629 664.726C49.181 658.729 58.1791 645.513 34.4529 621.787C27.8975 615.231 15.3689 612.245 10.5979 607.474C6.60457 603.481 23.1599 596.324 43.9949 593.161C57.3537 591.133 58.3079 587.197 82.1629 593.161C92.0436 595.632 99.5675 604.363 106.018 612.245C114.138 622.169 115.679 629.764 121.104 641.381" stroke="#FFC9C9" stroke-width="3" stroke-miterlimit="1.5" stroke-linecap="round" stroke-linejoin="round"/>
<path d="M129.949 650.552C127.167 648.333 123.961 645.781 120.407 645.781C115.378 645.781 110.569 648.252 106.094 650.552" stroke="#FFC9C9" stroke-width="3" stroke-miterlimit="1.5" stroke-linecap="round" stroke-linejoin="round"/>
<path d="M120.188 645.813C116.801 644.725 113.161 643.556 110.646 641.042C103.447 633.843 97.4785 625.474 91.5625 617.187" stroke="#FFC9C9" stroke-width="3" stroke-miterlimit="1.5" stroke-linecap="round" stroke-linejoin="round"/>
<path d="M110.98 640.809C106.386 638.767 101.658 636.663 96.6673 636.038C88.776 635.051 80.7464 635.547 72.8123 636.038" stroke="#FFC9C9" stroke-width="3" stroke-miterlimit="1.5" stroke-linecap="round" stroke-linejoin="round"/>
<path d="M96.2822 635.97C91.2249 633.265 86.0246 630.483 81.9692 626.428C76.3442 620.803 71.9692 614.023 67.6562 607.344" stroke="#FFC9C9" stroke-width="3" stroke-miterlimit="1.5" stroke-linecap="round" stroke-linejoin="round"/>
<path d="M82.085 626.428C66.1832 620.068 50.2767 613.703 34.375 607.344" stroke="#FFC9C9" stroke-width="3" stroke-miterlimit="1.5" stroke-linecap="round" stroke-linejoin="round"/>
<path fill-rule="evenodd" clip-rule="evenodd" d="M534.499 191.905C535.437 180.109 536.428 167.453 531.996 156.492C526.155 142.147 517.708 127.384 504.828 118.827C487.671 107.47 464.414 109.123 446.215 99.6267C442.669 97.8016 446.11 77.9703 450.699 77.6783C489.861 75.1805 513.536 78.3717 537.472 108.106C542.217 113.977 550.143 137.892 548.213 158.484C547.379 167.016 544.459 175.375 539.975 182.68" fill="#FFE2CA"/>
<path d="M534.499 191.905C535.437 180.109 536.428 167.453 531.996 156.492C526.155 142.147 517.708 127.384 504.828 118.827C487.671 107.47 464.414 109.123 446.215 99.6267C442.669 97.8016 446.11 77.9703 450.699 77.6783C489.861 75.1805 513.536 78.3717 537.472 108.106C542.217 113.977 550.143 137.892 548.213 158.484C547.379 167.016 544.459 175.375 539.975 182.68" stroke="#FFC9C9" stroke-width="3" stroke-miterlimit="1.5" stroke-linecap="round" stroke-linejoin="round"/>
<path d="M442.895 97.8938C439.401 95.3543 435.49 92.4915 434.134 88.4136C433.352 85.9784 435.49 83.1208 437.419 81.4312C439.766 79.3662 443.051 78.6258 446.128 77.9375" stroke="#FFC9C9" stroke-width="3" stroke-miterlimit="1.5" stroke-linecap="round" stroke-linejoin="round"/>
<path d="M430.678 88.25C424.212 89.9083 417.537 91.6082 411.748 94.9873C405.752 98.4602 400.85 103.519 396 108.452" stroke="#FFC9C9" stroke-width="3" stroke-miterlimit="1.5" stroke-linecap="round" stroke-linejoin="round"/>
<path d="M862.364 584.417C874.549 574.404 898.235 568.156 924.011 568.156C962.621 568.156 993.969 581.978 993.969 598.999C993.969 616.02 962.621 629.841 924.011 629.841C885.396 629.841 854.049 616.02 854.049 598.999C854.049 596.811 854.58 594.628 855.626 592.487" stroke="#FFC9C9" stroke-width="3" stroke-miterlimit="1.5" stroke-linecap="round" stroke-linejoin="round"/>
<path d="M853.813 607.062C862.459 622.962 873.216 635.967 880.122 652.556C881.589 656.086 877.474 662.689 881.233 664.28C896.633 670.788 907.29 673.588 924.27 673.859C940.853 674.124 954.249 669.574 969.448 663.54C973.052 662.111 967.787 656.295 968.762 652.833C973.722 635.219 986.895 625.198 993.572 608.061" stroke="#FFC9C9" stroke-width="3" stroke-miterlimit="1.5" stroke-linecap="round" stroke-linejoin="round"/>
<path fill-rule="evenodd" clip-rule="evenodd" d="M1086.24 530.53L647.92 640.568L648.966 643.032L1093.22 541.251" fill="#FFE2CA"/>
<path d="M1086.24 530.53L647.92 640.568L648.966 643.032L1093.22 541.251" stroke="#FFC9C9" stroke-width="3" stroke-miterlimit="1.5" stroke-linecap="round" stroke-linejoin="round"/>
<path d="M649.448 643.755L1090.12 553.173" stroke="#FFC9C9" stroke-width="3" stroke-miterlimit="1.5" stroke-linecap="round" stroke-linejoin="round"/>
<path d="M960.208 564.396L965.246 570.822L963.716 576.748" stroke="#FFC9C9" stroke-width="3" stroke-miterlimit="1.5" stroke-linecap="round" stroke-linejoin="round"/>
<path d="M1088.65 530.177L1095.83 540.699L1092.48 552.87" stroke="#FFC9C9" stroke-width="3" stroke-miterlimit="1.5" stroke-linecap="round" stroke-linejoin="round"/>
<path fill-rule="evenodd" clip-rule="evenodd" d="M1103.63 576.986L655.07 644.751L655.827 647.3L1109.34 588.311" fill="#FFE2CA"/>
<path d="M1103.63 576.986L655.07 644.751L655.827 647.3L1109.34 588.311" stroke="#FFC9C9" stroke-width="3" stroke-miterlimit="1.5" stroke-linecap="round" stroke-linejoin="round"/>
<path d="M656.355 648.374L1105.01 600.182" stroke="#FFC9C9" stroke-width="3" stroke-miterlimit="1.5" stroke-linecap="round" stroke-linejoin="round"/>
<path d="M974.74 598.614L979.012 605.485L976.81 611.233" stroke="#FFC9C9" stroke-width="3" stroke-miterlimit="1.5" stroke-linecap="round" stroke-linejoin="round"/>
<path d="M1106.46 576.583L1112.39 587.731L1107.67 599.517" stroke="#FFC9C9" stroke-width="3" stroke-miterlimit="1.5" stroke-linecap="round" stroke-linejoin="round"/>
<path fill-rule="evenodd" clip-rule="evenodd" d="M923.968 595.199C922.724 594.462 921.29 593.614 920.85 592.37C920.636 591.769 922.648 593.089 923.025 592.549C923.88 591.33 923.691 588.313 923.691 588.313C923.691 588.313 924.533 591.492 925.938 592.374C926.656 592.825 928.258 590.373 928.186 591.138C928.046 592.64 926.556 593.805 925.683 595.109C925.532 595.337 925.105 595.467 925.12 595.727C925.177 596.622 925.537 597.489 925.888 598.332" fill="#FFE2CA"/>
<path d="M923.968 595.199C922.724 594.462 921.29 593.614 920.85 592.37C920.636 591.769 922.648 593.089 923.025 592.549C923.88 591.33 923.691 588.313 923.691 588.313C923.691 588.313 924.533 591.492 925.938 592.374C926.656 592.825 928.258 590.373 928.186 591.138C928.046 592.64 926.556 593.805 925.683 595.109C925.532 595.337 925.105 595.467 925.12 595.727C925.177 596.622 925.537 597.489 925.888 598.332" stroke="#FFC9C9" stroke-width="3" stroke-miterlimit="1.5" stroke-linecap="round" stroke-linejoin="round"/>
<path fill-rule="evenodd" clip-rule="evenodd" d="M927.735 598.378C927.459 597.097 927.14 595.622 927.846 594.473C928.187 593.917 928.53 596.079 929.238 595.928C930.841 595.588 933.177 593.339 933.177 593.339C933.177 593.339 931.17 596.101 931.441 597.583C931.58 598.34 934.72 597.585 934.043 598.082C932.714 599.059 930.707 598.972 929.022 599.361C928.729 599.43 928.32 599.261 928.118 599.454C927.425 600.122 926.97 600.955 926.529 601.765" fill="#FFE2CA"/>
<path d="M927.735 598.378C927.459 597.097 927.14 595.622 927.846 594.473C928.187 593.917 928.53 596.079 929.238 595.928C930.841 595.588 933.177 593.339 933.177 593.339C933.177 593.339 931.17 596.101 931.441 597.583C931.58 598.34 934.72 597.585 934.043 598.082C932.714 599.059 930.707 598.972 929.022 599.361C928.729 599.43 928.32 599.261 928.118 599.454C927.425 600.122 926.97 600.955 926.529 601.765" stroke="#FFC9C9" stroke-width="3" stroke-miterlimit="1.5" stroke-linecap="round" stroke-linejoin="round"/>
<path fill-rule="evenodd" clip-rule="evenodd" d="M921.641 599.741C921.139 598.512 920.561 597.097 919.284 596.407C918.667 596.073 919.622 598.093 918.921 598.269C917.336 598.667 914.011 597.727 914.011 597.727C914.011 597.727 917.349 599.253 917.971 600.654C918.289 601.369 915.133 602.071 916.007 602.209C917.723 602.481 919.411 601.539 921.096 601.148C921.39 601.082 921.646 600.759 921.933 600.839C922.919 601.118 923.796 601.642 924.647 602.154" fill="#FFE2CA"/>
<path d="M921.641 599.741C921.139 598.512 920.561 597.097 919.284 596.407C918.667 596.073 919.622 598.093 918.921 598.269C917.336 598.667 914.011 597.727 914.011 597.727C914.011 597.727 917.349 599.253 917.971 600.654C918.289 601.369 915.133 602.071 916.007 602.209C917.723 602.481 919.411 601.539 921.096 601.148C921.39 601.082 921.646 600.759 921.933 600.839C922.919 601.118 923.796 601.642 924.647 602.154" stroke="#FFC9C9" stroke-width="3" stroke-miterlimit="1.5" stroke-linecap="round" stroke-linejoin="round"/>
</svg>
