<svg width="1121" height="828" viewBox="0 0 1121 828" fill="none" xmlns="http://www.w3.org/2000/svg">
<path d="M119.754 58.4293C116.453 61.3454 112.561 64.7894 108.159 64.7524C102.257 64.7107 95.2443 62.9426 91.7125 58.2166C88.1576 53.4674 87.7087 45.9685 90.0231 40.5065C92.9114 33.693 109.2 -4.55007 129.877 2.97636C141.014 7.03119 150.67 14.6225 159.816 22.1628C162.95 24.7457 165.792 28.6429 165.931 32.707C166.102 37.7941 163.422 42.7656 160.658 47.0426C158.89 49.7829 156.053 52.301 152.859 52.949C150.156 53.4952 145.101 47.4499 145.055 50.204C144.962 55.99 150.591 60.4011 152.646 65.8076C154.405 70.4271 155.664 75.2643 156.442 80.1477C156.942 83.2675 158.303 87.0771 156.442 89.6322C150.239 98.1769 139.704 100.815 130.928 94.6961C127.285 92.1502 125.225 87.7574 123.336 83.7303" stroke="#FFC9C9" stroke-width="3" stroke-miterlimit="1.5" stroke-linecap="round" stroke-linejoin="round"/>
<path fill-rule="evenodd" clip-rule="evenodd" d="M123.087 78.6996C123.74 71.1315 124.397 63.4891 123.721 55.9256C122.994 47.8298 119.227 42.2289 110.858 40.5348C106.604 39.6738 101.471 44.7193 100.313 48.1261C99.7025 49.9267 99.5404 52.3385 100.739 53.8197C106.914 61.448 108.414 55.3332 112.756 51.9218C113.82 51.0839 115.121 49.4362 116.338 50.0241C118.097 50.8758 118.759 53.2039 119.291 55.0832" fill="#FFE2CA"/>
<path d="M123.087 78.6996C123.74 71.1315 124.397 63.4891 123.721 55.9256C122.994 47.8298 119.227 42.2289 110.858 40.5348C106.604 39.6738 101.471 44.7193 100.313 48.1261C99.7025 49.9267 99.5404 52.3385 100.739 53.8197C106.914 61.448 108.414 55.3332 112.756 51.9217C113.82 51.0839 115.121 49.4362 116.338 50.0241C118.097 50.8758 118.759 53.2039 119.291 55.0832" stroke="#FFC9C9" stroke-width="3" stroke-miterlimit="1.5" stroke-linecap="round" stroke-linejoin="round"/>
<path fill-rule="evenodd" clip-rule="evenodd" d="M147.029 59.6732C143.807 56.5673 140.576 53.443 137.753 49.976C136.54 48.4855 134.873 46.8283 135.008 44.9166C135.049 44.3241 141.766 37.6493 142.178 37.5335C145.247 36.6726 153.43 37.0569 155.462 41.121C156.485 43.1623 154.25 49.1704 150.824 48.4993C148.126 47.9716 146.473 44.9399 143.867 44.0696C142.636 43.6623 140.465 43.6807 140.072 44.9166C139.572 46.4719 141.081 48.1336 142.178 49.3417" fill="#FFE2CA"/>
<path d="M147.029 59.6732C143.807 56.5673 140.576 53.443 137.753 49.976C136.54 48.4855 134.873 46.8283 135.008 44.9166C135.049 44.3241 141.766 37.6493 142.178 37.5335C145.247 36.6726 153.43 37.0569 155.462 41.121C156.485 43.1623 154.25 49.1704 150.824 48.4993C148.126 47.9716 146.473 44.9399 143.867 44.0696C142.636 43.6623 140.465 43.6807 140.072 44.9166C139.572 46.4719 141.081 48.1336 142.178 49.3417" stroke="#FFC9C9" stroke-width="3" stroke-miterlimit="1.5" stroke-linecap="round" stroke-linejoin="round"/>
<path d="M45.1755 99.0128C44.2534 102.38 43.1677 106.355 40.2324 108.243C36.3004 110.778 30.8819 112.652 26.4869 111.052C22.0665 109.446 18.5115 104.668 17.6739 100.041C16.6298 94.2676 10.8207 61.8305 27.8022 57.8406C36.9492 55.6922 46.6501 56.5324 55.991 57.5601C59.1911 57.9118 62.7687 59.2619 64.6261 61.8968C66.9493 65.196 67.3312 69.6572 67.3564 73.6939C67.374 76.2793 66.5861 79.1817 64.7495 80.9987C63.194 82.5351 57.2161 80.7215 58.3817 82.5681C60.8336 86.4455 66.4824 86.9259 70.1937 89.6186C73.3667 91.9182 76.3028 94.5792 78.9397 97.48C80.6264 99.3318 83.1836 101.267 83.0594 103.77C82.6575 112.131 76.8168 118.457 68.3387 118.21C64.817 118.104 61.5429 116.086 58.5412 114.236" stroke="#FFC9C9" stroke-width="3" stroke-miterlimit="1.5" stroke-linecap="round" stroke-linejoin="round"/>
<path fill-rule="evenodd" clip-rule="evenodd" d="M56.4089 111.028C53.5544 105.726 50.6706 100.372 46.9371 95.6499C42.9387 90.5966 38.0071 88.5188 31.7212 91.0304C28.5262 92.3072 27.3136 97.8829 28.026 100.645C28.4029 102.104 29.343 103.774 30.7814 104.236C38.1899 106.613 36.5284 101.906 37.926 97.7576C38.2681 96.7395 38.415 95.0819 39.4776 94.9429C41.0141 94.7437 42.4643 96.0001 43.6336 97.0152" fill="#FFE2CA"/>
<path d="M56.4089 111.028C53.5544 105.726 50.6706 100.372 46.9371 95.6499C42.9387 90.5966 38.0071 88.5188 31.7212 91.0304C28.5262 92.3072 27.3136 97.8829 28.026 100.645C28.4029 102.104 29.343 103.774 30.7814 104.236C38.1899 106.613 36.5284 101.906 37.926 97.7576C38.2681 96.7395 38.415 95.0819 39.4776 94.9429C41.0141 94.7437 42.4643 96.0001 43.6336 97.0152" stroke="#FFC9C9" stroke-width="3" stroke-miterlimit="1.5" stroke-linecap="round" stroke-linejoin="round"/>
<path fill-rule="evenodd" clip-rule="evenodd" d="M63.6952 88.1142C60.2096 87.4538 56.71 86.7851 53.3315 85.7124C51.8799 85.2507 50.0549 84.8756 49.3136 83.5495C49.0838 83.1384 50.6387 75.7944 50.8616 75.5388C52.5229 73.6348 58.117 70.3349 61.2299 72.1475C62.795 73.0569 63.922 78.0125 61.3589 79.0552C59.34 79.8774 56.9273 78.5846 54.8211 79.1395C53.8276 79.4042 52.3959 80.3594 52.6718 81.3499C53.0158 82.5985 54.7384 83.045 55.9906 83.3697" fill="#FFE2CA"/>
<path d="M63.6952 88.1142C60.2096 87.4538 56.71 86.7851 53.3315 85.7124C51.8799 85.2507 50.0549 84.8756 49.3136 83.5495C49.0838 83.1384 50.6387 75.7944 50.8616 75.5388C52.5229 73.6348 58.117 70.3349 61.2299 72.1475C62.795 73.0569 63.922 78.0125 61.3589 79.0552C59.34 79.8774 56.9273 78.5846 54.8211 79.1395C53.8276 79.4042 52.3959 80.3594 52.6718 81.3499C53.0158 82.5985 54.7384 83.045 55.9906 83.3697" stroke="#FFC9C9" stroke-width="3" stroke-miterlimit="1.5" stroke-linecap="round" stroke-linejoin="round"/>
<path fill-rule="evenodd" clip-rule="evenodd" d="M819.802 109.32C816.502 107.361 814.617 104.526 817.225 101.462C820.871 97.1799 834.195 89.9716 839.389 88.6258C865.757 81.8093 893.046 77.2558 920.275 77.159C995.635 76.8917 993.049 96.1983 1068.46 100.097C1086.02 101.005 1085.26 94.3178 1102.87 97.0785C1106.41 97.6362 1112.56 91.4834 1113.43 94.9677C1114.88 100.784 1112.14 109.555 1106.49 111.564C1093.5 116.192 1078.92 111.615 1065.14 112.168C1051.44 112.721 1037.74 113.491 1024.1 114.887C1002.39 117.104 944.324 126.483 912.127 126.354C896.521 126.29 880.726 127.184 865.346 124.543C849.98 121.907 845.86 120.303 831.301 114.717" fill="#FFE2CA"/>
<path d="M819.802 109.32C816.502 107.361 814.617 104.526 817.225 101.462C820.871 97.1799 834.195 89.9716 839.389 88.6258C865.757 81.8093 893.046 77.2558 920.275 77.159C995.635 76.8917 993.049 96.1983 1068.46 100.097C1086.02 101.005 1085.26 94.3178 1102.87 97.0785C1106.41 97.6362 1112.56 91.4834 1113.43 94.9677C1114.88 100.784 1112.14 109.555 1106.49 111.564C1093.5 116.192 1078.92 111.615 1065.14 112.168C1051.44 112.721 1037.74 113.491 1024.1 114.887C1002.39 117.104 944.324 126.483 912.127 126.354C896.521 126.29 880.726 127.184 865.346 124.543C849.98 121.907 845.86 120.303 831.301 114.717" stroke="#FFC9C9" stroke-width="3" stroke-miterlimit="1.5" stroke-linecap="round" stroke-linejoin="round"/>
<path d="M836.351 84.6691C833.756 82.1112 830.065 78.4702 831.217 75.0135C832.318 71.7136 837.526 72.0086 840.877 71.0868C854.054 67.4734 867.129 62.883 880.716 61.4312C905.941 58.7396 931.418 57.8731 956.772 58.7166C989.145 59.7858 1026.06 66.8051 1057.88 75.0135C1063.64 76.4976 1069.05 82.3601 1074.78 80.747C1092.09 75.8662 1089.76 64.5883 1106.77 69.8792C1110.72 71.1098 1116.19 62.5511 1118.54 65.9571C1121.17 69.7779 1116.61 75.9814 1112.81 78.6361C1099.15 88.1442 1076.2 95.2557 1058.78 93.1218C1012.28 87.4206 966.469 71.5431 919.647 73.2023C901.216 73.8521 882.919 76.8571 864.719 79.8391" stroke="#FFC9C9" stroke-width="3" stroke-miterlimit="1.5" stroke-linecap="round" stroke-linejoin="round"/>
<path fill-rule="evenodd" clip-rule="evenodd" d="M858.45 61.4787C854.961 60.2158 845.655 56.8422 849.093 55.4411C874.963 44.919 901.796 34.1343 929.675 32.5074C971.713 30.0463 1013.63 39.2501 1055.53 43.3705C1061.73 43.9788 1067.79 47.7304 1073.94 46.6888C1090.3 43.9189 1082.74 32.6134 1098.08 27.0736C1100.42 26.2301 1099.57 32.9084 1102.01 33.4107C1106.53 34.3463 1114.51 26.2071 1115.59 30.6961C1117.25 37.6048 1111.11 44.8453 1105.93 49.7076C1091.58 63.1793 1086.98 55.3765 1076.4 58.2294C1068.99 60.2297 1060.65 65.6358 1053.11 65.1012C1021.12 62.8152 988.913 55.1829 956.536 53.3302C931.519 51.8968 906.373 53.5146 881.388 55.4411C877.475 55.7453 873.876 57.9299 870.52 59.9716" fill="#FFE2CA"/>
<path d="M858.45 61.4787C854.961 60.2158 845.655 56.8422 849.093 55.4411C874.963 44.919 901.796 34.1343 929.675 32.5074C971.713 30.0463 1013.63 39.2501 1055.53 43.3705C1061.73 43.9788 1067.79 47.7304 1073.94 46.6888C1090.3 43.9189 1082.74 32.6134 1098.08 27.0736C1100.42 26.2301 1099.57 32.9084 1102.01 33.4107C1106.53 34.3463 1114.51 26.2071 1115.59 30.6961C1117.25 37.6048 1111.11 44.8453 1105.93 49.7076C1091.58 63.1793 1086.98 55.3765 1076.4 58.2294C1068.99 60.2297 1060.65 65.6358 1053.11 65.1012C1021.12 62.8152 988.913 55.1829 956.536 53.3302C931.519 51.8968 906.373 53.5146 881.388 55.4411C877.475 55.7453 873.876 57.9299 870.52 59.9716" stroke="#FFC9C9" stroke-width="3" stroke-miterlimit="1.5" stroke-linecap="round" stroke-linejoin="round"/>
<path d="M878.344 46.6874C879.353 47.5861 880.482 48.5956 880.796 49.9045C881.1 51.172 880.533 52.5362 880.031 53.7391" stroke="#FFC9C9" stroke-width="3" stroke-miterlimit="1.5" stroke-linecap="round" stroke-linejoin="round"/>
<path d="M871.781 66.375C872.219 68.0941 872.657 69.8225 872.855 71.5831C872.966 72.6016 872.832 73.634 872.699 74.6526" stroke="#FFC9C9" stroke-width="3" stroke-miterlimit="1.5" stroke-linecap="round" stroke-linejoin="round"/>
<path d="M871.312 91.6875C872.511 94.8354 873.765 98.1261 873.765 101.5C873.765 107.583 872.529 113.626 871.312 119.59" stroke="#FFC9C9" stroke-width="3" stroke-miterlimit="1.5" stroke-linecap="round" stroke-linejoin="round"/>
<path d="M845.062 100.594C845.699 101.769 846.505 103.262 847.819 103.506C849.409 103.806 851.04 102.815 852.418 101.972" stroke="#FFC9C9" stroke-width="3" stroke-miterlimit="1.5" stroke-linecap="round" stroke-linejoin="round"/>
<path d="M849.75 74.9442C850.211 75.6862 850.884 76.7647 851.746 76.631C853.598 76.3453 855.193 75.0548 856.649 73.875" stroke="#FFC9C9" stroke-width="3" stroke-miterlimit="1.5" stroke-linecap="round" stroke-linejoin="round"/>
<path d="M865.688 51.8438C866.056 52.7516 866.559 53.9821 867.526 54.1434C868.817 54.36 870.117 53.489 871.204 52.7654" stroke="#FFC9C9" stroke-width="3" stroke-miterlimit="1.5" stroke-linecap="round" stroke-linejoin="round"/>
<path d="M915.844 38.25L927.034 46.9883" stroke="#FFC9C9" stroke-width="3" stroke-miterlimit="1.5" stroke-linecap="round" stroke-linejoin="round"/>
<path d="M930.375 38.7186L943.1 47.7659" stroke="#FFC9C9" stroke-width="3" stroke-miterlimit="1.5" stroke-linecap="round" stroke-linejoin="round"/>
<path d="M945.844 37.7815L953.969 46.2156" stroke="#FFC9C9" stroke-width="3" stroke-miterlimit="1.5" stroke-linecap="round" stroke-linejoin="round"/>
<path d="M935.283 36.8438L922.406 46.1951" stroke="#FFC9C9" stroke-width="3" stroke-miterlimit="1.5" stroke-linecap="round" stroke-linejoin="round"/>
<path d="M951.834 37.3124L938.344 47.1246" stroke="#FFC9C9" stroke-width="3" stroke-miterlimit="1.5" stroke-linecap="round" stroke-linejoin="round"/>
<path d="M904.594 64.9688L909.958 70.1814" stroke="#FFC9C9" stroke-width="3" stroke-miterlimit="1.5" stroke-linecap="round" stroke-linejoin="round"/>
<path d="M915.375 62.625L925.952 69.3723" stroke="#FFC9C9" stroke-width="3" stroke-miterlimit="1.5" stroke-linecap="round" stroke-linejoin="round"/>
<path d="M937.406 63.5625L945.684 71.6877" stroke="#FFC9C9" stroke-width="3" stroke-miterlimit="1.5" stroke-linecap="round" stroke-linejoin="round"/>
<path d="M954.75 64.4999L961.645 72.1643" stroke="#FFC9C9" stroke-width="3" stroke-miterlimit="1.5" stroke-linecap="round" stroke-linejoin="round"/>
<path d="M918.921 61.2188L908.344 68.4225" stroke="#FFC9C9" stroke-width="3" stroke-miterlimit="1.5" stroke-linecap="round" stroke-linejoin="round"/>
<path d="M937.411 61.219L921.469 70.5703" stroke="#FFC9C9" stroke-width="3" stroke-miterlimit="1.5" stroke-linecap="round" stroke-linejoin="round"/>
<path d="M951.425 63.0936L941.156 69.5322" stroke="#FFC9C9" stroke-width="3" stroke-miterlimit="1.5" stroke-linecap="round" stroke-linejoin="round"/>
<path d="M965.047 64.9686L956.156 71.5592" stroke="#FFC9C9" stroke-width="3" stroke-miterlimit="1.5" stroke-linecap="round" stroke-linejoin="round"/>
<path d="M895.688 91.2185L919.446 115.899" stroke="#FFC9C9" stroke-width="3" stroke-miterlimit="1.5" stroke-linecap="round" stroke-linejoin="round"/>
<path d="M905.531 87.9375L929.908 111.696" stroke="#FFC9C9" stroke-width="3" stroke-miterlimit="1.5" stroke-linecap="round" stroke-linejoin="round"/>
<path d="M925.688 91.6873L944.542 112.69" stroke="#FFC9C9" stroke-width="3" stroke-miterlimit="1.5" stroke-linecap="round" stroke-linejoin="round"/>
<path d="M941.625 88.4062L963.854 109.409" stroke="#FFC9C9" stroke-width="3" stroke-miterlimit="1.5" stroke-linecap="round" stroke-linejoin="round"/>
<path d="M916.021 88.4061L900.844 102.97" stroke="#FFC9C9" stroke-width="3" stroke-miterlimit="1.5" stroke-linecap="round" stroke-linejoin="round"/>
<path d="M933.38 90.7498L919.125 107.001" stroke="#FFC9C9" stroke-width="3" stroke-miterlimit="1.5" stroke-linecap="round" stroke-linejoin="round"/>
<path d="M952.383 89.8125L935.062 111.424" stroke="#FFC9C9" stroke-width="3" stroke-miterlimit="1.5" stroke-linecap="round" stroke-linejoin="round"/>
<path d="M971.037 91.6873L948.656 112.538" stroke="#FFC9C9" stroke-width="3" stroke-miterlimit="1.5" stroke-linecap="round" stroke-linejoin="round"/>
<path d="M908.821 118.466C902.465 114.899 895.395 110.935 888.127 111.414C884.353 111.663 877.886 118.272 881.076 120.305C888.086 124.78 897.645 123.697 905.908 122.761" stroke="#FFC9C9" stroke-width="3" stroke-miterlimit="1.5" stroke-linecap="round" stroke-linejoin="round"/>
<path d="M1092.74 36.8436C1091.87 39.9592 1090.74 44.0104 1092.74 46.5545C1094.75 49.1031 1098.95 48.9602 1102.19 48.8542" stroke="#FFC9C9" stroke-width="3" stroke-miterlimit="1.5" stroke-linecap="round" stroke-linejoin="round"/>
<path d="M1092.29 76.2188C1091.09 77.3295 1089.05 79.2191 1089.99 80.5602C1091.45 82.6296 1094.62 82.9015 1097.15 83.1135" stroke="#FFC9C9" stroke-width="3" stroke-miterlimit="1.5" stroke-linecap="round" stroke-linejoin="round"/>
<path d="M1089.52 99.1875C1087.32 100.994 1084.8 103.059 1084.15 105.829C1083.86 107.096 1086.2 107.599 1087.47 107.875" stroke="#FFC9C9" stroke-width="3" stroke-miterlimit="1.5" stroke-linecap="round" stroke-linejoin="round"/>
<path fill-rule="evenodd" clip-rule="evenodd" d="M144.186 664.726C139.071 658.638 132.993 651.4 125.102 650.413C101.567 647.469 105.574 668.981 82.1629 664.726C49.181 658.729 58.1791 645.513 34.4529 621.787C27.8975 615.231 15.3689 612.245 10.5979 607.474C6.60457 603.481 23.1599 596.324 43.9949 593.161C57.3537 591.133 58.3079 587.197 82.1629 593.161C92.0436 595.632 99.5675 604.363 106.018 612.245C114.138 622.168 115.679 629.764 121.104 641.381" fill="#FFE2CA"/>
<path d="M144.186 664.726C139.071 658.638 132.993 651.4 125.102 650.413C101.567 647.469 105.574 668.981 82.1629 664.726C49.181 658.729 58.1791 645.513 34.4529 621.787C27.8975 615.231 15.3689 612.245 10.5979 607.474C6.60457 603.481 23.1599 596.324 43.9949 593.161C57.3537 591.133 58.3079 587.197 82.1629 593.161C92.0436 595.632 99.5675 604.363 106.018 612.245C114.138 622.169 115.679 629.764 121.104 641.381" stroke="#FFC9C9" stroke-width="3" stroke-miterlimit="1.5" stroke-linecap="round" stroke-linejoin="round"/>
<path d="M129.949 650.552C127.167 648.333 123.961 645.781 120.407 645.781C115.378 645.781 110.569 648.252 106.094 650.552" stroke="#FFC9C9" stroke-width="3" stroke-miterlimit="1.5" stroke-linecap="round" stroke-linejoin="round"/>
<path d="M120.188 645.813C116.801 644.725 113.161 643.556 110.646 641.042C103.447 633.843 97.4785 625.474 91.5625 617.187" stroke="#FFC9C9" stroke-width="3" stroke-miterlimit="1.5" stroke-linecap="round" stroke-linejoin="round"/>
<path d="M110.98 640.809C106.386 638.767 101.658 636.663 96.6673 636.038C88.776 635.051 80.7464 635.547 72.8123 636.038" stroke="#FFC9C9" stroke-width="3" stroke-miterlimit="1.5" stroke-linecap="round" stroke-linejoin="round"/>
<path d="M96.2822 635.97C91.2249 633.265 86.0246 630.483 81.9692 626.428C76.3442 620.803 71.9692 614.023 67.6562 607.344" stroke="#FFC9C9" stroke-width="3" stroke-miterlimit="1.5" stroke-linecap="round" stroke-linejoin="round"/>
<path d="M82.085 626.428C66.1832 620.068 50.2767 613.703 34.375 607.344" stroke="#FFC9C9" stroke-width="3" stroke-miterlimit="1.5" stroke-linecap="round" stroke-linejoin="round"/>
<path fill-rule="evenodd" clip-rule="evenodd" d="M534.499 191.905C535.437 180.109 536.428 167.453 531.996 156.492C526.155 142.147 517.708 127.384 504.828 118.827C487.671 107.47 464.414 109.123 446.215 99.6267C442.669 97.8016 446.11 77.9703 450.699 77.6783C489.861 75.1805 513.536 78.3717 537.472 108.106C542.217 113.977 550.143 137.892 548.213 158.484C547.379 167.016 544.459 175.375 539.975 182.68" fill="#FFE2CA"/>
<path d="M534.499 191.905C535.437 180.109 536.428 167.453 531.996 156.492C526.155 142.147 517.708 127.384 504.828 118.827C487.671 107.47 464.414 109.123 446.215 99.6267C442.669 97.8016 446.11 77.9703 450.699 77.6783C489.861 75.1805 513.536 78.3717 537.472 108.106C542.217 113.977 550.143 137.892 548.213 158.484C547.379 167.016 544.459 175.375 539.975 182.68" stroke="#FFC9C9" stroke-width="3" stroke-miterlimit="1.5" stroke-linecap="round" stroke-linejoin="round"/>
<path d="M442.895 97.8938C439.401 95.3543 435.49 92.4915 434.134 88.4136C433.352 85.9784 435.49 83.1208 437.419 81.4312C439.766 79.3662 443.051 78.6258 446.128 77.9375" stroke="#FFC9C9" stroke-width="3" stroke-miterlimit="1.5" stroke-linecap="round" stroke-linejoin="round"/>
<path d="M430.678 88.25C424.212 89.9083 417.537 91.6082 411.748 94.9873C405.752 98.4602 400.85 103.519 396 108.452" stroke="#FFC9C9" stroke-width="3" stroke-miterlimit="1.5" stroke-linecap="round" stroke-linejoin="round"/>
<path d="M862.364 584.417C874.549 574.404 898.235 568.156 924.011 568.156C962.621 568.156 993.969 581.978 993.969 598.999C993.969 616.02 962.621 629.841 924.011 629.841C885.396 629.841 854.049 616.02 854.049 598.999C854.049 596.811 854.58 594.628 855.626 592.487" stroke="#FFC9C9" stroke-width="3" stroke-miterlimit="1.5" stroke-linecap="round" stroke-linejoin="round"/>
<path d="M853.813 607.062C862.459 622.962 873.216 635.967 880.122 652.556C881.589 656.086 877.474 662.689 881.233 664.28C896.633 670.788 907.29 673.588 924.27 673.859C940.853 674.124 954.249 669.574 969.448 663.54C973.052 662.111 967.787 656.295 968.762 652.833C973.722 635.219 986.895 625.198 993.572 608.061" stroke="#FFC9C9" stroke-width="3" stroke-miterlimit="1.5" stroke-linecap="round" stroke-linejoin="round"/>
<path fill-rule="evenodd" clip-rule="evenodd" d="M1086.24 530.53L647.92 640.568L648.966 643.032L1093.22 541.251" fill="#FFE2CA"/>
<path d="M1086.24 530.53L647.92 640.568L648.966 643.032L1093.22 541.251" stroke="#FFC9C9" stroke-width="3" stroke-miterlimit="1.5" stroke-linecap="round" stroke-linejoin="round"/>
<path d="M649.448 643.755L1090.12 553.173" stroke="#FFC9C9" stroke-width="3" stroke-miterlimit="1.5" stroke-linecap="round" stroke-linejoin="round"/>
<path d="M960.208 564.396L965.246 570.822L963.716 576.748" stroke="#FFC9C9" stroke-width="3" stroke-miterlimit="1.5" stroke-linecap="round" stroke-linejoin="round"/>
<path d="M1088.65 530.177L1095.83 540.699L1092.48 552.87" stroke="#FFC9C9" stroke-width="3" stroke-miterlimit="1.5" stroke-linecap="round" stroke-linejoin="round"/>
<path fill-rule="evenodd" clip-rule="evenodd" d="M1103.63 576.986L655.07 644.751L655.827 647.3L1109.34 588.311" fill="#FFE2CA"/>
<path d="M1103.63 576.986L655.07 644.751L655.827 647.3L1109.34 588.311" stroke="#FFC9C9" stroke-width="3" stroke-miterlimit="1.5" stroke-linecap="round" stroke-linejoin="round"/>
<path d="M656.355 648.374L1105.01 600.182" stroke="#FFC9C9" stroke-width="3" stroke-miterlimit="1.5" stroke-linecap="round" stroke-linejoin="round"/>
<path d="M974.74 598.614L979.012 605.485L976.81 611.233" stroke="#FFC9C9" stroke-width="3" stroke-miterlimit="1.5" stroke-linecap="round" stroke-linejoin="round"/>
<path d="M1106.46 576.583L1112.39 587.731L1107.67 599.517" stroke="#FFC9C9" stroke-width="3" stroke-miterlimit="1.5" stroke-linecap="round" stroke-linejoin="round"/>
<path fill-rule="evenodd" clip-rule="evenodd" d="M923.968 595.199C922.724 594.462 921.29 593.614 920.85 592.37C920.636 591.769 922.648 593.089 923.025 592.549C923.88 591.33 923.691 588.313 923.691 588.313C923.691 588.313 924.533 591.492 925.938 592.374C926.656 592.825 928.258 590.373 928.186 591.138C928.046 592.64 926.556 593.805 925.683 595.109C925.532 595.337 925.105 595.467 925.12 595.727C925.177 596.622 925.537 597.489 925.888 598.332" fill="#FFE2CA"/>
<path d="M923.968 595.199C922.724 594.462 921.29 593.614 920.85 592.37C920.636 591.769 922.648 593.089 923.025 592.549C923.88 591.33 923.691 588.313 923.691 588.313C923.691 588.313 924.533 591.492 925.938 592.374C926.656 592.825 928.258 590.373 928.186 591.138C928.046 592.64 926.556 593.805 925.683 595.109C925.532 595.337 925.105 595.467 925.12 595.727C925.177 596.622 925.537 597.489 925.888 598.332" stroke="#FFC9C9" stroke-width="3" stroke-miterlimit="1.5" stroke-linecap="round" stroke-linejoin="round"/>
<path fill-rule="evenodd" clip-rule="evenodd" d="M927.735 598.378C927.459 597.097 927.14 595.622 927.846 594.473C928.187 593.917 928.53 596.079 929.238 595.928C930.841 595.588 933.177 593.339 933.177 593.339C933.177 593.339 931.17 596.101 931.441 597.583C931.58 598.34 934.72 597.585 934.043 598.082C932.714 599.059 930.707 598.972 929.022 599.361C928.729 599.43 928.32 599.261 928.118 599.454C927.425 600.122 926.97 600.955 926.529 601.765" fill="#FFE2CA"/>
<path d="M927.735 598.378C927.459 597.097 927.14 595.622 927.846 594.473C928.187 593.917 928.53 596.079 929.238 595.928C930.841 595.588 933.177 593.339 933.177 593.339C933.177 593.339 931.17 596.101 931.441 597.583C931.58 598.34 934.72 597.585 934.043 598.082C932.714 599.059 930.707 598.972 929.022 599.361C928.729 599.43 928.32 599.261 928.118 599.454C927.425 600.122 926.97 600.955 926.529 601.765" stroke="#FFC9C9" stroke-width="3" stroke-miterlimit="1.5" stroke-linecap="round" stroke-linejoin="round"/>
<path fill-rule="evenodd" clip-rule="evenodd" d="M921.641 599.741C921.139 598.512 920.561 597.097 919.284 596.407C918.667 596.073 919.622 598.093 918.921 598.269C917.336 598.667 914.011 597.727 914.011 597.727C914.011 597.727 917.349 599.253 917.971 600.654C918.289 601.369 915.133 602.071 916.007 602.209C917.723 602.481 919.411 601.539 921.096 601.148C921.39 601.082 921.646 600.759 921.933 600.839C922.919 601.118 923.796 601.642 924.647 602.154" fill="#FFE2CA"/>
<path d="M921.641 599.741C921.139 598.512 920.561 597.097 919.284 596.407C918.667 596.073 919.622 598.093 918.921 598.269C917.336 598.667 914.011 597.727 914.011 597.727C914.011 597.727 917.349 599.253 917.971 600.654C918.289 601.369 915.133 602.071 916.007 602.209C917.723 602.481 919.411 601.539 921.096 601.148C921.39 601.082 921.646 600.759 921.933 600.839C922.919 601.118 923.796 601.642 924.647 602.154" stroke="#FFC9C9" stroke-width="3" stroke-miterlimit="1.5" stroke-linecap="round" stroke-linejoin="round"/>
</svg>
