<svg width="477" height="470" viewBox="0 0 477 470" fill="none" xmlns="http://www.w3.org/2000/svg">
<path fill-rule="evenodd" clip-rule="evenodd" d="M101.017 188.621C103.87 179.872 108.233 170.005 107.703 160.603C107.425 155.682 104.146 150.343 102.459 145.786C101.415 142.968 100.97 139.916 99.8596 137.147C96.1223 127.827 91.0909 118.845 85.7351 110.365C82.2107 104.787 83.2302 96.9758 79.734 91.4396C77.9605 88.6321 77.4367 82.3954 75.7702 79.5372C71.8525 72.8147 69.8995 71.1137 70.2802 63.0963C70.6381 55.5618 72.0428 50.448 77.4539 45.2054C80.7227 42.0381 83.3363 37.6184 86.5861 34.4339C93.6157 27.5474 99.5053 20.9926 107.181 14.9245C113.705 9.76712 119.898 6.11862 128.227 4.19741C137.711 2.01066 146.563 1.03919 156.033 2.18195C160.631 2.73656 165.174 1.88651 169.719 2.2626C173.155 2.54806 176.852 4.03157 180.117 5.09005C182.9 5.99265 186.158 6.67505 187.766 9.33847C192.96 17.9377 189.346 27.9897 191.841 37.2287C192.98 41.4409 194.521 45.7292 196.536 49.6124C198.273 52.9609 200.535 55.9905 201.419 59.7332C202.807 65.6111 199.911 71.5587 200.262 77.5869C200.603 83.4349 202.981 89.1142 203.312 95.0718C203.69 101.891 201.994 107.855 200.529 114.375C199.56 118.685 198.997 123.102 197.624 127.315C195.209 134.726 188.972 139.845 184.508 145.86C181.099 150.454 178.861 155.709 178.35 161.44C177.501 170.954 178.753 181.098 179.303 190.617C179.557 195.042 178.746 199.516 179.771 203.888C180.697 207.84 182.231 211.976 183.938 215.663C184.647 217.193 185.969 219.016 184.759 220.675C179.636 227.704 169.698 223.357 163.246 222.517C156.619 221.655 149.426 219.014 143.403 216.116C141.44 215.171 139.783 213.737 137.777 212.865C132.424 210.537 126.758 208.953 121.481 206.463C117.09 204.391 113.439 201.627 109.598 198.777C107.277 197.055 104.618 195.81 102.833 193.463L101.017 188.621Z" fill="url(#paint0_linear)"/>
<path fill-rule="evenodd" clip-rule="evenodd" d="M196.55 130.13C189.516 136.168 180.391 139.8 171.271 141.482C167.802 142.122 164.236 141.869 160.737 142.277C150.775 143.44 141.455 144.35 131.648 141.563C124.973 139.667 118.529 138.315 113.238 133.547C105.191 126.295 101.261 115.808 98.1947 105.738C95.9463 98.3523 92.6331 90.2633 91.8864 82.5576C91.2566 76.0481 93.0355 70.1666 94.4519 63.9009C95.5956 58.8387 96.2907 53.6079 98.1566 48.7378C103.59 34.5471 114.695 22.3963 128.903 16.6571C132.712 15.1193 136.857 14.7994 140.815 13.8478C146.695 12.4359 152.537 11.2315 158.603 11.1436C163.671 11.0711 169.745 9.64109 174.658 11.2107C178.159 12.3299 180.531 14.9108 183.265 17.1837C185.75 19.2508 188.393 21.1774 190.866 23.2862C190.914 27.9633 190.66 32.7138 191.89 37.2667C193.028 41.4789 194.57 45.7672 196.584 49.6504C198.322 52.9989 200.584 56.0285 201.467 59.7712C202.856 65.6491 199.959 71.5967 200.311 77.6249C200.652 83.4729 203.03 89.1522 203.36 95.1098C203.739 101.929 202.043 107.893 200.577 114.413C199.609 118.723 199.046 123.14 197.673 127.353C197.359 128.315 196.981 129.239 196.55 130.13Z" fill="url(#paint1_linear)"/>
<path fill-rule="evenodd" clip-rule="evenodd" d="M192.333 37.4939C191.458 32.7171 191.378 20.8745 191.11 11.4442C190.985 7.0562 189.794 2.37278 185.336 0.484193C185.11 0.388132 184.881 0.300228 184.65 0.219573C181.735 -0.803565 185.737 2.03567 184.817 2.85037C184.156 3.43398 182.62 2.54134 182.055 2.19516C181.737 2.00123 181.002 1.2264 181.121 1.57983C181.274 2.03204 181.636 2.46975 181.929 2.8413C182.078 3.03161 182.636 3.38686 182.394 3.39864C180.879 3.47385 179.358 3.2328 177.897 2.84312C177.432 2.71988 176.971 2.5776 176.509 2.44257C176.21 2.35466 175.602 1.87254 175.612 2.18429C175.624 2.57215 175.955 3.2029 175.473 3.13402C173.061 2.78784 170.845 1.06328 168.391 1.0959C168.166 1.09862 168.084 2.00757 167.987 2.17432C167.781 2.52594 166.883 2.57488 166.571 2.59481C163.464 2.79418 160.211 1.7357 157.09 1.50371C154.04 1.27624 150.824 1.91876 147.834 1.58527C146.02 1.38318 144.295 0.834 142.448 0.822219C140.978 0.813157 138.296 1.8372 136.967 1.42668C135.621 1.01072 134.224 0.899251 132.816 0.95725C129.251 1.10315 123.212 2.564 120.022 4.03845C116.754 5.54823 114.365 7.95066 111.492 10.0151C109.809 11.2249 107.738 11.8021 106.062 13.0763C102.67 15.6554 99.474 19.1055 96.3593 22.0607C94.0031 24.2946 92.4335 27.0015 89.7492 28.9173C87.6921 30.3845 85.0948 30.5838 83.0857 32.2151C80.6107 34.2233 79.9529 37.0353 78.1023 39.4541C77.0248 40.8633 75.2902 41.5175 74.0967 42.8216C72.3468 44.7356 70.8543 47.4398 69.4351 49.5948C68.334 51.2659 67.4822 53.0466 66.6955 54.8818C66.4228 55.517 66.1391 56.1442 65.8238 56.7586C65.7023 56.9951 65.2909 57.6712 65.4585 57.4655C65.6461 57.2353 65.8627 56.4668 65.9778 56.7405C66.3947 57.7292 65.7956 59.5897 65.6552 60.6481C65.5736 61.2671 65.8754 62.1054 65.8872 62.7569C65.9216 64.7289 65.3344 67.2147 65.9687 69.1314C67.1224 72.6159 67.5728 75.7161 68.9267 79.3138C69.0482 79.6356 69.3218 79.1462 69.5756 79.4027C70.0849 79.9165 70.3903 80.5753 70.6105 81.2568C71.33 83.4762 71.3382 85.8668 72.5689 87.8877C73.5911 89.567 73.4397 93.1665 75.7361 93.7737C79.3475 94.728 84.7668 90.0971 86.3953 87.1147C87.2073 85.6276 87.9984 84.1105 88.9282 82.6896C89.0487 82.5047 89.9051 81.5994 89.9404 81.642C90.7071 82.5663 90.747 84.1522 91.54 85.0304C92.2668 85.8351 93.5319 87.3829 94.0466 88.2919C94.4209 88.9543 94.816 89.7709 95.1014 90.4678C95.2573 90.8475 95.2301 91.9041 95.5292 91.6232C96.0258 91.1565 96.2224 90.0291 96.3729 89.3884C96.4426 89.0912 96.4599 88.1995 96.5541 88.4895C96.6601 88.8193 96.7481 89.1528 96.8269 89.4899C96.8668 89.6594 96.8459 90.1479 96.9392 90.0011C97.1305 89.7002 97.0888 88.9408 97.1196 88.6263C97.1368 88.4478 97.058 87.9521 97.1703 88.0916C97.3616 88.3291 97.4468 89.1447 97.618 88.8918C98.4581 87.653 98.7825 84.9343 98.9828 83.4517C99.6317 78.6441 98.2569 73.7024 98.5034 68.8523C98.7626 63.732 100.407 59.3033 101.816 54.4559C104.469 45.3201 105.851 35.2573 114.227 29.3051C118.934 25.9602 125.244 23.8696 130.812 22.2746C132.275 21.8559 134.322 20.6914 135.872 20.7467C137.527 20.8065 137.983 24.7722 137.993 25.5579C137.999 26.0418 137.973 26.5248 137.946 27.0078C137.935 27.2199 137.764 27.7845 137.924 27.644C138.229 27.3749 139.953 24.1088 140.651 24.3988C141.089 24.5819 140.69 25.9784 141.107 25.7509C141.321 25.6349 143.234 23.7971 143.336 23.8505C144.032 24.2203 143.625 27.3069 143.926 27.3957C144.219 27.4827 145.765 25.7527 146.042 25.4935C146.257 25.2914 146.629 24.6009 146.691 24.89C146.827 25.5207 146.684 26.2747 146.604 26.9073C146.561 27.2444 146.143 27.9829 146.478 27.9195C147.387 27.7491 148.233 26.9634 148.944 26.4188C149.011 26.3689 150.122 25.5887 150.125 25.5941C150.49 26.5484 150.771 26.2022 151.667 25.6331C151.857 25.5126 153.985 23.6004 154.056 23.6448C154.212 23.7436 153.985 25.0014 153.959 25.209C153.933 25.4156 153.684 25.8805 153.885 25.8279C154.918 25.5579 155.956 24.8728 156.853 24.3091C156.937 24.2556 158.341 23.2859 158.354 23.3013C158.421 23.3829 158.409 23.6747 158.54 23.6901C159.667 23.8161 160.82 23.2379 161.79 22.7241C162.207 22.5039 162.835 21.5958 163.022 22.0281C163.325 22.7286 163.218 23.6312 163.129 24.3616C163.072 24.8311 162.556 26.049 162.934 25.7654C163.923 25.0223 164.668 23.9493 165.46 23.0141C165.721 22.7069 165.987 22.4051 166.264 22.1115C166.424 21.9429 166.79 21.3838 166.749 21.6121C166.669 22.0643 166.528 22.5111 166.421 22.9579C166.361 23.2071 166.02 23.807 166.255 23.7073C167.26 23.2841 168.26 21.9538 169.055 21.2025C169.118 21.1436 170.247 20.1114 170.274 20.1504C170.323 20.222 170.488 21.3511 170.501 21.352C171.199 21.3892 172.264 20.512 172.857 20.6452C174.014 20.9053 173.449 22.6108 174.808 22.3335C176.195 22.0498 177.856 20.3633 179.316 20.9615C179.826 21.1699 179.921 21.9384 180.237 22.3235C180.778 22.9833 182.424 22.7467 183.164 23.3938C184.72 24.7568 185.457 26.7749 186.789 28.2865C189.044 30.8448 188.358 32.3746 190.397 35.0769C191.449 36.4689 191.889 38.0784 192.574 39.6462C192.574 39.6462 192.463 38.2044 192.333 37.4939Z" fill="url(#paint2_linear)"/>
<path fill-rule="evenodd" clip-rule="evenodd" d="M138.058 199.088C142.425 202.678 147.817 205.034 152.61 207.975C159.68 212.313 166.669 218.487 175.235 219.453C177.942 219.759 181.837 219.742 181.613 215.989C181.575 215.344 180.594 212.455 180.863 212.199C181.757 211.346 186.43 212.255 187.589 212.289C189.087 212.334 190.41 212.578 191.659 213.431C206.062 223.259 207.633 244.532 212.905 259.703C214.462 264.184 217.174 267.351 219.392 271.432C223.069 278.201 226.355 285.673 228.784 292.971C232.211 303.273 231.708 314.352 233.622 324.941C235.098 333.102 238.76 340.762 240.657 348.832C242.563 356.951 242.834 365.296 244.059 373.526C247.015 393.397 250.669 413.595 252.21 433.653C252.565 438.256 252.815 442.925 252.787 447.545C252.777 449.191 253.143 451.348 251.808 452.597C246.352 457.698 235.595 455.948 228.896 456.09C222.236 456.23 214.957 457.27 208.341 456.249C202.847 455.402 197.96 452.585 192.355 452.233C184.855 451.761 176.596 453.437 169.133 454.274C161.155 455.167 148.071 460.728 143.295 451.304C136.618 438.127 144.433 422.801 147.913 409.952C150.112 401.832 150.607 392.935 150.814 384.561C151.225 367.937 150.992 351.569 152.181 334.948C153.211 320.56 155.627 304.933 153.056 290.62C152.138 285.514 150.654 280.559 149.862 275.417C148.836 268.748 148.335 261.738 146.431 255.242C142.532 241.933 134.025 228.927 134.24 214.564C134.311 209.81 136.513 205.574 137.906 201.135L138.058 199.088Z" fill="white"/>
<path fill-rule="evenodd" clip-rule="evenodd" d="M155.34 454.409C159.677 437.902 160.082 419.998 161.173 403.069C162.039 389.636 164.737 376.394 166.098 363.021C166.933 354.81 166.418 346.389 167.481 338.221C168.217 332.558 170.432 327.138 170.805 321.454C171.144 316.281 170.063 310.541 169.509 305.391C168.931 300.017 169.235 294.609 168.594 289.237C168.172 285.708 166.929 282.302 166.358 278.793C165.296 272.26 165.401 264.862 163.645 258.542C162.53 254.528 158.987 251.11 156.986 247.439C153.867 241.718 151.953 235.711 150.574 229.34C148.653 220.467 152.892 211.895 152.431 203.131C152.129 197.392 147.925 190.142 144.238 185.949C137.419 178.194 127.772 174.408 119.052 169.445C114.644 166.935 112.101 163.131 106.664 163.421C100.131 163.77 98.6005 169.947 96.0866 174.921C94.2153 178.623 90.4626 183.57 86.9047 185.906C84.9491 187.191 82.6001 187.418 80.6073 188.56C72.366 193.28 64.8288 196.981 55.3107 199.215C47.8342 200.971 40.685 200.825 33.426 204.034C26.4199 207.131 22.3383 212.578 17.6367 218.309C14.1885 222.512 10.9723 226.075 9.04656 231.282C2.78902 248.205 0.200804 267.277 0.158211 285.203C0.140993 292.151 -0.59759 299.393 1.27106 306.192C2.40295 310.312 5.30473 313.431 7.21869 317.158C12.6217 327.682 18.8348 337.597 23.8816 348.335C27.5781 356.2 28.5016 365.055 30.5243 373.439C33.2702 384.819 36.7673 395.516 37.9989 407.274C39.2232 418.967 39.4824 431.446 39.2595 443.233C39.1834 447.273 36.6876 454.192 38.1466 458.044C38.6849 459.463 42.3352 459.957 43.6003 460.392C46.8682 461.515 50.2693 462.597 53.7656 462.431C57.0878 462.273 60.8759 461.003 64.1909 461.764C69.6283 463.013 73.2106 468.568 78.9335 468.933C83.3015 469.212 87.4938 466.28 91.9252 465.973C99.4932 465.45 107.5 465.025 115.098 464.902C118.283 464.851 121.241 465.686 124.433 465.074C130.748 463.865 138.653 459.276 145.301 459.555L155.34 454.409Z" fill="#FF5555"/>
<path fill-rule="evenodd" clip-rule="evenodd" d="M285.357 452.506C283.492 449.374 283.058 445.726 281.646 442.414C279.131 436.509 275.363 431.335 273.498 425.08C271.977 419.981 272.216 414.314 271.052 409.12C269.147 400.622 266.34 392.689 265.524 383.854C264.819 376.207 266.173 368.496 265.438 360.787C264.634 352.352 260.781 344.685 259.919 336.416C259.376 331.203 262.924 326.128 262.01 320.978C261.019 315.397 257.722 309.633 255.803 304.269C253.798 298.662 251.279 293.163 249.451 287.51C248.356 284.127 248.119 280.444 246.424 277.269C244.134 272.977 239.69 270.34 236.693 266.642C231.942 260.779 228.626 254.04 223.94 248.099C220.567 243.821 215.698 240.586 211.537 237.053C209.748 235.534 207.342 234.117 206.387 231.856C205.037 228.661 205.677 224.507 205.68 221.16C205.684 214.743 204.494 208.48 199.788 203.875C195.268 199.452 191.447 195.403 185.399 193.17C184.349 192.783 183.309 192.354 182.246 192.002C182.068 191.943 179.369 191.159 179.369 191.159C179.369 191.159 179.247 196.624 179.266 198.963C179.317 205.329 180.177 211.088 184.524 216.205C186.863 218.957 190.567 220.227 192.615 223.209C194.108 225.384 194.438 228.096 195.427 230.49C197.544 235.615 200.272 240.59 201.237 246.116C202.254 251.945 203.169 258.806 205.502 264.264C207.796 269.632 212.633 274.75 215.716 279.819C218.55 284.481 219.769 289.747 221.984 294.685C223.121 297.217 225.129 299.222 226.273 301.77C229.214 308.327 229.208 315.948 231.033 322.835C232.076 326.774 234.617 330.068 235.8 333.952C236.948 337.719 236.895 341.749 237.624 345.603C238.485 350.145 240.158 354.487 240.977 359.045C242.036 364.934 241.189 370.914 241.893 376.837C243.54 390.728 246.043 405.067 246.397 419.051C246.581 426.348 246.437 433.605 246.975 440.9C247.209 444.082 247.094 447.981 248.584 450.896C250.696 455.029 255.599 456.097 259.776 456.546C269.002 457.538 279.547 453.712 283.81 453.038C284.349 452.953 285.357 452.506 285.357 452.506Z" fill="#FF5555"/>
<path fill-rule="evenodd" clip-rule="evenodd" d="M54.1084 199.513C58.6459 202.527 62.4276 206.369 66.9026 210.556C71.7119 215.057 76.8331 218.529 81.0462 223.831C83.5546 226.988 84.9511 230.809 87.0898 234.197C92.0279 242.024 97.2225 249.977 101.624 258.101C104.099 262.668 105.714 267.713 108.034 272.374C112.605 281.559 119.401 289.503 123.192 298.993C124.905 303.281 125.46 307.984 127.03 312.339C127.424 313.435 129.359 315.5 129.263 316.546C129.089 318.426 127.733 319.657 128.532 321.657C130.22 325.877 135.772 328.565 138.442 332.236C140.216 334.677 140.743 337.972 141.704 340.79C143.998 347.52 146.792 367.131 146.792 367.131C146.792 367.131 141.926 369.075 139.688 369.594C133.982 370.919 128.103 371.386 122.518 373.259C119.311 374.335 116.94 376.415 114.278 378.403C107.735 383.288 100.859 390.063 96.9895 397.372C89.3056 411.883 94.9487 425.561 98.3117 440.332C99.2506 444.454 99.5723 456.264 99.6756 465.517C97.0638 465.663 94.4702 465.828 91.9255 466.004C87.494 466.31 83.3018 469.243 78.9337 468.964C73.2109 468.598 69.6285 463.043 64.1911 461.794C60.8761 461.033 57.0881 462.304 53.7658 462.461C50.2696 462.627 46.8684 461.545 43.6006 460.422C42.3355 459.987 38.6851 459.493 38.1468 458.074C37.7118 456.925 37.6285 455.504 37.7282 453.968C38.1632 451.261 38.5646 448.709 38.8474 446.75C39.0703 445.469 39.2407 444.276 39.2597 443.264C39.267 442.886 39.2742 442.506 39.2796 442.125C39.2987 440.965 39.3123 439.799 39.3213 438.627C39.3449 435.421 39.3295 432.179 39.2651 428.928C39.2552 428.387 39.2434 427.846 39.2298 427.304C39.2126 426.619 39.1936 425.933 39.1727 425.249C39.0513 421.405 38.8582 417.566 38.5764 413.778C38.4142 411.601 38.223 409.439 37.9992 407.304C37.9076 406.427 37.8025 405.556 37.6865 404.69C37.5859 403.937 37.4771 403.187 37.3602 402.442L37.3539 402.402L37.2678 401.864C36.9216 399.739 36.5147 397.642 36.0652 395.561L36.0489 395.484L35.9828 395.181C35.6085 393.472 35.207 391.774 34.7884 390.079C34.434 388.646 34.0679 387.217 33.6963 385.786C32.8082 382.375 31.8875 378.959 31.0211 375.489C30.8535 374.819 30.6876 374.145 30.5245 373.469C30.143 371.89 29.8014 370.294 29.4724 368.691C29.2005 367.368 28.9386 366.043 28.6704 364.716L28.5081 363.917L28.3604 363.2C28.0659 361.776 27.7578 360.355 27.4198 358.944C27.3663 358.724 27.3128 358.504 27.2584 358.284C27.1977 358.039 27.1361 357.794 27.0736 357.55C26.8815 356.805 26.6794 356.064 26.4646 355.327L26.4284 355.204L26.3885 355.071C26.1538 354.277 25.9027 353.488 25.6327 352.706C25.4324 352.126 25.2212 351.549 24.9983 350.976C24.6558 350.095 24.2851 349.225 23.8818 348.366C23.7015 347.983 23.5211 347.602 23.3372 347.22C22.6267 345.739 21.8945 344.273 21.1468 342.819C20.565 341.686 19.9732 340.56 19.3751 339.439C18.1898 337.22 16.9763 335.019 15.7538 332.824C14.7243 330.972 13.6885 329.125 12.6581 327.273C11.412 325.035 10.1741 322.789 8.96521 320.522C8.49306 319.637 8.02545 318.749 7.56418 317.856C7.44818 317.634 7.3331 317.411 7.21892 317.188L7.15185 317.059C6.81111 316.405 6.44135 315.77 6.0562 315.145C5.7943 314.719 5.52425 314.297 5.25329 313.876C4.53555 312.763 3.8033 311.661 3.14629 310.52L2.95416 310.181C2.79557 309.899 2.64332 309.613 2.49651 309.324L2.40861 309.15C2.12406 308.576 1.86487 307.987 1.64193 307.378C1.50328 307.001 1.37913 306.616 1.27129 306.222C0.969511 305.125 0.735701 304.016 0.556267 302.9C0.522736 302.691 0.491014 302.484 0.462015 302.275C0.332424 301.373 0.237286 300.466 0.167505 299.556C0.119475 298.929 0.0832237 298.299 0.0578492 297.669C0.0442557 297.334 0.0333647 296.999 0.0243024 296.663C-0.0500088 293.727 0.0641975 290.772 0.124915 287.852C0.14304 286.975 0.155716 286.103 0.158434 285.234L0.16026 284.759C0.162072 284.357 0.165678 283.955 0.169303 283.55L0.181085 282.706C0.185616 282.394 0.191971 282.08 0.198314 281.765C0.297094 276.999 0.578935 272.168 1.06196 267.334C1.21149 265.84 1.38095 264.347 1.56945 262.854C1.75251 261.412 1.95368 259.97 2.1739 258.531C2.55633 256.037 2.99587 253.552 3.49611 251.083C3.58401 250.649 3.6737 250.215 3.76614 249.782C4.08332 248.287 4.42228 246.8 4.78477 245.322L4.81649 245.191L4.9225 244.766C5.28499 243.31 5.67105 241.861 6.07976 240.424L6.1405 240.212L6.18126 240.071C6.87725 237.649 7.6394 235.258 8.47132 232.905L8.61359 232.506C8.75586 232.106 8.90089 231.709 9.04679 231.313C9.09754 231.177 9.14827 231.042 9.20083 230.909C9.25521 230.768 9.31139 230.628 9.36849 230.488C9.5153 230.128 9.66847 229.777 9.82796 229.432L9.93308 229.207C10.176 228.694 10.4315 228.196 10.6997 227.711C10.9644 227.231 11.2399 226.764 11.5262 226.306C11.7637 225.926 12.0083 225.552 12.2594 225.183L12.3609 225.034L12.4968 224.839C12.6935 224.556 12.8946 224.275 13.0985 223.997C13.7248 223.143 14.3818 222.308 15.0615 221.469C15.8925 220.443 16.757 219.411 17.637 218.339C18.7498 216.983 19.8282 215.64 20.9203 214.343C22.2696 212.737 23.639 211.197 25.1161 209.775C25.6091 209.3 26.1148 208.839 26.6368 208.392L26.8416 208.217C26.9259 208.148 27.0093 208.077 27.0935 208.007L27.3491 207.799L27.5149 207.666C28.2381 207.09 28.9921 206.544 29.785 206.031C30.375 205.649 30.9876 205.287 31.6247 204.945L31.8358 204.832C31.9391 204.778 32.0425 204.726 32.1458 204.672L32.2944 204.598C32.6632 204.412 33.0402 204.235 33.4263 204.064L33.758 203.92L33.8685 203.873L34.0888 203.781L34.2211 203.726L34.4204 203.645L34.5609 203.589L34.7512 203.514L34.8971 203.458L35.082 203.387L35.2306 203.332L35.4137 203.265L35.5632 203.21L35.7444 203.146L35.8958 203.094L36.0752 203.031L36.2265 202.98L36.4069 202.921L36.5582 202.871L36.7377 202.813L36.889 202.765L37.0694 202.708L37.2198 202.662L37.4019 202.608L37.5497 202.563L37.7345 202.51L37.8805 202.468L38.0689 202.416L38.2103 202.376L38.407 202.323L38.5402 202.287L38.7513 202.232L38.87 202.201L39.122 202.137L39.2008 202.118L39.5325 202.036L39.5824 202.024L39.8633 201.958L39.9711 201.934L40.1931 201.883L40.3191 201.855L40.5248 201.809L40.6571 201.78L40.8556 201.738L40.9924 201.71L41.1873 201.669L41.325 201.641L41.5189 201.602L41.6576 201.575L41.8515 201.538L41.9884 201.51L42.1841 201.474L42.3201 201.449L42.5185 201.412L42.6508 201.388L42.8538 201.352L42.9807 201.329L43.1185 201.306L43.6504 201.214L44.1208 201.137L44.3102 201.106L44.9436 201.006L44.969 201.002L45.6496 200.898C45.8771 200.864 46.1045 200.83 46.332 200.796L46.3419 200.794L47.5744 200.613L47.6659 200.6L48.3837 200.495L48.8159 200.43L48.8721 200.422L48.9093 200.417L49.0706 200.393L49.3642 200.348L49.5219 200.324L49.589 200.314L49.7575 200.288L50.0131 200.248L50.1735 200.223L50.2632 200.209L50.4463 200.18L50.6737 200.143L50.826 200.118L50.9366 200.1C51.9896 199.927 53.0463 199.737 54.1084 199.513Z" fill="url(#paint3_linear)"/>
<path fill-rule="evenodd" clip-rule="evenodd" d="M447.901 58.3306L143.432 7.92957L167.137 25.5395L143.432 38.8983L190.102 57.1154L153.803 74.1181L176.027 92.9424L138.988 114.196L170.841 136.056L121.208 152.452L173.805 167.026L144.173 181.599L441.332 161.561L447.901 58.3306Z" fill="url(#paint4_linear)"/>
<path d="M340.497 209.217C344.442 220.26 371.978 220.518 402 209.791C432.022 199.065 453.161 181.418 449.215 170.374C445.27 159.331 417.734 159.073 387.712 169.8C357.69 180.526 336.551 198.173 340.497 209.217Z" fill="#979797"/>
<path d="M345.186 210.029C348.725 219.934 374.272 219.86 402.248 209.865C430.224 199.87 450.035 183.738 446.496 173.834C442.957 163.929 417.41 164.003 389.434 173.998C361.458 183.993 341.647 200.125 345.186 210.029Z" fill="#5D5D5D"/>
<path d="M367.237 214.326C368.62 218.195 384.391 216.098 402.463 209.642C420.534 203.185 434.064 194.814 432.681 190.944C431.299 187.074 415.528 189.171 397.456 195.628C379.384 202.084 365.855 210.456 367.237 214.326Z" fill="#8F8F8F"/>
<path d="M443.393 172.939C461.954 172.939 477 147.094 477 115.214C477 83.3335 461.954 57.4893 443.393 57.4893C424.833 57.4893 409.787 83.3335 409.787 115.214C409.787 147.094 424.833 172.939 443.393 172.939Z" fill="#616161"/>
<path d="M446.723 168.686C463.368 168.686 476.862 144.998 476.862 115.778C476.862 86.5577 463.368 62.8699 446.723 62.8699C430.078 62.8699 416.585 86.5577 416.585 115.778C416.585 144.998 430.078 168.686 446.723 168.686Z" fill="#7F7F7F"/>
<path d="M452.658 144.044C461.163 144.044 468.058 131.483 468.058 115.988C468.058 100.494 461.163 87.9327 452.658 87.9327C444.153 87.9327 437.258 100.494 437.258 115.988C437.258 131.483 444.153 144.044 452.658 144.044Z" fill="#4E4E4E"/>
<path d="M451.837 99.6035C451.766 98.3017 452.111 93.115 452.364 91.8351C452.463 91.3404 453.175 91.5087 453.379 91.9041C453.839 92.8073 454.784 97.2096 455.137 97.2335C455.49 97.2575 455.265 92.9041 455.489 92.0473C455.607 91.5867 456.429 91.6316 456.454 92.1129C456.525 93.4147 456.187 98.6019 455.927 99.8813C455.82 100.386 455.094 100.206 454.882 99.8104C454.421 98.9289 453.498 94.6262 453.146 94.6022C452.8 94.5788 453.025 98.834 452.801 99.6691C452.683 100.13 451.862 100.085 451.837 99.6035Z" fill="#FF5555"/>
<path fill-rule="evenodd" clip-rule="evenodd" d="M453.64 108.77C453.595 108.058 452.487 109.475 452.552 108.77C452.652 107.681 453.68 102.234 454.244 102.234C454.808 102.234 455.836 107.681 455.937 108.77C456.002 109.475 454.893 108.058 454.849 108.77C454.667 111.692 455.05 123.381 454.849 126.304C454.794 127.093 453.694 127.093 453.64 126.304C453.438 123.381 453.821 111.692 453.64 108.77Z" fill="#FF5555"/>
<path d="M454.41 118.215C455.438 118.215 456.272 117.142 456.272 115.818C456.272 114.494 455.438 113.421 454.41 113.421C453.382 113.421 452.549 114.494 452.549 115.818C452.549 117.142 453.382 118.215 454.41 118.215Z" fill="#FF5555"/>
<path fill-rule="evenodd" clip-rule="evenodd" d="M98.3269 97.9095C97.6382 96.021 96.0296 94.0843 94.6712 92.6144C91.657 89.3538 87.5817 83.7016 82.3346 85.6364C79.9458 86.5173 78.2294 89.3538 77.4709 91.6402C75.8968 96.388 75.6484 101.697 77.3603 106.434C77.8152 107.695 78.6644 108.645 79.364 109.763C81.7963 113.65 84.7479 116.62 88.0276 119.776C89.8935 121.572 91.715 123.761 94.247 124.683C98.5272 126.241 103.696 123.405 104.588 118.945C105.258 115.596 104.183 112.254 103.134 109.092L98.3269 97.9095Z" fill="url(#paint5_linear)"/>
<path fill-rule="evenodd" clip-rule="evenodd" d="M460.255 170.049C460.255 170.049 465.633 172 467.536 175.084C471.484 181.481 472.456 182.335 473.771 189.699C474.785 195.381 474.455 206.309 474.157 211.264C473.76 217.869 475.02 224.291 473.001 230.954C472.069 234.027 466.306 235.564 466.074 238.154C465.558 243.923 461.745 249.244 459.287 254.468C453.546 266.666 447.794 277.973 438.78 287.716C428.692 298.621 418.118 307.093 405.225 314.71C388.864 324.374 371.442 332.784 354.761 341.905C346.572 346.381 338.015 350.302 330.71 356.194C323.195 362.256 317.93 370.861 310.314 377.135C305.295 381.27 298.899 382.814 293.711 386.698C286.249 392.283 281.297 400.13 273.928 405.786C263.659 413.668 251.612 418.833 241.068 426.35C223.252 439.054 207.235 453.849 188.698 465.444L181.021 466.322C176.137 465.902 169.703 468.556 164.715 468.972C153.098 469.94 139.646 469.485 128.143 468.012C114.527 466.267 99.782 462.237 91.1918 450.789C87.7273 446.172 87.1545 439.693 86.4169 434.145C84.125 416.905 88.1459 395.747 101.458 383.7C116.208 370.352 134.168 369.408 152.602 366.019C165.758 363.601 178.38 358.833 191.338 355.649C196.402 354.406 201.667 354.596 206.74 353.336C218.238 350.48 228.519 341.142 238.313 334.895C249.281 327.897 261.314 323.334 271.417 314.98C282.173 306.084 295.424 294.757 299.428 280.74C304.343 263.534 297.987 242.748 305.44 226.222C308.442 219.566 312.903 218.591 318.66 212.651C322.825 208.355 328.42 200.276 332.293 197.492C342.377 190.239 352.111 183.323 363.671 178.232C375.573 172.993 381.2 186.659 375.217 198.527C369.7 209.473 362.233 219.152 353.575 227.657C352.113 229.092 347.364 233.564 347.717 235.569C348.063 237.543 354.892 236.566 357.249 235.517C362.429 233.213 372.616 227.157 378.796 221.742C398.467 204.505 416.787 178.57 432.403 157.769C438.522 149.619 445.331 138.32 456.693 137.929C458.854 137.853 460.895 138.152 462.893 138.982C464.348 139.586 465.706 140.38 466.947 141.352C476.158 148.567 460.648 169.547 460.648 169.547L460.255 170.049L444.622 193.029C444.622 193.029 438.449 203.052 435.9 206.653C430.79 213.875 423.646 219.451 418.139 226.373C414.577 230.851 411.733 235.861 408.768 240.754C407.727 242.474 406.004 243.593 405.116 246.283C410.558 245.844 411.276 245.24 411.276 245.24C413.73 243.285 418.042 237.443 420.861 234.446C429.088 225.696 441.029 215.045 444.502 202.633C445.33 199.672 444.622 193.029 444.622 193.029L460.255 170.049Z" fill="url(#paint6_linear)"/>
<path fill-rule="evenodd" clip-rule="evenodd" d="M301.652 260.126C301.636 248.454 300.938 236.546 305.567 226.282C308.569 219.625 313.03 218.65 318.787 212.711C322.952 208.414 328.547 200.335 332.419 197.551C342.504 190.299 352.238 183.382 363.798 178.292C375.699 173.052 381.327 186.718 375.344 198.586C369.827 209.533 362.36 219.211 353.701 227.716C352.24 229.152 347.491 233.624 347.844 235.629C347.893 235.915 348.08 236.139 348.37 236.31C338.326 243.098 317.159 256.504 301.652 260.126Z" fill="url(#paint7_linear)"/>
<path fill-rule="evenodd" clip-rule="evenodd" d="M444.522 193.466C443.306 195.435 438.3 203.502 436.07 206.653C430.961 213.875 423.817 219.451 418.31 226.373C414.747 230.851 411.903 235.861 408.938 240.754C408.102 242.135 406.229 244.538 405.299 246.27C393.875 251.94 365.483 261.887 362.212 233.093C367.537 230.164 374.364 225.775 378.966 221.742C398.637 204.505 416.957 178.57 432.574 157.769C438.693 149.619 445.501 138.32 456.863 137.929C459.024 137.853 461.065 138.152 463.063 138.982C464.518 139.586 465.876 140.38 467.117 141.352C476.328 148.567 460.818 169.547 460.818 169.547L460.425 170.049L444.792 193.029L444.522 193.466Z" fill="url(#paint8_linear)"/>
<path fill-rule="evenodd" clip-rule="evenodd" d="M460.418 170.06C461.433 170.458 465.981 172.329 467.702 175.098C471.67 181.483 472.622 182.349 473.937 189.713C474.951 195.395 474.621 206.322 474.323 211.278C473.926 217.883 475.186 224.305 473.167 230.968C472.235 234.041 466.471 235.578 466.239 238.168C466.234 238.236 466.227 238.303 466.219 238.371L432.075 267.736C432.075 267.736 414.684 253.196 411.486 245.218C413.949 243.227 418.225 237.439 421.026 234.46C429.254 225.71 441.195 215.059 444.667 202.647C445.496 199.686 444.788 193.043 444.788 193.043L460.418 170.06Z" fill="url(#paint9_linear)"/>
<path d="M305.383 130.664V126.867C305.383 121.383 306.227 116.883 307.914 113.367C309.602 109.805 312.742 106.055 317.336 102.117C323.711 96.7266 327.719 92.6719 329.359 89.9531C331.047 87.2344 331.891 83.9531 331.891 80.1094C331.891 75.3281 330.344 71.6484 327.25 69.0703C324.203 66.4453 319.797 65.1328 314.031 65.1328C310.328 65.1328 306.719 65.5781 303.203 66.4688C299.688 67.3125 295.656 68.8828 291.109 71.1797L286.961 61.6875C295.82 57.0469 305.078 54.7266 314.734 54.7266C323.688 54.7266 330.648 56.9297 335.617 61.3359C340.586 65.7422 343.07 71.9531 343.07 79.9688C343.07 83.3906 342.602 86.4141 341.664 89.0391C340.773 91.6172 339.438 94.0781 337.656 96.4219C335.875 98.7188 332.031 102.445 326.125 107.602C321.391 111.633 318.25 114.984 316.703 117.656C315.203 120.328 314.453 123.891 314.453 128.344V130.664H305.383ZM301.938 151.547C301.938 145.172 304.75 141.984 310.375 141.984C313.094 141.984 315.18 142.805 316.633 144.445C318.133 146.086 318.883 148.453 318.883 151.547C318.883 154.547 318.133 156.891 316.633 158.578C315.133 160.219 313.047 161.039 310.375 161.039C307.938 161.039 305.922 160.312 304.328 158.859C302.734 157.359 301.938 154.922 301.938 151.547Z" fill="#FF5555"/>
<path d="M359.73 73.2773V72.6445C359.73 71.7305 359.871 70.9805 360.152 70.3945C360.434 69.8008 360.957 69.1758 361.723 68.5195C362.785 67.6211 363.453 66.9453 363.727 66.4922C364.008 66.0391 364.148 65.4922 364.148 64.8516C364.148 64.0547 363.891 63.4414 363.375 63.0117C362.867 62.5742 362.133 62.3555 361.172 62.3555C360.555 62.3555 359.953 62.4297 359.367 62.5781C358.781 62.7188 358.109 62.9805 357.352 63.3633L356.66 61.7812C358.137 61.0078 359.68 60.6211 361.289 60.6211C362.781 60.6211 363.941 60.9883 364.77 61.7227C365.598 62.457 366.012 63.4922 366.012 64.8281C366.012 65.3984 365.934 65.9023 365.777 66.3398C365.629 66.7695 365.406 67.1797 365.109 67.5703C364.812 67.9531 364.172 68.5742 363.188 69.4336C362.398 70.1055 361.875 70.6641 361.617 71.1094C361.367 71.5547 361.242 72.1484 361.242 72.8906V73.2773H359.73ZM359.156 76.7578C359.156 75.6953 359.625 75.1641 360.562 75.1641C361.016 75.1641 361.363 75.3008 361.605 75.5742C361.855 75.8477 361.98 76.2422 361.98 76.7578C361.98 77.2578 361.855 77.6484 361.605 77.9297C361.355 78.2031 361.008 78.3398 360.562 78.3398C360.156 78.3398 359.82 78.2188 359.555 77.9766C359.289 77.7266 359.156 77.3203 359.156 76.7578Z" fill="#FF5555"/>
<path d="M267.461 130.555V129.289C267.461 127.461 267.742 125.961 268.305 124.789C268.867 123.602 269.914 122.352 271.445 121.039C273.57 119.242 274.906 117.891 275.453 116.984C276.016 116.078 276.297 114.984 276.297 113.703C276.297 112.109 275.781 110.883 274.75 110.023C273.734 109.148 272.266 108.711 270.344 108.711C269.109 108.711 267.906 108.859 266.734 109.156C265.562 109.438 264.219 109.961 262.703 110.727L261.32 107.562C264.273 106.016 267.359 105.242 270.578 105.242C273.562 105.242 275.883 105.977 277.539 107.445C279.195 108.914 280.023 110.984 280.023 113.656C280.023 114.797 279.867 115.805 279.555 116.68C279.258 117.539 278.812 118.359 278.219 119.141C277.625 119.906 276.344 121.148 274.375 122.867C272.797 124.211 271.75 125.328 271.234 126.219C270.734 127.109 270.484 128.297 270.484 129.781V130.555H267.461ZM266.312 137.516C266.312 135.391 267.25 134.328 269.125 134.328C270.031 134.328 270.727 134.602 271.211 135.148C271.711 135.695 271.961 136.484 271.961 137.516C271.961 138.516 271.711 139.297 271.211 139.859C270.711 140.406 270.016 140.68 269.125 140.68C268.312 140.68 267.641 140.438 267.109 139.953C266.578 139.453 266.312 138.641 266.312 137.516Z" fill="#FF5555"/>
<defs>
<linearGradient id="paint0_linear" x1="142.5" y1="105.5" x2="183.5" y2="253" gradientUnits="userSpaceOnUse">
<stop stop-color="#FFDE9E"/>
<stop offset="1" stop-color="#D6AE62"/>
</linearGradient>
<linearGradient id="paint1_linear" x1="117" y1="121" x2="115.421" y2="202.782" gradientUnits="userSpaceOnUse">
<stop stop-color="#FFDE9E"/>
<stop offset="1" stop-color="#D6AE62"/>
</linearGradient>
<linearGradient id="paint2_linear" x1="111.648" y1="31.7656" x2="75.7887" y2="12.3825" gradientUnits="userSpaceOnUse">
<stop stop-color="#0C0800"/>
<stop offset="1" stop-color="#3F3F3F"/>
</linearGradient>
<linearGradient id="paint3_linear" x1="63" y1="316" x2="137" y2="182.5" gradientUnits="userSpaceOnUse">
<stop stop-color="#FF4444"/>
<stop offset="1" stop-color="#FF5555"/>
</linearGradient>
<linearGradient id="paint4_linear" x1="185.041" y1="87.5992" x2="442.848" y2="108.755" gradientUnits="userSpaceOnUse">
<stop stop-color="white" stop-opacity="0"/>
<stop offset="1" stop-color="#FF0809" stop-opacity="0.47"/>
</linearGradient>
<linearGradient id="paint5_linear" x1="102.308" y1="107.367" x2="23.7877" y2="98.159" gradientUnits="userSpaceOnUse">
<stop stop-color="#FFDE9E"/>
<stop offset="1" stop-color="#D6AE62"/>
</linearGradient>
<linearGradient id="paint6_linear" x1="322.915" y1="322.403" x2="362.842" y2="392.389" gradientUnits="userSpaceOnUse">
<stop stop-color="#FFDE9E"/>
<stop offset="1" stop-color="#D6AE62"/>
</linearGradient>
<linearGradient id="paint7_linear" x1="325.837" y1="222.858" x2="391.64" y2="195.503" gradientUnits="userSpaceOnUse">
<stop offset="0.1642" stop-color="#FFDE9E"/>
<stop offset="1" stop-color="#D6AE62"/>
</linearGradient>
<linearGradient id="paint8_linear" x1="371.661" y1="249.842" x2="518.753" y2="165.891" gradientUnits="userSpaceOnUse">
<stop offset="0.0954163" stop-color="#FFDE9E"/>
<stop offset="1" stop-color="#D6AE62"/>
</linearGradient>
<linearGradient id="paint9_linear" x1="432.871" y1="265.752" x2="463.875" y2="130.531" gradientUnits="userSpaceOnUse">
<stop offset="0.0916917" stop-color="#FFDE9E"/>
<stop offset="1" stop-color="#D6AE62"/>
</linearGradient>
</defs>
</svg>
