<svg width="1114" height="579" viewBox="0 0 1114 579" fill="none" xmlns="http://www.w3.org/2000/svg">
<path fill-rule="evenodd" clip-rule="evenodd" d="M1061.98 104.344L715 478.168L717.57 480.157L1075.48 111.575" fill="#FFE2CA"/>
<path d="M1061.98 104.344L715 478.168L717.57 480.157L1075.48 111.575" stroke="#FFC9C9" stroke-width="3" stroke-miterlimit="1.5" stroke-linecap="round" stroke-linejoin="round"/>
<path d="M718.75 480.545L1080.4 125.906" stroke="#FFC9C9" stroke-width="3" stroke-miterlimit="1.5" stroke-linecap="round" stroke-linejoin="round"/>
<path fill-rule="evenodd" clip-rule="evenodd" d="M1087.03 126.844L832.656 564.504L834.635 566.702L1102.68 131.786" fill="#FFE2CA"/>
<path d="M1087.03 126.844L832.656 564.504L834.635 566.702L1102.68 131.786" stroke="#FFC9C9" stroke-width="3" stroke-miterlimit="1.5" stroke-linecap="round" stroke-linejoin="round"/>
<path d="M836.406 567.195L1111.15 143.719" stroke="#FFC9C9" stroke-width="3" stroke-miterlimit="1.5" stroke-linecap="round" stroke-linejoin="round"/>
<path fill-rule="evenodd" clip-rule="evenodd" d="M745 456.515C747.501 464.359 749.998 472.213 752.134 480.164C753.63 485.736 751.953 492.839 755.887 497.058C763.164 504.856 774.301 507.837 783.292 513.576C796.913 522.268 796.092 530.494 821.96 525.586C834.774 523.158 855.299 520.181 856.496 507.193C857.505 496.292 834.551 504.779 824.211 501.186C800.464 492.932 772.847 464.091 780.666 436.241C789.612 404.373 826.482 372.262 861.376 379.556C867.289 380.794 871.268 386.498 876.392 389.691C879.912 391.883 883.731 393.559 887.279 395.698C892.868 399.069 905.31 412.557 903.797 406.209C901.79 397.775 891.456 394.025 885.404 387.817C873.863 375.98 874.76 371.097 854.621 372.797C843.216 373.761 832.124 377.25 821.209 380.683" fill="#FFE2CA"/>
<path d="M745 456.515C747.501 464.359 749.998 472.213 752.134 480.164C753.63 485.736 751.953 492.839 755.887 497.058C763.164 504.856 774.301 507.837 783.292 513.576C796.913 522.268 796.092 530.494 821.96 525.586C834.774 523.158 855.299 520.181 856.496 507.193C857.505 496.292 834.551 504.779 824.211 501.186C800.464 492.932 772.847 464.091 780.666 436.241C789.612 404.373 826.482 372.262 861.376 379.556C867.289 380.794 871.268 386.498 876.392 389.691C879.912 391.883 883.731 393.559 887.279 395.698C892.868 399.069 905.31 412.557 903.797 406.209C901.79 397.775 891.456 394.025 885.404 387.817C873.863 375.98 874.76 371.097 854.621 372.797C843.216 373.761 832.124 377.25 821.209 380.683" stroke="#FFC9C9" stroke-width="3" stroke-miterlimit="1.5" stroke-linecap="round" stroke-linejoin="round"/>
<path d="M907.128 409.969C908.961 415.583 910.804 421.228 911.935 427.026C915.11 443.329 916.366 458.076 910.491 474.354C905.277 488.803 894.55 492.64 881.18 497.182C874.87 499.325 868.272 500.539 861.719 501.746" stroke="#FFC9C9" stroke-width="3" stroke-miterlimit="1.5" stroke-linecap="round" stroke-linejoin="round"/>
<path fill-rule="evenodd" clip-rule="evenodd" d="M846.326 468.947C847.453 457.153 850.955 444.784 856.399 434.259C861.696 424.026 877.449 408.795 877.449 408.795C877.449 408.795 863.494 401.689 855.922 401.539C834.499 401.115 815.863 418.175 813.852 438.934C813.338 444.22 812.858 450.099 815.327 454.801C817.626 459.187 821.178 469.351 827.63 472.227C832.117 474.227 839.672 469.013 842.245 471.299" fill="#FFE2CA"/>
<path d="M846.326 468.947C847.453 457.153 850.955 444.784 856.399 434.259C861.696 424.026 877.449 408.795 877.449 408.795C877.449 408.795 863.494 401.689 855.922 401.539C834.499 401.115 815.863 418.175 813.852 438.934C813.338 444.22 812.858 450.099 815.327 454.801C817.626 459.187 821.178 469.351 827.63 472.227C832.117 474.227 839.672 469.013 842.245 471.299" stroke="#FFC9C9" stroke-width="3" stroke-miterlimit="1.5" stroke-linecap="round" stroke-linejoin="round"/>
<path d="M845.242 460.217C841.959 461.901 836.731 464.582 834.293 461.817C826.773 453.288 823.055 441.873 819.531 431.062" stroke="#FFC9C9" stroke-width="3" stroke-miterlimit="1.5" stroke-linecap="round" stroke-linejoin="round"/>
<path d="M849.805 446.067C847.231 448.144 842.813 451.712 840.459 449.389C835.213 444.22 836.017 435.226 832.337 428.847C830.483 425.629 827.255 423.358 824.219 421.219" stroke="#FFC9C9" stroke-width="3" stroke-miterlimit="1.5" stroke-linecap="round" stroke-linejoin="round"/>
<path d="M855.83 428.946C853.778 431.714 850.588 436.01 847.343 434.852C843.131 433.349 843.027 426.981 840.331 423.412C837.795 420.055 834.745 417.109 831.719 414.188" stroke="#FFC9C9" stroke-width="3" stroke-miterlimit="1.5" stroke-linecap="round" stroke-linejoin="round"/>
<path d="M868.374 408.797C864.071 408.157 859.33 407.451 855.334 409.166C850.962 411.044 849.636 418.884 844.878 418.884C841.129 418.884 839.942 412.846 839.219 409.166" stroke="#FFC9C9" stroke-width="3" stroke-miterlimit="1.5" stroke-linecap="round" stroke-linejoin="round"/>
<path fill-rule="evenodd" clip-rule="evenodd" d="M891.479 444.652C893.02 439.289 894.679 433.512 893.57 428.044C892.547 422.993 888.808 418.795 885.452 414.882C883.765 412.914 880.867 409.241 878.812 410.823C870.627 417.115 859.375 434.934 859.375 434.934C859.375 434.934 878.297 443.863 887.598 444.183" fill="#FFE2CA"/>
<path d="M891.479 444.652C893.02 439.289 894.679 433.512 893.57 428.044C892.547 422.993 888.808 418.795 885.452 414.882C883.765 412.914 880.867 409.241 878.812 410.823C870.627 417.115 859.375 434.934 859.375 434.934C859.375 434.934 878.297 443.863 887.598 444.183" stroke="#FFC9C9" stroke-width="3" stroke-miterlimit="1.5" stroke-linecap="round" stroke-linejoin="round"/>
<path fill-rule="evenodd" clip-rule="evenodd" d="M854.971 471.655C858.143 472.872 861.871 474.308 865.057 473.129C872.184 470.493 878.776 466.1 884.247 460.827C886.974 458.201 891.548 452.837 888.675 450.371C880.428 443.296 858.292 438.562 858.292 438.562C858.292 438.562 848.918 458.364 849.064 468.945" fill="#FFE2CA"/>
<path d="M854.971 471.655C858.143 472.872 861.871 474.308 865.057 473.129C872.184 470.493 878.776 466.1 884.247 460.827C886.974 458.201 891.548 452.837 888.675 450.371C880.428 443.296 858.292 438.562 858.292 438.562C858.292 438.562 848.918 458.364 849.064 468.945" stroke="#FFC9C9" stroke-width="3" stroke-miterlimit="1.5" stroke-linecap="round" stroke-linejoin="round"/>
<path d="M963.438 213.563L972.342 217.396L974.672 224.558" stroke="#FFC9C9" stroke-width="3" stroke-miterlimit="1.5" stroke-linecap="round" stroke-linejoin="round"/>
<path d="M1015.47 255.281L1025.17 257.581L1030.29 264.231" stroke="#FFC9C9" stroke-width="3" stroke-miterlimit="1.5" stroke-linecap="round" stroke-linejoin="round"/>
<path d="M1064.22 102L1077.78 108.901L1082.37 123.732" stroke="#FFC9C9" stroke-width="3" stroke-miterlimit="1.5" stroke-linecap="round" stroke-linejoin="round"/>
<path d="M1088.13 124.031L1103.46 128.122L1112.16 140.65" stroke="#FFC9C9" stroke-width="3" stroke-miterlimit="1.5" stroke-linecap="round" stroke-linejoin="round"/>
<path d="M776.425 425.906C771.152 432.174 765.038 440.672 765.671 448.842C766.398 458.258 774.467 465.663 780.245 473.131C787.323 482.289 794.276 492.195 804.022 498.442C814.78 505.339 827.653 508.466 840.071 511.482" stroke="#FFC9C9" stroke-width="3" stroke-miterlimit="1.5" stroke-linecap="round" stroke-linejoin="round"/>
<path d="M763.849 438.562C758.242 444.642 754.736 450.448 756.893 458.434C760.51 471.849 774.041 480.305 782.716 491.161C787.592 497.265 790.761 505.432 797.543 509.313C806.872 514.653 818.075 516.107 828.736 517.494" stroke="#FFC9C9" stroke-width="3" stroke-miterlimit="1.5" stroke-linecap="round" stroke-linejoin="round"/>
<path d="M753.127 447.938C751.697 453.746 750.128 460.108 751.846 465.837C753.439 471.144 774.167 500.789 779.207 504.188C788.96 510.758 800.573 514.115 811.676 517.993C815.078 519.182 818.81 519.228 822.414 519.269" stroke="#FFC9C9" stroke-width="3" stroke-miterlimit="1.5" stroke-linecap="round" stroke-linejoin="round"/>
<path fill-rule="evenodd" clip-rule="evenodd" d="M2 573.184C3.65881 564.985 5.4189 556.25 10.4132 549.543C15.9864 542.066 31.3515 541.571 32.4553 532.316C35.2598 508.658 20.3305 485.613 20.8317 461.8C21.0286 452.473 34.4544 437.359 34.4544 437.359C34.4544 437.359 49.8728 483.543 53.6857 507.476C55.8099 520.806 52.0865 547.938 52.0865 547.938C52.0865 547.938 68.7344 504.129 67.3083 481.431C65.6853 455.51 43.2675 407.31 43.2675 407.31C43.2675 407.31 71.2167 434.131 78.9319 451.381C86.9515 469.324 88.9443 509.475 88.9443 509.475C88.9443 509.475 104.823 484.444 106.171 470.213C108.146 449.448 98.5631 408.109 98.5631 408.109C98.5631 408.109 120.152 439 122.598 456.99C125.456 477.97 113.785 519.893 113.785 519.893C113.785 519.893 141.233 487.374 150.434 450.988C156.729 426.076 145.535 394.242 146.639 390.083C151.538 371.64 177.088 341.602 177.088 341.602C177.088 341.602 182.011 398.598 179.493 426.941C177.034 454.675 162.266 508.676 162.266 508.676C162.266 508.676 188.109 391.139 189.111 384.075C191.397 367.928 211.148 340.403 211.148 340.403C211.148 340.403 206.851 379.665 207.943 399.296C208.606 411.23 218.72 422.436 216.357 434.155C212.234 454.592 189.511 490.644 189.511 490.644C189.511 490.644 211.356 469.169 217.156 455.391C224.323 438.362 227.037 420.574 226.775 402.101C226.626 392.046 217.956 373.257 217.956 373.257C217.956 373.257 237.808 385.011 236.4 421.35C236.131 428.355 226.966 453.243 225.57 460.6C222.312 477.755 219.406 495.232 219.961 512.685C220.414 526.881 236.257 522.978 242.397 530.312C244.628 532.979 244.563 538.385 241.997 540.73C237.289 545.032 229.675 544.286 223.971 547.138C187.041 565.6 184.487 551.858 143.835 557.956C129.18 560.158 118.003 574.049 103.366 576.388C87.739 578.882 71.5568 575.356 56.0904 571.978" fill="#FFE2CA"/>
<path d="M2 573.184C3.65881 564.985 5.4189 556.25 10.4132 549.543C15.9864 542.066 31.3515 541.571 32.4553 532.316C35.2598 508.658 20.3305 485.613 20.8317 461.8C21.0286 452.473 34.4544 437.359 34.4544 437.359C34.4544 437.359 49.8728 483.543 53.6857 507.476C55.8099 520.806 52.0865 547.938 52.0865 547.938C52.0865 547.938 68.7344 504.129 67.3083 481.431C65.6853 455.51 43.2675 407.31 43.2675 407.31C43.2675 407.31 71.2167 434.131 78.9319 451.381C86.9515 469.324 88.9443 509.475 88.9443 509.475C88.9443 509.475 104.823 484.444 106.171 470.213C108.146 449.448 98.5631 408.109 98.5631 408.109C98.5631 408.109 120.152 439 122.598 456.99C125.456 477.97 113.785 519.893 113.785 519.893C113.785 519.893 141.233 487.374 150.434 450.988C156.729 426.076 145.535 394.242 146.639 390.083C151.538 371.64 177.088 341.602 177.088 341.602C177.088 341.602 182.011 398.598 179.493 426.941C177.034 454.675 162.266 508.676 162.266 508.676C162.266 508.676 188.109 391.139 189.111 384.075C191.397 367.928 211.148 340.403 211.148 340.403C211.148 340.403 206.851 379.665 207.943 399.296C208.606 411.23 218.72 422.436 216.357 434.155C212.234 454.592 189.511 490.644 189.511 490.644C189.511 490.644 211.356 469.169 217.156 455.391C224.323 438.362 227.037 420.574 226.775 402.101C226.626 392.046 217.956 373.257 217.956 373.257C217.956 373.257 237.808 385.011 236.4 421.35C236.131 428.355 226.966 453.243 225.57 460.6C222.312 477.755 219.406 495.232 219.961 512.685C220.414 526.881 236.257 522.978 242.397 530.312C244.628 532.979 244.563 538.385 241.997 540.73C237.289 545.032 229.675 544.286 223.971 547.138C187.041 565.6 184.487 551.858 143.835 557.956C129.18 560.158 118.003 574.049 103.366 576.388C87.739 578.882 71.5568 575.356 56.0904 571.978" stroke="#FFC9C9" stroke-width="3" stroke-miterlimit="1.5" stroke-linecap="round" stroke-linejoin="round"/>
<path d="M46.4107 458.461C40.7003 446.163 34.805 433.459 33.1879 419.998C31.004 401.817 35.1928 365.108 35.1928 365.108C36.8994 387.258 43.3138 405.2 56.823 416.794C56.823 416.794 57.9867 387.18 68.8465 376.726C81.9917 364.07 84.1994 343.091 86.8726 325.041C88.0959 316.8 80.0644 301 80.0644 301C84.3308 302.313 105.973 343.174 89.2774 370.717C77.5225 390.116 77.4151 414.95 76.8602 437.624C76.711 443.663 87.2783 452.452 87.2783 452.452C87.2783 452.452 90.0231 438.627 90.4825 431.616C90.6556 428.966 91.8371 411.251 96.2765 397.574C100.346 385.026 100.489 373.062 100.489 373.062C100.489 373.062 110.633 390.169 111.719 397.157C112.769 403.935 108.557 411 109.231 417.826" stroke="#FFC9C9" stroke-width="3" stroke-miterlimit="1.5" stroke-linecap="round" stroke-linejoin="round"/>
<path d="M126.286 481.404C130.511 462.644 134.879 443.258 133.095 424.11C131.197 403.709 117.408 385.617 115.468 365.216C114.37 353.67 124.281 331.557 124.281 331.557C124.281 331.557 124.962 358.008 127.886 370.825C130.356 381.631 135.38 391.745 140.309 401.674" stroke="#FFC9C9" stroke-width="3" stroke-miterlimit="1.5" stroke-linecap="round" stroke-linejoin="round"/>
<path d="M33.6971 443.333C32.7364 456.752 31.7578 470.386 33.6971 483.705C35.0336 492.9 43.5188 500.567 43.3636 509.858C43.1249 523.969 37.7308 537.669 32.5575 550.802" stroke="#FFC9C9" stroke-width="3" stroke-miterlimit="1.5" stroke-linecap="round" stroke-linejoin="round"/>
<path d="M54.2688 420.012C62.4495 432.895 70.8988 446.189 74.7415 460.957C78.4649 475.278 78.596 490.673 76.4479 505.309C73.6017 524.654 66.7279 543.259 59.9553 561.601" stroke="#FFC9C9" stroke-width="3" stroke-miterlimit="1.5" stroke-linecap="round" stroke-linejoin="round"/>
<path d="M107.632 428.054C111.892 441.605 116.439 456.056 114.452 470.126C112.286 485.509 99.1706 497.64 95.6918 512.778C92.0341 528.68 92.7321 545.375 93.4124 561.677" stroke="#FFC9C9" stroke-width="3" stroke-miterlimit="1.5" stroke-linecap="round" stroke-linejoin="round"/>
<path d="M172.678 356.486C169.014 371.701 165.333 386.994 163.579 402.544C156.191 468.168 148.232 466.092 131.166 529.92C129.525 536.06 132.216 542.778 134.579 548.68" stroke="#FFC9C9" stroke-width="3" stroke-miterlimit="1.5" stroke-linecap="round" stroke-linejoin="round"/>
<path d="M205.457 354.073C201.382 373.662 197.294 393.311 195.224 413.211C192.037 443.768 192.336 443.654 184.418 473.483C179.638 491.485 176.058 509.791 172.478 528.074" stroke="#FFC9C9" stroke-width="3" stroke-miterlimit="1.5" stroke-linecap="round" stroke-linejoin="round"/>
<path d="M230.761 393.476C231.477 404.264 232.217 415.392 229.627 425.888C224.74 445.686 214.608 463.844 208.588 483.32C204.918 495.188 202.764 507.48 200.622 519.712" stroke="#FFC9C9" stroke-width="3" stroke-miterlimit="1.5" stroke-linecap="round" stroke-linejoin="round"/>
<path d="M90.074 332.361C88.7852 345.166 87.4843 358.127 83.8146 370.46C81.7143 377.537 75.091 382.71 73.0145 389.793C70.8187 397.269 71.0692 405.319 71.3079 413.112" stroke="#FFC9C9" stroke-width="3" stroke-miterlimit="1.5" stroke-linecap="round" stroke-linejoin="round"/>
<path d="M39.7944 396.692C40.5105 406.401 41.2326 416.162 43.2017 425.692C44.6637 432.738 47.3607 439.481 50.028 446.164" stroke="#FFC9C9" stroke-width="3" stroke-miterlimit="1.5" stroke-linecap="round" stroke-linejoin="round"/>
<path d="M122.621 355.681C123.361 365.407 124.107 375.247 126.601 384.681C129.453 395.469 136.78 404.932 138.541 415.953C140.456 427.941 138.911 440.304 137.407 452.345" stroke="#FFC9C9" stroke-width="3" stroke-miterlimit="1.5" stroke-linecap="round" stroke-linejoin="round"/>
<path fill-rule="evenodd" clip-rule="evenodd" d="M308.821 94.1668C313.183 84.8639 323.947 79.9174 329.39 71.2045C330.349 69.6715 325.563 67.3775 325.563 67.3775C325.563 67.3775 330.818 54.3853 329.869 47.7569C329.533 45.3857 322.695 47.2772 322.695 47.2772C322.695 47.2772 322.37 27.2596 318.868 18.0945C317.765 15.216 312.863 13.1039 310.254 14.7417C305.716 17.5982 302.121 28.6217 302.121 28.6217C302.121 28.6217 296.601 26.6696 295.9 28.6217C292.564 37.8695 291.593 57.8043 291.593 57.8043C291.593 57.8043 286.355 27.1162 279.632 13.308C278.177 10.3246 273.892 21.4418 273.892 21.4418C273.892 21.4418 261.594 8.5986 253.797 4.69434C251.795 3.69622 253.797 11.3944 253.797 11.3944C253.797 11.3944 240.347 -2.10502 237.529 3.26058C233.195 11.5158 243.749 30.5352 243.749 30.5352C243.749 30.5352 230.349 20.1018 230.829 24.7891C231.8 34.263 245.663 49.1907 245.663 49.1907C245.663 49.1907 233.333 46.257 235.616 48.7164C241.604 55.1684 250.758 57.7271 258.098 62.5909C263.524 66.1863 273.892 74.072 273.892 74.072C273.892 74.072 259.46 67.1073 247.097 73.5923C240.435 77.094 229.092 69.4675 224.608 75.5113C221.173 80.138 233.283 83.397 236.09 88.4262C240.474 96.2734 244.279 90.996 250.924 97.0399C266.795 111.471 270.285 98.3744 291.114 102.301C298.443 103.685 300.014 107.936 304.293 114.041" fill="#FFE2CA"/>
<path d="M308.821 94.1668C313.183 84.8639 323.947 79.9174 329.39 71.2045C330.349 69.6715 325.563 67.3775 325.563 67.3775C325.563 67.3775 330.818 54.3853 329.87 47.7569C329.533 45.3857 322.695 47.2772 322.695 47.2772C322.695 47.2772 322.37 27.2596 318.868 18.0945C317.765 15.216 312.863 13.1039 310.254 14.7417C305.716 17.5982 302.121 28.6217 302.121 28.6217C302.121 28.6217 296.601 26.6696 295.9 28.6217C292.564 37.8695 291.593 57.8043 291.593 57.8043C291.593 57.8043 286.355 27.1162 279.632 13.308C278.177 10.3246 273.892 21.4418 273.892 21.4418C273.892 21.4418 261.594 8.5986 253.797 4.69434C251.795 3.69622 253.797 11.3944 253.797 11.3944C253.797 11.3944 240.347 -2.10502 237.529 3.26058C233.195 11.5158 243.749 30.5352 243.749 30.5352C243.749 30.5352 230.349 20.1018 230.829 24.7891C231.8 34.263 245.663 49.1907 245.663 49.1907C245.663 49.1907 233.333 46.257 235.616 48.7164C241.604 55.1684 250.758 57.7271 258.098 62.5909C263.524 66.1863 273.892 74.072 273.892 74.072C273.892 74.072 259.46 67.1073 247.097 73.5923C240.435 77.094 229.092 69.4675 224.608 75.5113C221.173 80.138 233.283 83.397 236.09 88.4262C240.474 96.2734 244.279 90.996 250.924 97.0399C266.795 111.471 270.285 98.3744 291.114 102.301C298.443 103.685 300.014 107.936 304.293 114.041" stroke="#FFC9C9" stroke-width="3" stroke-miterlimit="1.5" stroke-linecap="round" stroke-linejoin="round"/>
<path d="M312.013 124.725C311.505 117.678 301.37 102.684 300.322 101.768C301.155 98.1564 267.257 84.0559 248.375 85.0155" stroke="#FFC9C9" stroke-width="3" stroke-miterlimit="1.5" stroke-linecap="round" stroke-linejoin="round"/>
<path d="M300.516 101.896C298.542 99.3543 296.656 93.0402 296.656 93.0402C298.493 93.5641 308.099 58.7346 311.341 40.9062" stroke="#FFC9C9" stroke-width="3" stroke-miterlimit="1.5" stroke-linecap="round" stroke-linejoin="round"/>
<path d="M296.49 93.139C286.619 71.5221 273.047 51.2895 258.219 31.531" stroke="#FFC9C9" stroke-width="3" stroke-miterlimit="1.5" stroke-linecap="round" stroke-linejoin="round"/>
</svg>
