<svg width="100" height="100" viewBox="0 0 100 100" fill="none" xmlns="http://www.w3.org/2000/svg">
<mask id="mask0" mask-type="alpha" maskUnits="userSpaceOnUse" x="0" y="0" width="100" height="100">
<circle cx="50" cy="50" r="50" fill="#C4C4C4"/>
</mask>
<g mask="url(#mask0)">
<circle cx="50" cy="50" r="50" fill="#FF5555"/>
<path d="M22.0319 49.2763C20.3115 48.839 13.4305 49.1014 11.7101 49.2763C11.362 49.3117 11.4627 50.0786 11.7101 50.326C12.3224 50.9383 14.8882 52.3379 15.384 52.9502C15.6485 53.277 15.1047 53.9999 14.6842 53.9999C14.0719 53.9999 12.2934 52.9502 11.7101 52.9502C11.3189 52.9502 10.9526 53.6853 11.1853 53.9999C11.6811 54.6706 14.1009 56.2451 14.6842 56.9739C14.9756 57.3382 14.983 58.0152 14.6842 58.3735C14.1009 59.0733 11.7685 60.327 11.1853 61.1726C10.7549 61.7969 10.7479 63.068 11.1853 63.4469C11.6226 63.8259 13.0953 63.9522 13.8095 63.4469C15.005 62.6013 17.6873 58.286 18.358 58.3735C19.0288 58.461 17.6583 62.7762 17.8332 63.9718C17.9406 64.7062 18.9413 65.5463 19.4077 65.5463C19.8741 65.5463 20.5204 64.6271 20.6323 63.9718C20.8363 62.7762 20.1659 59.4522 20.6323 58.3735C21.0204 57.4764 22.9651 57.9362 23.4315 57.4988C23.8569 57.0999 23.8247 56.18 23.4315 55.7493C22.8192 55.0786 19.991 54.1164 19.7576 53.475C19.5242 52.8337 21.653 52.6003 22.0319 51.9005C22.4108 51.2007 22.8797 49.4919 22.0319 49.2763Z" fill="white"/>
<path d="M63.8369 65.0263C63.4768 65.8871 63.6329 67.2132 63.8369 67.8255C63.9954 68.3013 64.6241 68.7002 65.0615 68.7002C65.4989 68.7002 66.1969 68.308 66.4611 67.8255C67.9771 65.0554 72.0884 55.2878 73.4589 52.0804C73.9221 50.9957 76.1726 42.7078 77.8325 42.1085C78.5501 41.8492 80.0109 42.9832 81.1565 42.9832C82.6435 42.9832 85.5011 42.7208 86.7547 42.1085C87.7722 41.6116 88.5364 40.4325 88.6791 39.3093C88.9125 37.4724 88.8541 32.9822 88.1543 31.0869C87.5955 29.5739 86.0378 28.3577 84.4805 27.9379C81.8853 27.2381 74.6835 26.8882 72.5842 26.8882C72.1636 26.8882 71.5628 27.667 71.8844 27.9379C72.4382 28.4043 75.4928 28.2849 75.9081 29.6873C76.3745 31.2618 75.2248 34.8437 74.6835 37.3849C74.0128 40.5339 73.2895 45.0003 71.8844 48.5814C70.0765 53.1885 65.178 61.8189 63.8369 65.0263ZM77.1327 31.9616C77.2293 31.286 77.1534 30.1068 77.8325 30.0372C78.9697 29.9207 82.5851 30.766 83.9556 31.2618C84.8121 31.5718 85.7261 32.1617 86.055 33.0113C86.4049 33.9151 86.3174 35.7814 86.055 36.6851C85.8363 37.4385 85.2565 38.3191 84.4805 38.4346C83.1099 38.6386 79.0571 38.493 77.8325 37.9098C76.913 37.472 77.2493 35.9269 77.1327 34.9357C77.0169 33.9511 77.0162 32.7779 77.1327 31.9616Z" fill="white"/>
<path d="M6.80603 34.7599C6.98098 35.4596 4.53174 64.8505 4.53174 65.3754C4.53174 65.9002 4.94356 67.2805 5.75636 67.8246C6.79868 68.5223 7.68076 67.1248 7.85571 66.2501C8.03065 65.3754 7.2434 52.196 8.55549 48.9305C9.36724 46.9102 15.2034 47.181 15.7283 46.6562C16.2531 46.1313 17.4777 37.2381 17.8276 34.7599C17.9662 33.7781 18.7023 32.6605 17.8276 31.7858C16.9529 30.9111 9.25527 29.3365 7.50581 29.3365C5.75636 29.3365 5.23152 29.6864 5.05658 31.261C4.88163 32.8355 6.63109 34.0601 6.80603 34.7599ZM8.90538 43.6821C8.44947 43.4813 8.26578 42.1125 8.73043 41.9326C9.6342 41.5827 12.5502 41.2619 13.279 41.5827C14.0078 41.9036 13.658 43.857 12.7542 44.2069C11.8504 44.5568 9.6342 44.0029 8.90538 43.6821ZM9.25527 37.7339C8.79971 37.6328 8.86339 36.5873 9.25527 36.3344C10.159 35.7511 12.8707 34.7599 13.9788 34.5849C14.5099 34.5009 15.0729 34.763 15.2034 35.2847C15.3493 35.868 15.6275 37.4488 14.8535 37.7339C13.7454 38.1423 10.3049 37.9673 9.25527 37.7339Z" fill="white"/>
<path d="M28.5005 48.4019C29.3168 51.6674 28.413 64.4969 28.5005 67.9958C28.5131 68.4941 28.6989 69.0189 29.0253 69.3954C29.4042 69.8327 30.2499 70.7659 30.7748 70.62C31.2996 70.4741 32.153 69.3614 32.1743 68.5206C32.2618 65.0508 31.1537 55.0498 31.2996 49.8015C31.4189 45.5062 32.6992 40.0629 32.6992 37.0304C32.6992 35.1309 31.9703 32.9482 31.2996 31.6071C30.7818 30.5718 30.1233 29.3489 29.0253 28.9829C27.7132 28.5456 24.6226 28.5456 23.4271 28.9829C22.469 29.3335 22.0555 30.6075 21.8525 31.6071C21.4736 33.4731 21.4152 37.3803 21.1528 40.1795C20.8956 42.9236 20.4239 46.6234 20.278 48.4019C20.2112 49.2157 19.9572 50.3263 20.278 50.8511C20.5989 51.376 21.6528 51.9557 22.2024 51.5509C22.7563 51.1426 22.5747 48.9155 23.602 48.4019C24.6517 47.8771 28.1044 46.8179 28.5005 48.4019ZM23.9519 42.4537C23.1646 41.7249 23.4561 39.2463 24.3018 38.6049C25.1475 37.9636 28.2381 37.8761 29.0253 38.6049C29.8126 39.3338 29.871 42.3372 29.0253 42.9786C28.1796 43.6199 24.7391 43.1826 23.9519 42.4537ZM24.3018 35.106C23.4855 34.4353 23.4271 31.8111 24.3018 31.4322C25.1765 31.0532 28.7339 32.161 29.5501 32.8317C30.2321 33.3919 30.0099 35.105 29.2003 35.4559C28.3255 35.8349 25.1181 35.7768 24.3018 35.106Z" fill="white"/>
<path d="M43.7161 37.7306C42.7539 38.5179 38.7885 37.4392 37.593 37.7306C36.9324 37.8919 36.6017 38.8093 36.5433 39.4801C36.4848 40.1508 36.8032 41.0945 37.2431 41.7544C37.8263 42.6291 38.6717 44.0871 39.6923 44.3786C40.7129 44.67 42.5205 43.5038 43.3662 43.5038C44.0778 43.5038 44.8969 44.0511 45.1156 44.7285C45.4071 45.6322 45.8798 47.7547 45.1156 48.9272C43.862 50.8516 39.0216 54.3795 37.593 56.2749C36.7585 57.3816 36.3683 59.4823 36.5433 60.2986C36.7021 61.04 38.0237 61.6111 38.6426 61.1734C40.3337 59.9778 45.6989 52.8344 46.6901 53.1259C47.6814 53.4173 44.7657 60.8235 44.5908 62.9228C44.5079 63.9158 45.1447 65.4305 45.6405 65.7219C46.1363 66.0134 47.3119 65.3577 47.5649 64.6723C48.2646 62.7769 49.4602 57.208 49.8392 54.3505C50.1383 52.0958 49.4308 48.7522 49.8392 47.5276C50.1033 46.7354 51.7936 47.6756 52.2884 47.0028C53.0172 46.0115 52.9147 42.9916 54.2128 41.5794C54.9927 40.731 57.6508 40.4346 59.2379 39.4986C61.0325 38.4406 61.7732 37.6344 61.9104 36.8559C62.1749 35.3559 60.874 34.8171 59.986 34.7566C58.7029 34.6691 55.4665 36.1561 54.5627 35.6313C53.6589 35.1064 54.7961 32.4532 54.5627 31.6075C54.4077 31.0453 53.5421 30.5579 53.1631 30.5579C52.7842 30.5579 52.3587 31.1576 52.2884 31.6075C52.1425 32.5407 53.3381 35.2524 52.2884 36.1561C51.2387 37.0599 47.04 37.5557 45.9903 37.0309C44.9407 36.506 45.8738 33.9109 45.6405 33.0071C45.4757 32.3682 44.6783 31.6075 44.2409 31.6075C43.8035 31.6075 43.1041 32.3934 43.0163 33.0071C42.8704 34.0277 44.6783 36.9434 43.7161 37.7306ZM48.9644 45.2533C48.498 44.9618 47.3315 44.0871 47.5649 43.5038C47.7982 42.9206 49.8976 41.4629 50.364 41.7544C50.8304 42.0458 50.5974 44.67 50.364 45.2533C50.1908 45.6865 49.3601 45.5007 48.9644 45.2533Z" fill="white"/>
<path d="M75.3812 43.6781C75.0715 43.8187 74.6548 44.2792 74.8564 44.5528C75.2647 45.1067 77.4515 46.1564 77.8304 47.002C78.2006 47.8281 77.3829 48.7567 77.1307 49.6262C76.8682 50.53 75.9935 51.5506 76.2559 52.4254C76.5183 53.3001 77.9179 54.2913 78.7052 54.8746C79.3763 55.3714 80.688 55.6328 80.9795 55.9243C81.1855 56.1304 80.7436 56.5842 80.4546 56.624C79.6089 56.7406 76.7517 56.3616 75.906 56.624C75.3777 56.7881 75.0121 57.7867 75.3812 58.1986C76.1394 59.0442 78.9385 60.9102 79.7548 61.6975C80.0515 61.9837 80.6807 63.1761 80.2797 63.272C78.9385 63.5928 74.215 63.4179 72.4071 63.6219C71.4068 63.7349 69.7539 63.5634 69.433 64.1467C69.1122 64.73 69.8994 66.3335 70.4827 67.1208C71.066 67.908 71.9313 68.943 72.932 68.8702C77.3346 68.5494 92.5259 66.2461 96.5496 65.1964C97.3977 64.9753 97.5751 62.7849 96.7246 62.5722C95.7914 62.3388 93.2645 63.6695 91.3012 63.7968C89.056 63.9427 84.9742 63.7968 83.6036 63.4469C83.0137 63.2965 82.6152 62.0921 83.0788 61.6975C83.8661 61.0267 87.1025 60.4144 87.9773 59.7731C88.4006 59.4627 88.4468 58.4333 87.9773 58.1986C87.161 57.7902 84.2744 57.3238 83.4287 56.9739C83.0477 56.8161 82.9623 56.0408 83.2538 55.7493C83.6911 55.312 85.0186 54.2136 86.0529 54.3498C87.161 54.4957 89.0854 56.3032 89.9017 56.624C90.2449 56.7588 90.7533 56.5852 90.9514 56.2742C91.1553 55.9533 91.4664 55.1034 91.1263 54.6996C90.1931 53.5915 86.2863 50.6469 85.3531 49.6262C85.1138 49.3645 85.2947 48.839 85.528 48.5766C85.7614 48.3141 86.3555 48.2505 86.7527 48.0517C87.2775 47.7893 88.1813 47.4978 88.3272 47.002C88.4731 46.5062 87.6858 45.4566 87.2775 45.0776C86.9252 44.7505 86.3587 44.7277 85.8779 44.7277C84.3909 44.7277 80.2797 45.2526 78.7052 45.0776C77.9169 44.9902 77.3346 43.9115 76.7808 43.6781C76.3507 43.4972 75.702 43.5322 75.3812 43.6781ZM79.4049 50.326C79.4634 49.8302 79.864 48.9138 80.4546 48.5766C81.0669 48.2267 82.4955 48.0227 83.0788 48.2267C83.6456 48.425 83.8661 49.3054 83.9535 49.8012C84.0372 50.2746 83.9297 50.8473 83.6036 51.2007C83.2538 51.5797 82.4375 52.017 81.8542 52.0755C81.2709 52.1339 80.5131 51.8421 80.1047 51.5506C79.7223 51.2774 79.35 50.7931 79.4049 50.326Z" fill="white"/>
<path d="M52.2895 54.0019C52.406 51.2027 53.5575 44.1104 55.0886 43.5051C56.2279 43.0548 56.3906 44.602 56.4882 45.2546C56.5778 45.854 56.1383 47.0915 56.4882 47.5289C56.8381 47.9663 57.7737 47.8823 58.2376 47.5289C58.8499 47.0625 59.4623 45.488 60.162 44.7298C60.8107 44.0268 61.824 43.1262 62.4363 42.9803C62.9717 42.8529 63.7729 43.3085 63.8359 43.855C63.9234 44.6132 63.655 46.4785 62.9612 47.5289C61.8824 49.1618 58.6166 52.6314 57.3629 53.652C56.8654 54.0568 55.7884 53.1272 55.4385 53.652C55.0886 54.1768 54.7972 55.9553 55.2636 56.801C55.73 57.6467 57.0973 58.4196 58.2376 58.7254C59.4332 59.0463 61.1827 58.3465 62.4363 58.7254C63.69 59.1043 65.2064 60.2125 65.7603 60.9997C66.2302 61.6673 66.0811 62.8951 65.7603 63.4489C65.4394 64.0028 64.535 64.2362 63.8359 64.3237C63.1361 64.4111 59.2457 63.9412 58.2376 63.4489C56.984 62.8366 54.9711 61.7803 54.0389 60.2999C53.0477 58.7254 52.1989 56.1789 52.2895 54.0019Z" fill="white"/>
</g>
</svg>
